<svg version="1.1" viewBox="0.0 0.0 960.0 576.0" fill="none" stroke="none" stroke-linecap="square" stroke-miterlimit="10" xmlns:xlink="http://www.w3.org/1999/xlink" xmlns="http://www.w3.org/2000/svg"><clipPath id="p.0"><path d="m0 0l960.0 0l0 576.0l-960.0 0l0 -576.0z" clip-rule="nonzero"/></clipPath><g clip-path="url(#p.0)"><path fill="#000000" fill-opacity="0.0" d="m0 0l960.0 0l0 576.0l-960.0 0z" fill-rule="evenodd"/><path fill="#000000" fill-opacity="0.0" d="m332.2599 5.3070865l320.31494 0l0 46.866142l-320.31494 0z" fill-rule="evenodd"/><path fill="#000000" d="m348.0441 30.785835l3.1875 -0.3125q0.296875 1.609375 1.171875 2.359375q0.875 0.75 2.375 0.75q1.578125 0 2.375 -0.65625q0.8125 -0.671875 0.8125 -1.578125q0 -0.5625 -0.34375 -0.96875q-0.328125 -0.40625 -1.171875 -0.703125q-0.578125 -0.203125 -2.625 -0.71875q-2.640625 -0.640625 -3.703125 -1.59375q-1.484375 -1.34375 -1.484375 -3.265625q0 -1.234375 0.703125 -2.3125q0.703125 -1.078125 2.015625 -1.640625q1.328125 -0.578125 3.203125 -0.578125q3.046875 0 4.59375 1.34375q1.546875 1.34375 1.625 3.578125l-3.28125 0.140625q-0.203125 -1.25 -0.90625 -1.796875q-0.6875 -0.546875 -2.0625 -0.546875q-1.4375 0 -2.234375 0.578125q-0.53125 0.375 -0.53125 1.015625q0 0.578125 0.484375 0.984375q0.625 0.515625 3.015625 1.078125q2.390625 0.5625 3.53125 1.171875q1.15625 0.59375 1.796875 1.640625q0.640625 1.046875 0.640625 2.59375q0 1.390625 -0.78125 2.609375q-0.765625 1.21875 -2.1875 1.8125q-1.40625 0.578125 -3.515625 0.578125q-3.078125 0 -4.734375 -1.421875q-1.640625 -1.421875 -1.96875 -4.140625zm15.986542 5.28125l0 -16.21875l3.1875 0l6.625 10.828125l0 -10.828125l3.046875 0l0 16.21875l-3.28125 0l-6.546875 -10.578125l0 10.578125l-3.03125 0zm19.971008 0l0 -13.46875l-4.8125 0l0 -2.75l12.890625 0l0 2.75l-4.796875 0l0 13.46875l-3.28125 0zm10.183075 0l0 -16.21875l5.265625 0q2.984375 0 3.890625 0.25q1.390625 0.359375 2.328125 1.578125q0.953125 1.21875 0.953125 3.15625q0 1.5 -0.546875 2.515625q-0.546875 1.015625 -1.390625 1.609375q-0.828125 0.578125 -1.6875 0.765625q-1.171875 0.21875 -3.390625 0.21875l-2.140625 0l0 6.125l-3.28125 0zm3.28125 -13.46875l0 4.59375l1.796875 0q1.9375 0 2.578125 -0.25q0.65625 -0.25 1.03125 -0.796875q0.375 -0.546875 0.375 -1.265625q0 -0.875 -0.53125 -1.453125q-0.515625 -0.578125 -1.3125 -0.71875q-0.578125 -0.109375 -2.359375 -0.109375l-1.578125 0zm28.106049 7.5l3.171875 1.015625q-0.734375 2.65625 -2.4375 3.953125q-1.6875 1.28125 -4.296875 1.28125q-3.234375 0 -5.3125 -2.203125q-2.078125 -2.21875 -2.078125 -6.046875q0 -4.046875 2.078125 -6.28125q2.09375 -2.25 5.5 -2.25q2.984375 0 4.84375 1.765625q1.109375 1.03125 1.65625 2.984375l-3.234375 0.78125q-0.296875 -1.265625 -1.21875 -2.0q-0.90625 -0.734375 -2.203125 -0.734375q-1.8125 0 -2.9375 1.296875q-1.109375 1.296875 -1.109375 4.203125q0 3.0625 1.09375 4.375q1.109375 1.3125 2.890625 1.3125q1.296875 0 2.234375 -0.828125q0.9375 -0.84375 1.359375 -2.625zm5.2366333 -0.078125q0 -1.546875 0.765625 -2.984375q0.765625 -1.453125 2.15625 -2.21875q1.40625 -0.765625 3.125 -0.765625q2.671875 0 4.375 1.734375q1.703125 1.734375 1.703125 4.375q0 2.671875 -1.71875 4.421875q-1.71875 1.75 -4.328125 1.75q-1.625 0 -3.09375 -0.71875q-1.453125 -0.734375 -2.21875 -2.140625q-0.765625 -1.421875 -0.765625 -3.453125zm3.1875 0.171875q0 1.75 0.828125 2.6875q0.828125 0.921875 2.046875 0.921875q1.21875 0 2.03125 -0.921875q0.828125 -0.9375 0.828125 -2.703125q0 -1.734375 -0.828125 -2.65625q-0.8125 -0.9375 -2.03125 -0.9375q-1.21875 0 -2.046875 0.9375q-0.828125 0.921875 -0.828125 2.671875zm22.058075 5.875l-3.109375 0l0 -6.0q0 -1.90625 -0.203125 -2.453125q-0.1875 -0.5625 -0.640625 -0.875q-0.453125 -0.3125 -1.078125 -0.3125q-0.8125 0 -1.453125 0.453125q-0.640625 0.4375 -0.875 1.171875q-0.234375 0.71875 -0.234375 2.6875l0 5.328125l-3.109375 0l0 -11.75l2.875 0l0 1.734375q1.546875 -2.0 3.875 -2.0q1.03125 0 1.875 0.375q0.859375 0.375 1.296875 0.953125q0.4375 0.5625 0.609375 1.296875q0.171875 0.734375 0.171875 2.09375l0 7.296875zm13.839355 0l-3.109375 0l0 -6.0q0 -1.90625 -0.203125 -2.453125q-0.1875 -0.5625 -0.640625 -0.875q-0.453125 -0.3125 -1.078125 -0.3125q-0.8125 0 -1.453125 0.453125q-0.640625 0.4375 -0.875 1.171875q-0.234375 0.71875 -0.234375 2.6875l0 5.328125l-3.109375 0l0 -11.75l2.875 0l0 1.734375q1.546875 -2.0 3.875 -2.0q1.03125 0 1.875 0.375q0.859375 0.375 1.296875 0.953125q0.4375 0.5625 0.609375 1.296875q0.171875 0.734375 0.171875 2.09375l0 7.296875zm9.964325 -3.734375l3.09375 0.515625q-0.59375 1.703125 -1.890625 2.59375q-1.28125 0.890625 -3.21875 0.890625q-3.0625 0 -4.546875 -2.0q-1.15625 -1.609375 -1.15625 -4.046875q0 -2.921875 1.515625 -4.578125q1.53125 -1.65625 3.875 -1.65625q2.625 0 4.140625 1.734375q1.515625 1.734375 1.4375 5.296875l-7.78125 0q0.03125 1.390625 0.75 2.15625q0.71875 0.765625 1.796875 0.765625q0.71875 0 1.21875 -0.390625q0.5 -0.40625 0.765625 -1.28125zm0.171875 -3.140625q-0.03125 -1.359375 -0.703125 -2.0625q-0.65625 -0.703125 -1.609375 -0.703125q-1.015625 0 -1.6875 0.75q-0.65625 0.734375 -0.65625 2.015625l4.65625 0zm15.865967 -1.40625l-3.0625 0.5625q-0.15625 -0.921875 -0.703125 -1.375q-0.546875 -0.46875 -1.421875 -0.46875q-1.171875 0 -1.859375 0.796875q-0.6875 0.796875 -0.6875 2.6875q0 2.078125 0.703125 2.953125q0.703125 0.859375 1.875 0.859375q0.890625 0 1.453125 -0.5q0.5625 -0.515625 0.796875 -1.734375l3.0625 0.515625q-0.484375 2.109375 -1.84375 3.1875q-1.34375 1.0625 -3.609375 1.0625q-2.578125 0 -4.109375 -1.625q-1.53125 -1.625 -1.53125 -4.5q0 -2.90625 1.53125 -4.53125q1.546875 -1.625 4.171875 -1.625q2.140625 0 3.40625 0.921875q1.265625 0.921875 1.828125 2.8125zm7.7409363 -3.46875l0 2.484375l-2.125 0l0 4.734375q0 1.4375 0.0625 1.671875q0.0625 0.234375 0.265625 0.390625q0.21875 0.15625 0.53125 0.15625q0.4375 0 1.25 -0.296875l0.265625 2.40625q-1.078125 0.46875 -2.453125 0.46875q-0.84375 0 -1.515625 -0.28125q-0.671875 -0.28125 -1.0 -0.71875q-0.3125 -0.453125 -0.421875 -1.21875q-0.109375 -0.546875 -0.109375 -2.203125l0 -5.109375l-1.421875 0l0 -2.484375l1.421875 0l0 -2.328125l3.125 -1.8125l0 4.140625l2.125 0zm7.6362305 6.46875l3.1874695 -0.3125q0.296875 1.609375 1.171875 2.359375q0.875 0.75 2.375 0.75q1.578125 0 2.375 -0.65625q0.8125 -0.671875 0.8125 -1.578125q0 -0.5625 -0.34375 -0.96875q-0.328125 -0.40625 -1.171875 -0.703125q-0.578125 -0.203125 -2.625 -0.71875q-2.640625 -0.640625 -3.703125 -1.59375q-1.4843445 -1.34375 -1.4843445 -3.265625q0 -1.234375 0.7030945 -2.3125q0.703125 -1.078125 2.015625 -1.640625q1.328125 -0.578125 3.203125 -0.578125q3.046875 0 4.59375 1.34375q1.546875 1.34375 1.625 3.578125l-3.28125 0.140625q-0.203125 -1.25 -0.90625 -1.796875q-0.6875 -0.546875 -2.0625 -0.546875q-1.4375 0 -2.234375 0.578125q-0.53125 0.375 -0.53125 1.015625q0 0.578125 0.484375 0.984375q0.625 0.515625 3.015625 1.078125q2.390625 0.5625 3.53125 1.171875q1.15625 0.59375 1.796875 1.640625q0.640625 1.046875 0.640625 2.59375q0 1.390625 -0.78125 2.609375q-0.765625 1.21875 -2.1875 1.8125q-1.40625 0.578125 -3.515625 0.578125q-3.078125 0 -4.734375 -1.421875q-1.6405945 -1.421875 -1.9687195 -4.140625zm21.314667 -6.46875l0 2.484375l-2.125 0l0 4.734375q0 1.4375 0.0625 1.671875q0.0625 0.234375 0.265625 0.390625q0.21875 0.15625 0.53125 0.15625q0.4375 0 1.25 -0.296875l0.265625 2.40625q-1.078125 0.46875 -2.453125 0.46875q-0.84375 0 -1.515625 -0.28125q-0.671875 -0.28125 -1.0 -0.71875q-0.3125 -0.453125 -0.421875 -1.21875q-0.109375 -0.546875 -0.109375 -2.203125l0 -5.109375l-1.421875 0l0 -2.484375l1.421875 0l0 -2.328125l3.125 -1.8125l0 4.140625l2.125 0zm4.4821777 3.578125l-2.828125 -0.5q0.484375 -1.703125 1.640625 -2.515625q1.15625 -0.828125 3.453125 -0.828125q2.078125 0 3.09375 0.5q1.015625 0.484375 1.421875 1.25q0.421875 0.75 0.421875 2.78125l-0.03125 3.625q0 1.546875 0.140625 2.28125q0.15625 0.734375 0.578125 1.578125l-3.078125 0q-0.125 -0.3125 -0.296875 -0.921875q-0.078125 -0.265625 -0.109375 -0.359375q-0.796875 0.765625 -1.71875 1.15625q-0.90625 0.390625 -1.921875 0.390625q-1.828125 0 -2.875 -0.984375q-1.03125 -0.984375 -1.03125 -2.484375q0 -1.0 0.46875 -1.78125q0.484375 -0.78125 1.328125 -1.1875q0.859375 -0.421875 2.484375 -0.734375q2.171875 -0.40625 3.015625 -0.765625l0 -0.296875q0 -0.90625 -0.453125 -1.28125q-0.4375 -0.390625 -1.65625 -0.390625q-0.828125 0 -1.296875 0.328125q-0.46875 0.328125 -0.75 1.140625zm4.15625 2.53125q-0.59375 0.203125 -1.890625 0.484375q-1.296875 0.265625 -1.6875 0.53125q-0.609375 0.4375 -0.609375 1.09375q0 0.65625 0.484375 1.140625q0.484375 0.46875 1.234375 0.46875q0.84375 0 1.609375 -0.5625q0.5625 -0.40625 0.734375 -1.015625q0.125 -0.40625 0.125 -1.515625l0 -0.625zm11.506592 -6.109375l0 2.484375l-2.125 0l0 4.734375q0 1.4375 0.0625 1.671875q0.0625 0.234375 0.265625 0.390625q0.21875 0.15625 0.53125 0.15625q0.4375 0 1.25 -0.296875l0.265625 2.40625q-1.078125 0.46875 -2.453125 0.46875q-0.84375 0 -1.515625 -0.28125q-0.671875 -0.28125 -1.0 -0.71875q-0.3125 -0.453125 -0.421875 -1.21875q-0.109375 -0.546875 -0.109375 -2.203125l0 -5.109375l-1.421875 0l0 -2.484375l1.421875 0l0 -2.328125l3.125 -1.8125l0 4.140625l2.125 0zm8.966614 8.015625l3.09375 0.515625q-0.59375 1.703125 -1.890625 2.59375q-1.28125 0.890625 -3.21875 0.890625q-3.0625 0 -4.546875 -2.0q-1.15625 -1.609375 -1.15625 -4.046875q0 -2.921875 1.515625 -4.578125q1.53125 -1.65625 3.875 -1.65625q2.625 0 4.140625 1.734375q1.515625 1.734375 1.4375 5.296875l-7.78125 0q0.03125 1.390625 0.75 2.15625q0.71875 0.765625 1.796875 0.765625q0.71875 0 1.21875 -0.390625q0.5 -0.40625 0.765625 -1.28125zm0.171875 -3.140625q-0.03125 -1.359375 -0.703125 -2.0625q-0.65625 -0.703125 -1.609375 -0.703125q-1.015625 0 -1.6875 0.75q-0.65625 0.734375 -0.65625 2.015625l4.65625 0zm11.8949585 6.875l0 -16.21875l4.890625 0l2.953125 11.0625l2.90625 -11.0625l4.90625 0l0 16.21875l-3.046875 0l0 -12.765625l-3.21875 12.765625l-3.140625 0l-3.21875 -12.765625l0 12.765625l-3.03125 0zm18.169678 -6.046875q0 -1.546875 0.765625 -2.984375q0.765625 -1.453125 2.15625 -2.21875q1.40625 -0.765625 3.125 -0.765625q2.671875 0 4.375 1.734375q1.703125 1.734375 1.703125 4.375q0 2.671875 -1.71875 4.421875q-1.71875 1.75 -4.328125 1.75q-1.625 0 -3.09375 -0.71875q-1.453125 -0.734375 -2.21875 -2.140625q-0.765625 -1.421875 -0.765625 -3.453125zm3.1875 0.171875q0 1.75 0.828125 2.6875q0.828125 0.921875 2.046875 0.921875q1.21875 0 2.03125 -0.921875q0.828125 -0.9375 0.828125 -2.703125q0 -1.734375 -0.828125 -2.65625q-0.8125 -0.9375 -2.03125 -0.9375q-1.21875 0 -2.046875 0.9375q-0.828125 0.921875 -0.828125 2.671875zm22.151855 5.875l-2.890625 0l0 -1.71875q-0.71875 1.0 -1.703125 1.5q-0.96875 0.484375 -1.96875 0.484375q-2.03125 0 -3.484375 -1.625q-1.4375 -1.640625 -1.4375 -4.5625q0 -2.984375 1.40625 -4.53125q1.40625 -1.5625 3.5625 -1.5625q1.96875 0 3.40625 1.640625l0 -5.84375l3.109375 0l0 16.21875zm-8.296875 -6.125q0 1.875 0.515625 2.71875q0.75 1.21875 2.09375 1.21875q1.078125 0 1.828125 -0.90625q0.75 -0.921875 0.75 -2.734375q0 -2.03125 -0.734375 -2.921875q-0.71875 -0.890625 -1.859375 -0.890625q-1.109375 0 -1.859375 0.890625q-0.734375 0.875 -0.734375 2.625zm18.16748 2.390625l3.09375 0.515625q-0.59375 1.703125 -1.890625 2.59375q-1.28125 0.890625 -3.21875 0.890625q-3.0625 0 -4.546875 -2.0q-1.15625 -1.609375 -1.15625 -4.046875q0 -2.921875 1.515625 -4.578125q1.53125 -1.65625 3.875 -1.65625q2.625 0 4.140625 1.734375q1.515625 1.734375 1.4375 5.296875l-7.78125 0q0.03125 1.390625 0.75 2.15625q0.71875 0.765625 1.796875 0.765625q0.71875 0 1.21875 -0.390625q0.5 -0.40625 0.765625 -1.28125zm0.171875 -3.140625q-0.03125 -1.359375 -0.703125 -2.0625q-0.65625 -0.703125 -1.609375 -0.703125q-1.015625 0 -1.6875 0.75q-0.65625 0.734375 -0.65625 2.015625l4.65625 0zm5.615967 6.875l0 -16.21875l3.109375 0l0 16.21875l-3.109375 0z" fill-rule="nonzero"/><path fill="#000000" fill-opacity="0.0" d="m97.65293 198.98639l106.04723 0l0 38.771652l-106.04723 0z" fill-rule="evenodd"/><path fill="#000000" d="m108.15293 223.34639l0 -11.453125l1.515625 0l0 11.453125l-1.515625 0zm4.0078125 0l0 -8.296875l1.265625 0l0 1.171875q0.90625 -1.359375 2.640625 -1.359375q0.75 0 1.375 0.265625q0.625 0.265625 0.9375 0.703125q0.3125 0.4375 0.4375 1.046875q0.078125 0.390625 0.078125 1.359375l0 5.109375l-1.40625 0l0 -5.046875q0 -0.859375 -0.171875 -1.28125q-0.15625 -0.4375 -0.578125 -0.6875q-0.40625 -0.25 -0.96875 -0.25q-0.90625 0 -1.5625 0.578125q-0.640625 0.5625 -0.640625 2.15625l0 4.53125l-1.40625 0zm8.8984375 -9.84375l0 -1.609375l1.40625 0l0 1.609375l-1.40625 0zm0 9.84375l0 -8.296875l1.40625 0l0 8.296875l-1.40625 0zm6.6171875 -1.265625l0.203125 1.25q-0.59375 0.125 -1.0625 0.125q-0.765625 0 -1.1875 -0.234375q-0.421875 -0.25 -0.59375 -0.640625q-0.171875 -0.40625 -0.171875 -1.671875l0 -4.765625l-1.03125 0l0 -1.09375l1.03125 0l0 -2.0625l1.40625 -0.84375l0 2.90625l1.40625 0l0 1.09375l-1.40625 0l0 4.84375q0 0.609375 0.0625 0.78125q0.078125 0.171875 0.25 0.28125q0.171875 0.09375 0.484375 0.09375q0.234375 0 0.609375 -0.0625zm6.0781174 1.265625l0 -11.453125l7.734375 0l0 1.34375l-6.21875 0l0 3.546875l5.375 0l0 1.359375l-5.375 0l0 5.203125l-1.515625 0zm9.5234375 -9.84375l0 -1.609375l1.40625 0l0 1.609375l-1.40625 0zm0 9.84375l0 -8.296875l1.40625 0l0 8.296875l-1.40625 0zm3.5546875 0l0 -8.296875l1.265625 0l0 1.171875q0.90625 -1.359375 2.640625 -1.359375q0.75 0 1.375 0.265625q0.625 0.265625 0.9375 0.703125q0.3125 0.4375 0.4375 1.046875q0.078125 0.390625 0.078125 1.359375l0 5.109375l-1.40625 0l0 -5.046875q0 -0.859375 -0.171875 -1.28125q-0.15625 -0.4375 -0.578125 -0.6875q-0.40625 -0.25 -0.96875 -0.25q-0.90625 0 -1.5625 0.578125q-0.640625 0.5625 -0.640625 2.15625l0 4.53125l-1.40625 0zm8.8984375 -9.84375l0 -1.609375l1.40625 0l0 1.609375l-1.40625 0zm0 9.84375l0 -8.296875l1.40625 0l0 8.296875l-1.40625 0zm2.9921875 -2.484375l1.390625 -0.21875q0.109375 0.84375 0.640625 1.296875q0.546875 0.4375 1.5 0.4375q0.96875 0 1.4375 -0.390625q0.46875 -0.40625 0.46875 -0.9375q0 -0.46875 -0.40625 -0.75q-0.296875 -0.1875 -1.4375 -0.46875q-1.546875 -0.390625 -2.15625 -0.671875q-0.59375 -0.296875 -0.90625 -0.796875q-0.296875 -0.5 -0.296875 -1.109375q0 -0.5625 0.25 -1.03125q0.25 -0.46875 0.6875 -0.78125q0.328125 -0.25 0.890625 -0.40625q0.578125 -0.171875 1.21875 -0.171875q0.984375 0 1.71875 0.28125q0.734375 0.28125 1.078125 0.765625q0.359375 0.46875 0.5 1.28125l-1.375 0.1875q-0.09375 -0.640625 -0.546875 -1.0q-0.453125 -0.359375 -1.265625 -0.359375q-0.96875 0 -1.390625 0.328125q-0.40625 0.3125 -0.40625 0.734375q0 0.28125 0.171875 0.5q0.171875 0.21875 0.53125 0.375q0.21875 0.078125 1.25 0.359375q1.484375 0.390625 2.078125 0.65625q0.59375 0.25 0.921875 0.734375q0.34375 0.484375 0.34375 1.203125q0 0.703125 -0.421875 1.328125q-0.40625 0.609375 -1.1875 0.953125q-0.765625 0.34375 -1.734375 0.34375q-1.625 0 -2.46875 -0.671875q-0.84375 -0.671875 -1.078125 -2.0zm8.5625 2.484375l0 -11.453125l1.40625 0l0 4.109375q0.984375 -1.140625 2.484375 -1.140625q0.921875 0 1.59375 0.359375q0.6875 0.359375 0.96875 1.0q0.296875 0.640625 0.296875 1.859375l0 5.265625l-1.40625 0l0 -5.265625q0 -1.046875 -0.453125 -1.53125q-0.453125 -0.484375 -1.296875 -0.484375q-0.625 0 -1.171875 0.328125q-0.546875 0.328125 -0.78125 0.890625q-0.234375 0.546875 -0.234375 1.515625l0 4.546875l-1.40625 0zm14.5703125 -2.671875l1.453125 0.171875q-0.34375 1.28125 -1.28125 1.984375q-0.921875 0.703125 -2.359375 0.703125q-1.828125 0 -2.890625 -1.125q-1.0625 -1.125 -1.0625 -3.140625q0 -2.09375 1.078125 -3.25q1.078125 -1.15625 2.796875 -1.15625q1.65625 0 2.703125 1.140625q1.0625 1.125 1.0625 3.171875q0 0.125 0 0.375l-6.1875 0q0.078125 1.375 0.765625 2.109375q0.703125 0.71875 1.734375 0.71875q0.78125 0 1.328125 -0.40625q0.546875 -0.40625 0.859375 -1.296875zm-4.609375 -2.28125l4.625 0q-0.09375 -1.046875 -0.53125 -1.5625q-0.671875 -0.8125 -1.734375 -0.8125q-0.96875 0 -1.640625 0.65625q-0.65625 0.640625 -0.71875 1.71875zm13.2109375 4.953125l0 -1.046875q-0.78125 1.234375 -2.3125 1.234375q-1.0 0 -1.828125 -0.546875q-0.828125 -0.546875 -1.296875 -1.53125q-0.453125 -0.984375 -0.453125 -2.25q0 -1.25 0.40625 -2.25q0.421875 -1.015625 1.25 -1.546875q0.828125 -0.546875 1.859375 -0.546875q0.75 0 1.328125 0.3125q0.59375 0.3125 0.953125 0.828125l0 -4.109375l1.40625 0l0 11.453125l-1.3125 0zm-4.4375 -4.140625q0 1.59375 0.671875 2.390625q0.671875 0.78125 1.578125 0.78125q0.921875 0 1.5625 -0.75q0.65625 -0.765625 0.65625 -2.3125q0 -1.703125 -0.65625 -2.5q-0.65625 -0.796875 -1.625 -0.796875q-0.9375 0 -1.5625 0.765625q-0.625 0.765625 -0.625 2.421875z" fill-rule="nonzero"/><path fill="#d0e0e3" d="m51.734287 56.552002l0 0c0 -10.706497 13.234043 -19.385826 29.559055 -19.385826l0 0c16.32502 0 29.55906 8.679329 29.55906 19.385826l0 0c0 10.706497 -13.234039 19.385826 -29.55906 19.385826l0 0c-16.325012 0 -29.559055 -8.679329 -29.559055 -19.385826z" fill-rule="evenodd"/><path stroke="#000000" stroke-width="1.0" stroke-linejoin="round" stroke-linecap="butt" d="m51.734287 56.552002l0 0c0 -10.706497 13.234043 -19.385826 29.559055 -19.385826l0 0c16.32502 0 29.55906 8.679329 29.55906 19.385826l0 0c0 10.706497 -13.234039 19.385826 -29.55906 19.385826l0 0c-16.325012 0 -29.559055 -8.679329 -29.559055 -19.385826z" fill-rule="evenodd"/><path fill="#000000" fill-opacity="0.0" d="m113.63718 36.558163l117.38583 0l0 38.771656l-117.38583 0z" fill-rule="evenodd"/><path fill="#000000" d="m125.23093 60.918163l-2.546875 -8.296875l1.453125 0l1.328125 4.78125l0.484375 1.78125q0.03125 -0.125 0.4375 -1.703125l1.3125 -4.859375l1.453125 0l1.234375 4.8125l0.421875 1.578125l0.46875 -1.59375l1.421875 -4.796875l1.375 0l-2.59375 8.296875l-1.46875 0l-1.3125 -4.96875l-0.328125 -1.421875l-1.671875 6.390625l-1.46875 0zm10.0234375 -9.84375l0 -1.609375l1.40625 0l0 1.609375l-1.40625 0zm0 9.84375l0 -8.296875l1.40625 0l0 8.296875l-1.40625 0zm3.8828125 0l0 -7.203125l-1.234375 0l0 -1.09375l1.234375 0l0 -0.890625q0 -0.828125 0.15625 -1.234375q0.203125 -0.546875 0.703125 -0.890625q0.515625 -0.34375 1.4375 -0.34375q0.59375 0 1.3125 0.140625l-0.203125 1.234375q-0.4375 -0.078125 -0.828125 -0.078125q-0.640625 0 -0.90625 0.28125q-0.265625 0.265625 -0.265625 1.015625l0 0.765625l1.609375 0l0 1.09375l-1.609375 0l0 7.203125l-1.40625 0zm4.1171875 -9.84375l0 -1.609375l1.40625 0l0 1.609375l-1.40625 0zm0 9.84375l0 -8.296875l1.40625 0l0 8.296875l-1.40625 0zm2.2421875 3.1875038l0 -1.0156288l9.328125 0l0 1.0156288l-9.328125 0zm10.1953125 -3.1875038l0 -8.296875l1.265625 0l0 1.25q0.484375 -0.875 0.890625 -1.15625q0.40625 -0.28125 0.90625 -0.28125q0.703125 0 1.4375 0.453125l-0.484375 1.296875q-0.515625 -0.296875 -1.03125 -0.296875q-0.453125 0 -0.828125 0.28125q-0.359375 0.265625 -0.515625 0.765625q-0.234375 0.75 -0.234375 1.640625l0 4.34375l-1.40625 0zm10.78125 0l0 -1.21875q-0.96875 1.40625 -2.640625 1.40625q-0.734375 0 -1.375 -0.28125q-0.625 -0.28125 -0.9375 -0.703125q-0.3125 -0.4375 -0.4375 -1.046875q-0.078125 -0.421875 -0.078125 -1.3125l0 -5.140625l1.40625 0l0 4.59375q0 1.109375 0.078125 1.484375q0.140625 0.5625 0.5625 0.875q0.4375 0.3125 1.0625 0.3125q0.640625 0 1.1875 -0.3125q0.5625 -0.328125 0.78125 -0.890625q0.234375 -0.5625 0.234375 -1.625l0 -4.4375l1.40625 0l0 8.296875l-1.25 0zm3.4609375 0l0 -8.296875l1.265625 0l0 1.171875q0.90625 -1.359375 2.640625 -1.359375q0.75 0 1.375 0.265625q0.625 0.265625 0.9375 0.703125q0.3125 0.4375 0.4375 1.046875q0.078125 0.390625 0.078125 1.359375l0 5.109375l-1.40625 0l0 -5.046875q0 -0.859375 -0.171875 -1.28125q-0.15625 -0.4375 -0.578125 -0.6875q-0.40625 -0.25 -0.96875 -0.25q-0.90625 0 -1.5625 0.578125q-0.640625 0.5625 -0.640625 2.15625l0 4.53125l-1.40625 0zm16.148438 0l0 -10.109375l-3.78125 0l0 -1.34375l9.078125 0l0 1.34375l-3.78125 0l0 10.109375l-1.515625 0zm10.3125 -1.03125q-0.78125 0.671875 -1.5 0.953125q-0.71875 0.265625 -1.546875 0.265625q-1.375 0 -2.109375 -0.671875q-0.734375 -0.671875 -0.734375 -1.703125q0 -0.609375 0.28125 -1.109375q0.28125 -0.515625 0.71875 -0.8125q0.453125 -0.3125 1.015625 -0.46875q0.421875 -0.109375 1.25 -0.203125q1.703125 -0.203125 2.515625 -0.484375q0 -0.296875 0 -0.375q0 -0.859375 -0.390625 -1.203125q-0.546875 -0.484375 -1.609375 -0.484375q-0.984375 0 -1.46875 0.359375q-0.46875 0.34375 -0.6875 1.21875l-1.375 -0.1875q0.1875 -0.875 0.609375 -1.421875q0.4375 -0.546875 1.25 -0.828125q0.8125 -0.296875 1.875 -0.296875q1.0625 0 1.71875 0.25q0.671875 0.25 0.984375 0.625q0.3125 0.375 0.4375 0.953125q0.078125 0.359375 0.078125 1.296875l0 1.875q0 1.96875 0.078125 2.484375q0.09375 0.515625 0.359375 1.0l-1.46875 0q-0.21875 -0.4375 -0.28125 -1.03125zm-0.109375 -3.140625q-0.765625 0.3125 -2.296875 0.53125q-0.875 0.125 -1.234375 0.28125q-0.359375 0.15625 -0.5625 0.46875q-0.1875 0.296875 -0.1875 0.65625q0 0.5625 0.421875 0.9375q0.4375 0.375 1.25 0.375q0.8125 0 1.4375 -0.34375q0.640625 -0.359375 0.9375 -0.984375q0.234375 -0.46875 0.234375 -1.40625l0 -0.515625zm3.0390625 1.6875l1.390625 -0.21875q0.109375 0.84375 0.640625 1.296875q0.546875 0.4375 1.5 0.4375q0.96875 0 1.4375 -0.390625q0.46875 -0.40625 0.46875 -0.9375q0 -0.46875 -0.40625 -0.75q-0.296875 -0.1875 -1.4375 -0.46875q-1.546875 -0.390625 -2.15625 -0.671875q-0.59375 -0.296875 -0.90625 -0.796875q-0.296875 -0.5 -0.296875 -1.109375q0 -0.5625 0.25 -1.03125q0.25 -0.46875 0.6875 -0.78125q0.328125 -0.25 0.890625 -0.40625q0.578125 -0.171875 1.21875 -0.171875q0.984375 0 1.71875 0.28125q0.734375 0.28125 1.078125 0.765625q0.359375 0.46875 0.5 1.28125l-1.375 0.1875q-0.09375 -0.640625 -0.546875 -1.0q-0.453125 -0.359375 -1.265625 -0.359375q-0.96875 0 -1.390625 0.328125q-0.40625 0.3125 -0.40625 0.734375q0 0.28125 0.171875 0.5q0.171875 0.21875 0.53125 0.375q0.21875 0.078125 1.25 0.359375q1.484375 0.390625 2.078125 0.65625q0.59375 0.25 0.921875 0.734375q0.34375 0.484375 0.34375 1.203125q0 0.703125 -0.421875 1.328125q-0.40625 0.609375 -1.1875 0.953125q-0.765625 0.34375 -1.734375 0.34375q-1.625 0 -2.46875 -0.671875q-0.84375 -0.671875 -1.078125 -2.0zm8.5625 2.484375l0 -11.453125l1.40625 0l0 6.53125l3.328125 -3.375l1.828125 0l-3.171875 3.078125l3.484375 5.21875l-1.734375 0l-2.734375 -4.25l-1.0 0.953125l0 3.296875l-1.40625 0z" fill-rule="nonzero"/><path fill="#fff2cc" d="m199.81627 312.60892l0 0c0 -140.37599 167.64998 -254.17322 374.45667 -254.17322l0 0c206.80676 0 374.45673 113.797226 374.45673 254.17322l0 0c0 140.376 -167.64996 254.17325 -374.45673 254.17325l0 0c-206.8067 0 -374.45667 -113.79724 -374.45667 -254.17325z" fill-rule="evenodd"/><path stroke="#000000" stroke-width="1.0" stroke-linejoin="round" stroke-linecap="butt" d="m199.81627 312.60892l0 0c0 -140.37599 167.64998 -254.17322 374.45667 -254.17322l0 0c206.80676 0 374.45673 113.797226 374.45673 254.17322l0 0c0 140.376 -167.64996 254.17325 -374.45673 254.17325l0 0c-206.8067 0 -374.45667 -113.79724 -374.45667 -254.17325z" fill-rule="evenodd"/><path fill="#f3f3f3" d="m4.7237935 344.91168l0 0c0 -10.515167 8.524216 -19.039368 19.039371 -19.039368l124.88188 0c5.0495605 0 9.892303 2.0059204 13.462875 5.576477c3.570572 3.5705872 5.5764923 8.41333 5.5764923 13.462891l0 0l0 0c0 10.515137 -8.524216 19.039368 -19.039368 19.039368l-124.88188 0c-10.515155 0 -19.039371 -8.524231 -19.039371 -19.039368z" fill-rule="evenodd"/><path stroke="#000000" stroke-width="1.0" stroke-linejoin="round" stroke-linecap="butt" d="m4.7237935 344.91168l0 0c0 -10.515167 8.524216 -19.039368 19.039371 -19.039368l124.88188 0c5.0495605 0 9.892303 2.0059204 13.462875 5.576477c3.570572 3.5705872 5.5764923 8.41333 5.5764923 13.462891l0 0l0 0c0 10.515137 -8.524216 19.039368 -19.039368 19.039368l-124.88188 0c-10.515155 0 -19.039371 -8.524231 -19.039371 -19.039368z" fill-rule="evenodd"/><path fill="#000000" d="m57.35094 347.64917l1.15625 -0.1875q0.109375 0.703125 0.546875 1.078125q0.453125 0.359375 1.25 0.359375q0.8125 0 1.203125 -0.328125q0.390625 -0.328125 0.390625 -0.765625q0 -0.390625 -0.359375 -0.625q-0.234375 -0.15625 -1.1875 -0.390625q-1.296875 -0.328125 -1.796875 -0.5625q-0.484375 -0.25 -0.75 -0.65625q-0.25 -0.421875 -0.25 -0.9375q0 -0.453125 0.203125 -0.84375q0.21875 -0.40625 0.578125 -0.671875q0.28125 -0.1875 0.75 -0.328125q0.46875 -0.140625 1.015625 -0.140625q0.8125 0 1.421875 0.234375q0.609375 0.234375 0.90625 0.640625q0.296875 0.390625 0.40625 1.0625l-1.140625 0.15625q-0.078125 -0.53125 -0.453125 -0.828125q-0.375 -0.3125 -1.0625 -0.3125q-0.8125 0 -1.15625 0.265625q-0.34375 0.265625 -0.34375 0.625q0 0.234375 0.140625 0.421875q0.15625 0.1875 0.453125 0.3125q0.171875 0.0625 1.03125 0.296875q1.25 0.328125 1.734375 0.546875q0.5 0.203125 0.78125 0.609375q0.28125 0.40625 0.28125 1.0q0 0.59375 -0.34375 1.109375q-0.34375 0.515625 -1.0 0.796875q-0.640625 0.28125 -1.453125 0.28125q-1.34375 0 -2.046875 -0.5625q-0.703125 -0.5625 -0.90625 -1.65625zm7.1328087 2.0625l0 -6.90625l1.0625 0l0 0.984375q0.75 -1.140625 2.1875 -1.140625q0.625 0 1.15625 0.21875q0.53125 0.21875 0.78125 0.59375q0.265625 0.359375 0.375 0.859375q0.0625 0.328125 0.0625 1.140625l0 4.25l-1.171875 0l0 -4.203125q0 -0.71875 -0.140625 -1.0625q-0.140625 -0.359375 -0.484375 -0.5625q-0.34375 -0.21875 -0.8125 -0.21875q-0.75 0 -1.296875 0.46875q-0.546875 0.46875 -0.546875 1.796875l0 3.78125l-1.171875 0zm9.974976 -1.046875l0.171875 1.03125q-0.5 0.109375 -0.890625 0.109375q-0.640625 0 -1.0 -0.203125q-0.34375 -0.203125 -0.484375 -0.53125q-0.140625 -0.328125 -0.140625 -1.390625l0 -3.96875l-0.859375 0l0 -0.90625l0.859375 0l0 -1.71875l1.171875 -0.703125l0 2.421875l1.171875 0l0 0.90625l-1.171875 0l0 4.046875q0 0.5 0.046875 0.640625q0.0625 0.140625 0.203125 0.234375q0.140625 0.078125 0.40625 0.078125q0.203125 0 0.515625 -0.046875zm1.1404877 3.703125l0 -9.5625l1.078125 0l0 0.890625q0.375 -0.53125 0.84375 -0.78125q0.484375 -0.265625 1.15625 -0.265625q0.875 0 1.546875 0.453125q0.6875 0.453125 1.03125 1.28125q0.34375 0.828125 0.34375 1.828125q0 1.046875 -0.375 1.90625q-0.375 0.84375 -1.109375 1.296875q-0.71875 0.453125 -1.53125 0.453125q-0.578125 0 -1.046875 -0.25q-0.46875 -0.25 -0.765625 -0.625l0 3.375l-1.171875 0zm1.0625 -6.078125q0 1.34375 0.53125 1.984375q0.546875 0.625 1.3125 0.625q0.78125 0 1.34375 -0.65625q0.5625 -0.65625 0.5625 -2.046875q0 -1.3125 -0.546875 -1.96875q-0.546875 -0.671875 -1.296875 -0.671875q-0.75 0 -1.328125 0.703125q-0.578125 0.703125 -0.578125 2.03125zm6.5218506 3.421875l0 -9.546875l4.234375 0q1.265625 0 1.921875 0.265625q0.671875 0.25 1.0625 0.90625q0.40625 0.65625 0.40625 1.4375q0 1.015625 -0.65625 1.71875q-0.65625 0.6875 -2.03125 0.875q0.5 0.25 0.765625 0.484375q0.546875 0.5 1.046875 1.265625l1.65625 2.59375l-1.578125 0l-1.265625 -1.984375q-0.5625 -0.859375 -0.921875 -1.3125q-0.34375 -0.453125 -0.640625 -0.640625q-0.28125 -0.1875 -0.5625 -0.25q-0.21875 -0.046875 -0.703125 -0.046875l-1.46875 0l0 4.234375l-1.265625 0zm1.265625 -5.328125l2.71875 0q0.859375 0 1.34375 -0.171875q0.484375 -0.1875 0.734375 -0.578125q0.265625 -0.390625 0.265625 -0.859375q0 -0.671875 -0.5 -1.109375q-0.484375 -0.4375 -1.546875 -0.4375l-3.015625 0l0 3.15625zm12.718903 5.328125l0 -1.015625q-0.8125 1.171875 -2.1875 1.171875q-0.609375 0 -1.140625 -0.234375q-0.53125 -0.234375 -0.796875 -0.578125q-0.25 -0.359375 -0.359375 -0.875q-0.0625 -0.34375 -0.0625 -1.09375l0 -4.28125l1.171875 0l0 3.828125q0 0.921875 0.0625 1.234375q0.109375 0.46875 0.46875 0.734375q0.359375 0.25 0.890625 0.25q0.515625 0 0.984375 -0.265625q0.46875 -0.265625 0.65625 -0.734375q0.1875 -0.46875 0.1875 -1.34375l0 -3.703125l1.171875 0l0 6.90625l-1.046875 0zm2.8812256 0l0 -6.90625l1.0625 0l0 0.984375q0.75 -1.140625 2.1875 -1.140625q0.625 0 1.15625 0.21875q0.53125 0.21875 0.78125 0.59375q0.265625 0.359375 0.375 0.859375q0.0625 0.328125 0.0625 1.140625l0 4.25l-1.171875 0l0 -4.203125q0 -0.71875 -0.140625 -1.0625q-0.140625 -0.359375 -0.484375 -0.5625q-0.34375 -0.21875 -0.8125 -0.21875q-0.75 0 -1.296875 0.46875q-0.546875 0.46875 -0.546875 1.796875l0 3.78125l-1.171875 0zm9.662476 2.8125q-0.984375 -1.234375 -1.65625 -2.875q-0.65625 -1.640625 -0.65625 -3.390625q0 -1.546875 0.5 -2.96875q0.578125 -1.640625 1.8125 -3.28125l0.828125 0q-0.78125 1.359375 -1.03125 1.9375q-0.40625 0.890625 -0.625 1.875q-0.28125 1.21875 -0.28125 2.4375q0 3.140625 1.9375 6.265625l-0.828125 0zm2.9539948 0l-0.828125 0q1.9375 -3.125 1.9375 -6.265625q0 -1.21875 -0.28125 -2.421875q-0.21875 -0.984375 -0.609375 -1.875q-0.265625 -0.59375 -1.046875 -1.953125l0.828125 0q1.234375 1.640625 1.8125 3.28125q0.5 1.421875 0.5 2.96875q0 1.75 -0.671875 3.390625q-0.671875 1.640625 -1.640625 2.875z" fill-rule="nonzero"/><path fill="#f3f3f3" d="m4.7237935 489.44186l0 0c0 -10.515167 8.524216 -19.039368 19.039371 -19.039368l124.88188 0c5.0495605 0 9.892303 2.0059204 13.462875 5.576477c3.570572 3.5705872 5.5764923 8.41333 5.5764923 13.462891l0 0l0 0c0 10.515137 -8.524216 19.039368 -19.039368 19.039368l-124.88188 0c-10.515155 0 -19.039371 -8.524231 -19.039371 -19.039368z" fill-rule="evenodd"/><path stroke="#000000" stroke-width="1.0" stroke-linejoin="round" stroke-linecap="butt" d="m4.7237935 489.44186l0 0c0 -10.515167 8.524216 -19.039368 19.039371 -19.039368l124.88188 0c5.0495605 0 9.892303 2.0059204 13.462875 5.576477c3.570572 3.5705872 5.5764923 8.41333 5.5764923 13.462891l0 0l0 0c0 10.515137 -8.524216 19.039368 -19.039368 19.039368l-124.88188 0c-10.515155 0 -19.039371 -8.524231 -19.039371 -19.039368z" fill-rule="evenodd"/><path fill="#000000" d="m57.35094 492.17935l1.15625 -0.1875q0.109375 0.703125 0.546875 1.078125q0.453125 0.359375 1.25 0.359375q0.8125 0 1.203125 -0.328125q0.390625 -0.328125 0.390625 -0.765625q0 -0.390625 -0.359375 -0.625q-0.234375 -0.15625 -1.1875 -0.390625q-1.296875 -0.328125 -1.796875 -0.5625q-0.484375 -0.25 -0.75 -0.65625q-0.25 -0.421875 -0.25 -0.9375q0 -0.453125 0.203125 -0.84375q0.21875 -0.40625 0.578125 -0.671875q0.28125 -0.1875 0.75 -0.328125q0.46875 -0.140625 1.015625 -0.140625q0.8125 0 1.421875 0.234375q0.609375 0.234375 0.90625 0.640625q0.296875 0.390625 0.40625 1.0625l-1.140625 0.15625q-0.078125 -0.53125 -0.453125 -0.828125q-0.375 -0.3125 -1.0625 -0.3125q-0.8125 0 -1.15625 0.265625q-0.34375 0.265625 -0.34375 0.625q0 0.234375 0.140625 0.421875q0.15625 0.1875 0.453125 0.3125q0.171875 0.0625 1.03125 0.296875q1.25 0.328125 1.734375 0.546875q0.5 0.203125 0.78125 0.609375q0.28125 0.40625 0.28125 1.0q0 0.59375 -0.34375 1.109375q-0.34375 0.515625 -1.0 0.796875q-0.640625 0.28125 -1.453125 0.28125q-1.34375 0 -2.046875 -0.5625q-0.703125 -0.5625 -0.90625 -1.65625zm7.1328087 2.0625l0 -6.90625l1.0625 0l0 0.984375q0.75 -1.140625 2.1875 -1.140625q0.625 0 1.15625 0.21875q0.53125 0.21875 0.78125 0.59375q0.265625 0.359375 0.375 0.859375q0.0625 0.328125 0.0625 1.140625l0 4.25l-1.171875 0l0 -4.203125q0 -0.71875 -0.140625 -1.0625q-0.140625 -0.359375 -0.484375 -0.5625q-0.34375 -0.21875 -0.8125 -0.21875q-0.75 0 -1.296875 0.46875q-0.546875 0.46875 -0.546875 1.796875l0 3.78125l-1.171875 0zm9.974976 -1.046875l0.171875 1.03125q-0.5 0.109375 -0.890625 0.109375q-0.640625 0 -1.0 -0.203125q-0.34375 -0.203125 -0.484375 -0.53125q-0.140625 -0.328125 -0.140625 -1.390625l0 -3.96875l-0.859375 0l0 -0.90625l0.859375 0l0 -1.71875l1.171875 -0.703125l0 2.421875l1.171875 0l0 0.90625l-1.171875 0l0 4.046875q0 0.5 0.046875 0.640625q0.0625 0.140625 0.203125 0.234375q0.140625 0.078125 0.40625 0.078125q0.203125 0 0.515625 -0.046875zm1.1404877 3.703125l0 -9.5625l1.078125 0l0 0.890625q0.375 -0.53125 0.84375 -0.78125q0.484375 -0.265625 1.15625 -0.265625q0.875 0 1.546875 0.453125q0.6875 0.453125 1.03125 1.28125q0.34375 0.828125 0.34375 1.828125q0 1.046875 -0.375 1.90625q-0.375 0.84375 -1.109375 1.296875q-0.71875 0.453125 -1.53125 0.453125q-0.578125 0 -1.046875 -0.25q-0.46875 -0.25 -0.765625 -0.625l0 3.375l-1.171875 0zm1.0625 -6.078125q0 1.34375 0.53125 1.984375q0.546875 0.625 1.3125 0.625q0.78125 0 1.34375 -0.65625q0.5625 -0.65625 0.5625 -2.046875q0 -1.3125 -0.546875 -1.96875q-0.546875 -0.671875 -1.296875 -0.671875q-0.75 0 -1.328125 0.703125q-0.578125 0.703125 -0.578125 2.03125zm6.5218506 3.421875l0 -9.546875l4.234375 0q1.265625 0 1.921875 0.265625q0.671875 0.25 1.0625 0.90625q0.40625 0.65625 0.40625 1.4375q0 1.015625 -0.65625 1.71875q-0.65625 0.6875 -2.03125 0.875q0.5 0.25 0.765625 0.484375q0.546875 0.5 1.046875 1.265625l1.65625 2.59375l-1.578125 0l-1.265625 -1.984375q-0.5625 -0.859375 -0.921875 -1.3125q-0.34375 -0.453125 -0.640625 -0.640625q-0.28125 -0.1875 -0.5625 -0.25q-0.21875 -0.046875 -0.703125 -0.046875l-1.46875 0l0 4.234375l-1.265625 0zm1.265625 -5.328125l2.71875 0q0.859375 0 1.34375 -0.171875q0.484375 -0.1875 0.734375 -0.578125q0.265625 -0.390625 0.265625 -0.859375q0 -0.671875 -0.5 -1.109375q-0.484375 -0.4375 -1.546875 -0.4375l-3.015625 0l0 3.15625zm12.718903 5.328125l0 -1.015625q-0.8125 1.171875 -2.1875 1.171875q-0.609375 0 -1.140625 -0.234375q-0.53125 -0.234375 -0.796875 -0.578125q-0.25 -0.359375 -0.359375 -0.875q-0.0625 -0.34375 -0.0625 -1.09375l0 -4.28125l1.171875 0l0 3.828125q0 0.921875 0.0625 1.234375q0.109375 0.46875 0.46875 0.734375q0.359375 0.25 0.890625 0.25q0.515625 0 0.984375 -0.265625q0.46875 -0.265625 0.65625 -0.734375q0.1875 -0.46875 0.1875 -1.34375l0 -3.703125l1.171875 0l0 6.90625l-1.046875 0zm2.8812256 0l0 -6.90625l1.0625 0l0 0.984375q0.75 -1.140625 2.1875 -1.140625q0.625 0 1.15625 0.21875q0.53125 0.21875 0.78125 0.59375q0.265625 0.359375 0.375 0.859375q0.0625 0.328125 0.0625 1.140625l0 4.25l-1.171875 0l0 -4.203125q0 -0.71875 -0.140625 -1.0625q-0.140625 -0.359375 -0.484375 -0.5625q-0.34375 -0.21875 -0.8125 -0.21875q-0.75 0 -1.296875 0.46875q-0.546875 0.46875 -0.546875 1.796875l0 3.78125l-1.171875 0zm9.662476 2.8125q-0.984375 -1.234375 -1.65625 -2.875q-0.65625 -1.640625 -0.65625 -3.390625q0 -1.546875 0.5 -2.96875q0.578125 -1.640625 1.8125 -3.28125l0.828125 0q-0.78125 1.359375 -1.03125 1.9375q-0.40625 0.890625 -0.625 1.875q-0.28125 1.21875 -0.28125 2.4375q0 3.140625 1.9375 6.265625l-0.828125 0zm2.9539948 0l-0.828125 0q1.9375 -3.125 1.9375 -6.265625q0 -1.21875 -0.28125 -2.421875q-0.21875 -0.984375 -0.609375 -1.875q-0.265625 -0.59375 -1.046875 -1.953125l0.828125 0q1.234375 1.640625 1.8125 3.28125q0.5 1.421875 0.5 2.96875q0 1.75 -0.671875 3.390625q-0.671875 1.640625 -1.640625 2.875z" fill-rule="nonzero"/><path fill="#f4cccc" d="m51.734287 104.552l0 0c0 -10.706497 13.234043 -19.385826 29.559055 -19.385826l0 0c16.32502 0 29.55906 8.679329 29.55906 19.385826l0 0c0 10.706497 -13.234039 19.385826 -29.55906 19.385826l0 0c-16.325012 0 -29.559055 -8.679329 -29.559055 -19.385826z" fill-rule="evenodd"/><path stroke="#000000" stroke-width="1.0" stroke-linejoin="round" stroke-linecap="butt" d="m51.734287 104.552l0 0c0 -10.706497 13.234043 -19.385826 29.559055 -19.385826l0 0c16.32502 0 29.55906 8.679329 29.55906 19.385826l0 0c0 10.706497 -13.234039 19.385826 -29.55906 19.385826l0 0c-16.325012 0 -29.559055 -8.679329 -29.559055 -19.385826z" fill-rule="evenodd"/><path fill="#000000" fill-opacity="0.0" d="m113.63718 84.55817l117.38583 0l0 38.771652l-117.38583 0z" fill-rule="evenodd"/><path fill="#000000" d="m126.76218 107.65254l0.203125 1.25q-0.59375 0.125 -1.0625 0.125q-0.765625 0 -1.1875 -0.234375q-0.421875 -0.25 -0.59375 -0.640625q-0.171875 -0.40625 -0.171875 -1.671875l0 -4.765625l-1.03125 0l0 -1.09375l1.03125 0l0 -2.0625l1.40625 -0.84375l0 2.90625l1.40625 0l0 1.09375l-1.40625 0l0 4.84375q0 0.609375 0.0625 0.78125q0.078125 0.171875 0.25 0.28125q0.171875 0.09375 0.484375 0.09375q0.234375 0 0.609375 -0.0625zm1.3828125 -8.578125l0 -1.609375l1.40625 0l0 1.609375l-1.40625 0zm0 9.84375l0 -8.296875l1.40625 0l0 8.296875l-1.40625 0zm6.6484375 0l0 -10.109375l-3.78125 0l0 -1.34375l9.078125 0l0 1.34375l-3.78125 0l0 10.109375l-1.515625 0zm13.640625 0l0 -10.109375l-3.78125 0l0 -1.34375l9.078125 0l0 1.34375l-3.78125 0l0 10.109375l-1.515625 0zm10.3125 -1.03125q-0.78125 0.671875 -1.5 0.953125q-0.71875 0.265625 -1.546875 0.265625q-1.375 0 -2.109375 -0.671875q-0.734375 -0.671875 -0.734375 -1.703125q0 -0.609375 0.28125 -1.109375q0.28125 -0.515625 0.71875 -0.8125q0.453125 -0.3125 1.015625 -0.46875q0.421875 -0.109375 1.25 -0.203125q1.703125 -0.203125 2.515625 -0.484375q0 -0.296875 0 -0.375q0 -0.859375 -0.390625 -1.203125q-0.546875 -0.484375 -1.609375 -0.484375q-0.984375 0 -1.46875 0.359375q-0.46875 0.34375 -0.6875 1.21875l-1.375 -0.1875q0.1875 -0.875 0.609375 -1.421875q0.4375 -0.546875 1.25 -0.828125q0.8125 -0.296875 1.875 -0.296875q1.0625 0 1.71875 0.25q0.671875 0.25 0.984375 0.625q0.3125 0.375 0.4375 0.953125q0.078125 0.359375 0.078125 1.296875l0 1.875q0 1.96875 0.078125 2.484375q0.09375 0.515625 0.359375 1.0l-1.46875 0q-0.21875 -0.4375 -0.28125 -1.03125zm-0.109375 -3.140625q-0.765625 0.3125 -2.296875 0.53125q-0.875 0.125 -1.234375 0.28125q-0.359375 0.15625 -0.5625 0.46875q-0.1875 0.296875 -0.1875 0.65625q0 0.5625 0.421875 0.9375q0.4375 0.375 1.25 0.375q0.8125 0 1.4375 -0.34375q0.640625 -0.359375 0.9375 -0.984375q0.234375 -0.46875 0.234375 -1.40625l0 -0.515625zm3.0390625 1.6875l1.390625 -0.21875q0.109375 0.84375 0.640625 1.296875q0.546875 0.4375 1.5 0.4375q0.96875 0 1.4375 -0.390625q0.46875 -0.40625 0.46875 -0.9375q0 -0.46875 -0.40625 -0.75q-0.296875 -0.1875 -1.4375 -0.46875q-1.546875 -0.390625 -2.15625 -0.671875q-0.59375 -0.296875 -0.90625 -0.796875q-0.296875 -0.5 -0.296875 -1.109375q0 -0.5625 0.25 -1.03125q0.25 -0.46875 0.6875 -0.78125q0.328125 -0.25 0.890625 -0.40625q0.578125 -0.171875 1.21875 -0.171875q0.984375 0 1.71875 0.28125q0.734375 0.28125 1.078125 0.765625q0.359375 0.46875 0.5 1.28125l-1.375 0.1875q-0.09375 -0.640625 -0.546875 -1.0q-0.453125 -0.359375 -1.265625 -0.359375q-0.96875 0 -1.390625 0.328125q-0.40625 0.3125 -0.40625 0.734375q0 0.28125 0.171875 0.5q0.171875 0.21875 0.53125 0.375q0.21875 0.078125 1.25 0.359375q1.484375 0.390625 2.078125 0.65625q0.59375 0.25 0.921875 0.734375q0.34375 0.484375 0.34375 1.203125q0 0.703125 -0.421875 1.328125q-0.40625 0.609375 -1.1875 0.953125q-0.765625 0.34375 -1.734375 0.34375q-1.625 0 -2.46875 -0.671875q-0.84375 -0.671875 -1.078125 -2.0zm8.5625 2.484375l0 -11.453125l1.40625 0l0 6.53125l3.328125 -3.375l1.828125 0l-3.171875 3.078125l3.484375 5.21875l-1.734375 0l-2.734375 -4.25l-1.0 0.953125l0 3.296875l-1.40625 0z" fill-rule="nonzero"/><path fill="#fff2cc" d="m51.734287 152.552l0 0c0 -10.706497 13.234043 -19.385834 29.559055 -19.385834l0 0c16.32502 0 29.55906 8.679337 29.55906 19.385834l0 0c0 10.706497 -13.234039 19.385834 -29.55906 19.385834l0 0c-16.325012 0 -29.559055 -8.679337 -29.559055 -19.385834z" fill-rule="evenodd"/><path stroke="#000000" stroke-width="1.0" stroke-linejoin="round" stroke-linecap="butt" d="m51.734287 152.552l0 0c0 -10.706497 13.234043 -19.385834 29.559055 -19.385834l0 0c16.32502 0 29.55906 8.679337 29.55906 19.385834l0 0c0 10.706497 -13.234039 19.385834 -29.55906 19.385834l0 0c-16.325012 0 -29.559055 -8.679337 -29.559055 -19.385834z" fill-rule="evenodd"/><path fill="#000000" fill-opacity="0.0" d="m113.63718 132.55725l137.22835 0l0 38.771652l-137.22835 0z" fill-rule="evenodd"/><path fill="#000000" d="m123.13718 154.43288l1.390625 -0.21875q0.109375 0.84375 0.640625 1.296875q0.546875 0.4375 1.5 0.4375q0.96875 0 1.4375 -0.390625q0.46875 -0.40625 0.46875 -0.9375q0 -0.46875 -0.40625 -0.75q-0.296875 -0.1875 -1.4375 -0.46875q-1.546875 -0.390625 -2.15625 -0.671875q-0.59375 -0.296875 -0.90625 -0.796875q-0.296875 -0.5 -0.296875 -1.109375q0 -0.5625 0.25 -1.03125q0.25 -0.46875 0.6875 -0.78125q0.328125 -0.25 0.890625 -0.40625q0.578125 -0.171875 1.21875 -0.171875q0.984375 0 1.71875 0.28125q0.734375 0.28125 1.078125 0.765625q0.359375 0.46875 0.5 1.28125l-1.375 0.1875q-0.09375 -0.640625 -0.546875 -1.0q-0.453125 -0.359375 -1.265625 -0.359375q-0.96875 0 -1.390625 0.328125q-0.40625 0.3125 -0.40625 0.734375q0 0.28125 0.171875 0.5q0.171875 0.21875 0.53125 0.375q0.21875 0.078125 1.25 0.359375q1.484375 0.390625 2.078125 0.65625q0.59375 0.25 0.921875 0.734375q0.34375 0.484375 0.34375 1.203125q0 0.703125 -0.421875 1.328125q-0.40625 0.609375 -1.1875 0.953125q-0.765625 0.34375 -1.734375 0.34375q-1.625 0 -2.46875 -0.671875q-0.84375 -0.671875 -1.078125 -2.0zm8.5625 2.484375l0 -8.296875l1.265625 0l0 1.171875q0.90625 -1.359375 2.640625 -1.359375q0.75 0 1.375 0.265625q0.625 0.265625 0.9375 0.703125q0.3125 0.4375 0.4375 1.046875q0.078125 0.390625 0.078125 1.359375l0 5.109375l-1.40625 0l0 -5.046875q0 -0.859375 -0.171875 -1.28125q-0.15625 -0.4375 -0.578125 -0.6875q-0.40625 -0.25 -0.96875 -0.25q-0.90625 0 -1.5625 0.578125q-0.640625 0.5625 -0.640625 2.15625l0 4.53125l-1.40625 0zm11.9609375 -1.265625l0.203125 1.25q-0.59375 0.125 -1.0625 0.125q-0.765625 0 -1.1875 -0.234375q-0.421875 -0.25 -0.59375 -0.640625q-0.171875 -0.40625 -0.171875 -1.671875l0 -4.765625l-1.03125 0l0 -1.09375l1.03125 0l0 -2.0625l1.40625 -0.84375l0 2.90625l1.40625 0l0 1.09375l-1.40625 0l0 4.84375q0 0.609375 0.0625 0.78125q0.078125 0.171875 0.25 0.28125q0.171875 0.09375 0.484375 0.09375q0.234375 0 0.609375 -0.0625zm1.3828125 4.453125l0 -11.484375l1.28125 0l0 1.078125q0.453125 -0.640625 1.015625 -0.953125q0.578125 -0.3125 1.390625 -0.3125q1.0625 0 1.875 0.546875q0.8125 0.546875 1.21875 1.546875q0.421875 0.984375 0.421875 2.171875q0 1.28125 -0.46875 2.296875q-0.453125 1.015625 -1.328125 1.5625q-0.859375 0.546875 -1.828125 0.546875q-0.703125 0 -1.265625 -0.296875q-0.546875 -0.296875 -0.90625 -0.75l0 4.046875l-1.40625 0zm1.265625 -7.296875q0 1.609375 0.640625 2.375q0.65625 0.765625 1.578125 0.765625q0.9375 0 1.609375 -0.796875q0.671875 -0.796875 0.671875 -2.453125q0 -1.59375 -0.65625 -2.375q-0.65625 -0.796875 -1.5625 -0.796875q-0.890625 0 -1.59375 0.84375q-0.6875 0.84375 -0.6875 2.4375zm11.796875 -1.46875q0 -2.859375 1.53125 -4.46875q1.53125 -1.609375 3.953125 -1.609375q1.578125 0 2.84375 0.765625q1.28125 0.75 1.953125 2.109375q0.671875 1.34375 0.671875 3.0625q0 1.75 -0.703125 3.125q-0.703125 1.375 -2.0 2.09375q-1.28125 0.703125 -2.78125 0.703125q-1.609375 0 -2.890625 -0.78125q-1.265625 -0.796875 -1.921875 -2.140625q-0.65625 -1.359375 -0.65625 -2.859375zm1.5625 0.015625q0 2.078125 1.109375 3.265625q1.109375 1.1875 2.796875 1.1875q1.703125 0 2.8125 -1.203125q1.109375 -1.203125 1.109375 -3.40625q0 -1.40625 -0.484375 -2.4375q-0.46875 -1.046875 -1.375 -1.625q-0.90625 -0.578125 -2.046875 -0.578125q-1.609375 0 -2.765625 1.109375q-1.15625 1.109375 -1.15625 3.6875zm11.1640625 8.75l0 -11.484375l1.28125 0l0 1.078125q0.453125 -0.640625 1.015625 -0.953125q0.578125 -0.3125 1.390625 -0.3125q1.0625 0 1.875 0.546875q0.8125 0.546875 1.21875 1.546875q0.421875 0.984375 0.421875 2.171875q0 1.28125 -0.46875 2.296875q-0.453125 1.015625 -1.328125 1.5625q-0.859375 0.546875 -1.828125 0.546875q-0.703125 0 -1.265625 -0.296875q-0.546875 -0.296875 -0.90625 -0.75l0 4.046875l-1.40625 0zm1.265625 -7.296875q0 1.609375 0.640625 2.375q0.65625 0.765625 1.578125 0.765625q0.9375 0 1.609375 -0.796875q0.671875 -0.796875 0.671875 -2.453125q0 -1.59375 -0.65625 -2.375q-0.65625 -0.796875 -1.5625 -0.796875q-0.890625 0 -1.59375 0.84375q-0.6875 0.84375 -0.6875 2.4375zm13.3046875 1.4375l1.453125 0.171875q-0.34375 1.28125 -1.28125 1.984375q-0.921875 0.703125 -2.359375 0.703125q-1.828125 0 -2.890625 -1.125q-1.0625 -1.125 -1.0625 -3.140625q0 -2.09375 1.078125 -3.25q1.078125 -1.15625 2.796875 -1.15625q1.65625 0 2.703125 1.140625q1.0625 1.125 1.0625 3.171875q0 0.125 0 0.375l-6.1875 0q0.078125 1.375 0.765625 2.109375q0.703125 0.71875 1.734375 0.71875q0.78125 0 1.328125 -0.40625q0.546875 -0.40625 0.859375 -1.296875zm-4.609375 -2.28125l4.625 0q-0.09375 -1.046875 -0.53125 -1.5625q-0.671875 -0.8125 -1.734375 -0.8125q-0.96875 0 -1.640625 0.65625q-0.65625 0.640625 -0.71875 1.71875zm7.8203125 4.953125l0 -8.296875l1.265625 0l0 1.25q0.484375 -0.875 0.890625 -1.15625q0.40625 -0.28125 0.90625 -0.28125q0.703125 0 1.4375 0.453125l-0.484375 1.296875q-0.515625 -0.296875 -1.03125 -0.296875q-0.453125 0 -0.828125 0.28125q-0.359375 0.265625 -0.515625 0.765625q-0.234375 0.75 -0.234375 1.640625l0 4.34375l-1.40625 0zm10.75 -1.03125q-0.78125 0.671875 -1.5 0.953125q-0.71875 0.265625 -1.546875 0.265625q-1.375 0 -2.109375 -0.671875q-0.734375 -0.671875 -0.734375 -1.703125q0 -0.609375 0.28125 -1.109375q0.28125 -0.515625 0.71875 -0.8125q0.453125 -0.3125 1.015625 -0.46875q0.421875 -0.109375 1.25 -0.203125q1.703125 -0.203125 2.515625 -0.484375q0 -0.296875 0 -0.375q0 -0.859375 -0.390625 -1.203125q-0.546875 -0.484375 -1.609375 -0.484375q-0.984375 0 -1.46875 0.359375q-0.46875 0.34375 -0.6875 1.21875l-1.375 -0.1875q0.1875 -0.875 0.609375 -1.421875q0.4375 -0.546875 1.25 -0.828125q0.8125 -0.296875 1.875 -0.296875q1.0625 0 1.71875 0.25q0.671875 0.25 0.984375 0.625q0.3125 0.375 0.4375 0.953125q0.078125 0.359375 0.078125 1.296875l0 1.875q0 1.96875 0.078125 2.484375q0.09375 0.515625 0.359375 1.0l-1.46875 0q-0.21875 -0.4375 -0.28125 -1.03125zm-0.109375 -3.140625q-0.765625 0.3125 -2.296875 0.53125q-0.875 0.125 -1.234375 0.28125q-0.359375 0.15625 -0.5625 0.46875q-0.1875 0.296875 -0.1875 0.65625q0 0.5625 0.421875 0.9375q0.4375 0.375 1.25 0.375q0.8125 0 1.4375 -0.34375q0.640625 -0.359375 0.9375 -0.984375q0.234375 -0.46875 0.234375 -1.40625l0 -0.515625zm6.6640625 2.90625l0.203125 1.25q-0.59375 0.125 -1.0625 0.125q-0.765625 0 -1.1875 -0.234375q-0.421875 -0.25 -0.59375 -0.640625q-0.171875 -0.40625 -0.171875 -1.671875l0 -4.765625l-1.03125 0l0 -1.09375l1.03125 0l0 -2.0625l1.40625 -0.84375l0 2.90625l1.40625 0l0 1.09375l-1.40625 0l0 4.84375q0 0.609375 0.0625 0.78125q0.078125 0.171875 0.25 0.28125q0.171875 0.09375 0.484375 0.09375q0.234375 0 0.609375 -0.0625zm1.3828125 -8.578125l0 -1.609375l1.40625 0l0 1.609375l-1.40625 0zm0 9.84375l0 -8.296875l1.40625 0l0 8.296875l-1.40625 0zm3.0234375 -4.15625q0 -2.296875 1.28125 -3.40625q1.078125 -0.921875 2.609375 -0.921875q1.71875 0 2.796875 1.125q1.09375 1.109375 1.09375 3.09375q0 1.59375 -0.484375 2.515625q-0.484375 0.921875 -1.40625 1.4375q-0.90625 0.5 -2.0 0.5q-1.734375 0 -2.8125 -1.109375q-1.078125 -1.125 -1.078125 -3.234375zm1.453125 0q0 1.59375 0.6875 2.390625q0.703125 0.796875 1.75 0.796875q1.046875 0 1.734375 -0.796875q0.703125 -0.796875 0.703125 -2.4375q0 -1.53125 -0.703125 -2.328125q-0.6875 -0.796875 -1.734375 -0.796875q-1.046875 0 -1.75 0.796875q-0.6875 0.78125 -0.6875 2.375zm7.9765625 4.15625l0 -8.296875l1.265625 0l0 1.171875q0.90625 -1.359375 2.640625 -1.359375q0.75 0 1.375 0.265625q0.625 0.265625 0.9375 0.703125q0.3125 0.4375 0.4375 1.046875q0.078125 0.390625 0.078125 1.359375l0 5.109375l-1.40625 0l0 -5.046875q0 -0.859375 -0.171875 -1.28125q-0.15625 -0.4375 -0.578125 -0.6875q-0.40625 -0.25 -0.96875 -0.25q-0.90625 0 -1.5625 0.578125q-0.640625 0.5625 -0.640625 2.15625l0 4.53125l-1.40625 0zm8.3359375 -2.484375l1.390625 -0.21875q0.109375 0.84375 0.640625 1.296875q0.546875 0.4375 1.5 0.4375q0.96875 0 1.4375 -0.390625q0.46875 -0.40625 0.46875 -0.9375q0 -0.46875 -0.40625 -0.75q-0.296875 -0.1875 -1.4375 -0.46875q-1.546875 -0.390625 -2.15625 -0.671875q-0.59375 -0.296875 -0.90625 -0.796875q-0.296875 -0.5 -0.296875 -1.109375q0 -0.5625 0.25 -1.03125q0.25 -0.46875 0.6875 -0.78125q0.328125 -0.25 0.890625 -0.40625q0.578125 -0.171875 1.21875 -0.171875q0.984375 0 1.71875 0.28125q0.734375 0.28125 1.078125 0.765625q0.359375 0.46875 0.5 1.28125l-1.375 0.1875q-0.09375 -0.640625 -0.546875 -1.0q-0.453125 -0.359375 -1.265625 -0.359375q-0.96875 0 -1.390625 0.328125q-0.40625 0.3125 -0.40625 0.734375q0 0.28125 0.171875 0.5q0.171875 0.21875 0.53125 0.375q0.21875 0.078125 1.25 0.359375q1.484375 0.390625 2.078125 0.65625q0.59375 0.25 0.921875 0.734375q0.34375 0.484375 0.34375 1.203125q0 0.703125 -0.421875 1.328125q-0.40625 0.609375 -1.1875 0.953125q-0.765625 0.34375 -1.734375 0.34375q-1.625 0 -2.46875 -0.671875q-0.84375 -0.671875 -1.078125 -2.0z" fill-rule="nonzero"/><path fill="#000000" fill-opacity="0.0" d="m67.02601 203.02289l14.3937 79.055115l-32.440945 5.9212646l-14.393703 -79.055115z" fill-rule="evenodd"/><path fill="#000000" d="m53.21209 222.94667q2.336403 -0.42643738 3.8878174 0.59280396q1.5514183 1.0192413 1.9124718 3.0022736q0.2351036 1.291275 -0.18941498 2.4488068q-0.4245224 1.1575317 -1.4486465 1.9003754q-1.0059586 0.7554016 -2.4200974 1.0135193q-1.414135 0.25811768 -2.6579514 -0.11842346q-1.2256432 -0.36395264 -2.0028648 -1.318039q-0.7590523 -0.9414978 -0.98295975 -2.17128q-0.24070358 -1.3220215 0.19918823 -2.4823608q0.45526123 -1.1631622 1.4640198 -1.903183q1.0087547 -0.740036 2.2384377 -0.9644928zm0.21973419 1.2940826q-1.690815 0.30862427 -2.50943 1.3951416q-0.80324554 1.0837097 -0.5513458 2.4672241q0.2546959 1.39888 1.4035759 2.1262817q1.14888 0.72740173 2.9626617 0.39634705q1.1374588 -0.20761108 1.9254684 -0.7644043q0.79080963 -0.5414276 1.1147957 -1.37883q0.34215546 -0.82484436 0.17422485 -1.7471771q-0.24069977 -1.3220215 -1.3211212 -2.1095734q-1.0776253 -0.7721863 -3.1988297 -0.38500977zm-2.8859367 9.969147l6.7940063 -1.2400818l0.19032288 1.0453186l-0.96837616 0.17675781q1.2564316 0.5330658 1.5139275 1.9473114q0.111953735 0.6148834 -0.008079529 1.1768188q-0.120033264 0.5619507 -0.44415665 0.8752289q-0.30595398 0.3258667 -0.7782364 0.5232544q-0.31159592 0.120391846 -1.1108894 0.2662964l-4.1809273 0.7631073l-0.20991516 -1.1529083l4.134815 -0.75471497q0.7070656 -0.12905884 1.0200386 -0.32913208q0.32834625 -0.20288086 0.4665947 -0.5775299q0.15362167 -0.37747192 0.06965256 -0.8386383q-0.1343422 -0.73786926 -0.69343567 -1.191742q-0.55908966 -0.45385742 -1.8656311 -0.21537781l-3.7197952 0.6789551l-0.20991516 -1.1529236zm1.3585625 7.461685l9.391716 -1.7142181l1.2370949 6.7945404l-1.1067162 0.20201111l-1.0103874 -5.5493927l-2.8743896 0.52464294l0.9460144 5.1958313l-1.1067162 0.20199585l-0.9460144 -5.1958313l-3.197178 0.5835724l1.049572 5.7646027l-1.1067162 0.20199585l-1.2762794 -7.0097504zm1.5588074 8.561493l6.7940063 -1.2400665l0.19032288 1.0453186l-1.0298615 0.18797302q0.7952118 0.26782227 1.0845528 0.54855347q0.29214096 0.2960968 0.3677101 0.7111511q0.106357574 0.5841522 -0.15339279 1.2510071l-1.1333733 -0.20610046q0.1675682 -0.47531128 0.091999054 -0.8903656q-0.06997299 -0.38430786 -0.35651398 -0.6496582q-0.2837448 -0.25 -0.70578384 -0.30003357q-0.65122604 -0.08761597 -1.3736649 0.04425049l-3.5660858 0.65089417l-0.20991516 -1.1529236zm0.7950325 4.3665924l6.7940063 -1.2400818l0.19032288 1.0453186l-1.0298615 0.18797302q0.795208 0.26782227 1.0845528 0.54855347q0.29214096 0.29611206 0.3677101 0.7111664q0.10635376 0.58413696 -0.1533966 1.2510071l-1.1333733 -0.20611572q0.16757202 -0.47531128 0.09200287 -0.89035034q-0.06997299 -0.38430786 -0.35651398 -0.64967346q-0.2837448 -0.24998474 -0.70578384 -0.3000183q-0.65122604 -0.08761597 -1.3736687 0.04423523l-3.566082 0.6509094l-0.20991516 -1.1529236zm4.1164665 3.331482q1.8906364 -0.34506226 2.9906502 0.55007935q0.9127197 0.738739 1.1422234 1.9992676q0.2546959 1.3988953 -0.50523376 2.4588013q-0.7445564 1.0571289 -2.37389 1.3545227q-1.3065376 0.23846436 -2.132492 -0.023712158q-0.82315063 -0.24685669 -1.3753128 -0.9243469q-0.552166 -0.67749023 -0.7144966 -1.5690613q-0.26029587 -1.4296265 0.48426437 -2.4867554q0.76272583 -1.0445557 2.4842873 -1.3587952zm0.21551132 1.1836853q-1.3065414 0.23846436 -1.848568 0.92507935q-0.53922653 0.70196533 -0.38249207 1.5628357q0.15673828 0.86083984 0.90588 1.3117676q0.7645111 0.44815063 2.1017952 0.20407104q1.2604256 -0.23007202 1.7996521 -0.9320679q0.5420265 -0.6865845 0.38809204 -1.532074q-0.15673828 -0.86083984 -0.90867996 -1.3271484q-0.7491417 -0.45095825 -2.0556793 -0.21246338zm-2.209175 7.1440125l6.7940063 -1.2400818l0.19032288 1.0453186l-1.0298615 0.18795776q0.7952118 0.26782227 1.0845528 0.54855347q0.29214096 0.29611206 0.3677101 0.7111511q0.106357574 0.5841675 -0.15339279 1.2510071l-1.1333733 -0.2060852q0.1675682 -0.47531128 0.091999054 -0.89038086q-0.06996918 -0.38427734 -0.35651398 -0.6496582q-0.2837448 -0.25 -0.70578 -0.3000183q-0.65122986 -0.08761597 -1.3736687 0.04425049l-3.5660858 0.6508789l-0.20991516 -1.1528931z" fill-rule="nonzero"/><path fill="#000000" fill-opacity="0.0" d="m167.68442 344.91168c8.032944 0 12.05014 -8.078735 16.065887 -16.157501c4.015747 -8.078735 8.03006 -16.15747 16.060104 -16.15747" fill-rule="evenodd"/><path stroke="#000000" stroke-width="1.0" stroke-linejoin="round" stroke-linecap="butt" d="m167.68442 344.91165c8.032944 0 12.05014 -8.078735 16.065887 -16.15747c2.0078735 -4.0393677 4.015381 -8.078735 6.5246887 -11.108276c0.62731934 -0.75738525 1.2860107 -1.4516296 1.983902 -2.066986c0.348938 -0.30770874 0.70770264 -0.5956726 1.0772247 -0.8619385c0.18476868 -0.1331482 0.37223816 -0.26083374 0.56251526 -0.38287354l0.14273071 -0.08874512" fill-rule="evenodd"/><path fill="#000000" stroke="#000000" stroke-width="1.0" stroke-linecap="butt" d="m194.49521 315.83353l3.9095612 -2.8351135l-4.8172607 -0.34121704z" fill-rule="evenodd"/><path fill="#000000" fill-opacity="0.0" d="m167.68442 489.44186c30.731293 0 47.912064 5.2462463 61.462585 11.034973c13.550522 5.788727 23.47081 12.119965 40.16635 11.034973c16.695526 -1.0849915 40.16635 -9.586151 40.16635 -19.172302" fill-rule="evenodd"/><path stroke="#000000" stroke-width="1.0" stroke-linejoin="round" stroke-linecap="butt" d="m173.68402 489.51193l0.95965576 0.023742676c0.44804382 0.012359619 0.8929596 0.025878906 1.3348083 0.040649414c0.88368225 0.029449463 1.7550354 0.063568115 2.6143646 0.10223389c3.4373322 0.15478516 6.6823273 0.38235474 9.754318 0.6734619c6.1440125 0.5822754 11.59613 1.4189758 16.511353 2.4365234c9.830399 2.0351868 17.513214 4.793915 24.288483 7.6882935c13.550522 5.7886963 23.470795 12.119965 40.16635 11.034973c16.695557 -1.0849609 40.16635 -9.586151 40.16635 -19.172333" fill-rule="evenodd"/><path fill="#000000" stroke="#000000" stroke-width="1.0" stroke-linecap="butt" d="m173.70331 487.8603l-4.557083 1.5986328l4.5184937 1.7046204z" fill-rule="evenodd"/></g></svg>