<svg version="1.1" viewBox="0.0 0.0 960.0 576.0" fill="none" stroke="none" stroke-linecap="square" stroke-miterlimit="10" xmlns:xlink="http://www.w3.org/1999/xlink" xmlns="http://www.w3.org/2000/svg"><clipPath id="p.0"><path d="m0 0l960.0 0l0 576.0l-960.0 0l0 -576.0z" clip-rule="nonzero"/></clipPath><g clip-path="url(#p.0)"><path fill="#000000" fill-opacity="0.0" d="m0 0l960.0 0l0 576.0l-960.0 0z" fill-rule="evenodd"/><path fill="#000000" fill-opacity="0.0" d="m332.2591 5.3079076l303.62207 0l0 46.866142l-303.62207 0z" fill-rule="evenodd"/><path fill="#000000" d="m362.98923 30.786655l3.1875 -0.3125q0.296875 1.609375 1.171875 2.359375q0.875 0.75 2.375 0.75q1.578125 0 2.375 -0.65625q0.8125 -0.671875 0.8125 -1.578125q0 -0.5625 -0.34375 -0.96875q-0.328125 -0.40625 -1.171875 -0.703125q-0.578125 -0.203125 -2.625 -0.71875q-2.640625 -0.640625 -3.703125 -1.59375q-1.484375 -1.34375 -1.484375 -3.265625q0 -1.234375 0.703125 -2.3125q0.703125 -1.078125 2.015625 -1.640625q1.328125 -0.578125 3.203125 -0.578125q3.046875 0 4.59375 1.34375q1.546875 1.34375 1.625 3.578125l-3.28125 0.140625q-0.203125 -1.25 -0.90625 -1.796875q-0.6875 -0.546875 -2.0625 -0.546875q-1.4375 0 -2.234375 0.578125q-0.53125 0.375 -0.53125 1.015625q0 0.578125 0.484375 0.984375q0.625 0.515625 3.015625 1.078125q2.390625 0.5625 3.53125 1.171875q1.15625 0.59375 1.796875 1.640625q0.640625 1.046875 0.640625 2.59375q0 1.390625 -0.78125 2.609375q-0.765625 1.21875 -2.1875 1.8125q-1.40625 0.578125 -3.515625 0.578125q-3.078125 0 -4.734375 -1.421875q-1.640625 -1.421875 -1.96875 -4.140625zm15.986542 5.28125l0 -16.21875l3.1875 0l6.625 10.828125l0 -10.828125l3.046875 0l0 16.21875l-3.28125 0l-6.546875 -10.578125l0 10.578125l-3.03125 0zm19.970978 0l0 -13.46875l-4.8125 0l0 -2.75l12.890625 0l0 2.75l-4.796875 0l0 13.46875l-3.28125 0zm10.183105 0l0 -16.21875l5.265625 0q2.984375 0 3.890625 0.25q1.390625 0.359375 2.328125 1.578125q0.953125 1.21875 0.953125 3.15625q0 1.5 -0.546875 2.515625q-0.546875 1.015625 -1.390625 1.609375q-0.828125 0.578125 -1.6875 0.765625q-1.171875 0.21875 -3.390625 0.21875l-2.140625 0l0 6.125l-3.28125 0zm3.28125 -13.46875l0 4.59375l1.796875 0q1.9375 0 2.578125 -0.25q0.65625 -0.25 1.03125 -0.796875q0.375 -0.546875 0.375 -1.265625q0 -0.875 -0.53125 -1.453125q-0.515625 -0.578125 -1.3125 -0.71875q-0.578125 -0.109375 -2.359375 -0.109375l-1.578125 0zm17.731049 13.46875l0 -16.21875l6.890625 0q2.609375 0 3.78125 0.4375q1.171875 0.4375 1.875 1.5625q0.71875 1.109375 0.71875 2.546875q0 1.828125 -1.078125 3.015625q-1.0625 1.1875 -3.203125 1.5q1.0625 0.625 1.75 1.359375q0.703125 0.734375 1.875 2.640625l1.96875 3.15625l-3.90625 0l-2.375 -3.53125q-1.265625 -1.890625 -1.734375 -2.375q-0.453125 -0.5 -0.984375 -0.671875q-0.515625 -0.1875 -1.640625 -0.1875l-0.65625 0l0 6.765625l-3.28125 0zm3.28125 -9.359375l2.421875 0q2.359375 0 2.9375 -0.1875q0.59375 -0.203125 0.921875 -0.6875q0.328125 -0.5 0.328125 -1.21875q0 -0.828125 -0.4375 -1.328125q-0.4375 -0.5 -1.234375 -0.640625q-0.390625 -0.046875 -2.390625 -0.046875l-2.546875 0l0 4.109375zm20.783478 9.359375l0 -1.765625q-0.640625 0.953125 -1.6875 1.5q-1.046875 0.53125 -2.203125 0.53125q-1.1875 0 -2.125 -0.515625q-0.9375 -0.53125 -1.359375 -1.46875q-0.421875 -0.9375 -0.421875 -2.59375l0 -7.4375l3.109375 0l0 5.40625q0 2.46875 0.171875 3.03125q0.171875 0.5625 0.625 0.890625q0.453125 0.3125 1.140625 0.3125q0.796875 0 1.421875 -0.421875q0.640625 -0.4375 0.875 -1.078125q0.234375 -0.65625 0.234375 -3.1875l0 -4.953125l3.109375 0l0 11.75l-2.890625 0zm16.79245 0l-3.109375 0l0 -6.0q0 -1.90625 -0.203125 -2.453125q-0.1875 -0.5625 -0.640625 -0.875q-0.453125 -0.3125 -1.078125 -0.3125q-0.8125 0 -1.453125 0.453125q-0.640625 0.4375 -0.875 1.171875q-0.234375 0.71875 -0.234375 2.6875l0 5.328125l-3.109375 0l0 -11.75l2.875 0l0 1.734375q1.546875 -2.0 3.875 -2.0q1.03125 0 1.875 0.375q0.859375 0.375 1.296875 0.953125q0.4375 0.5625 0.609375 1.296875q0.171875 0.734375 0.171875 2.09375l0 7.296875zm8.633972 -5.28125l3.1875 -0.3125q0.296875 1.609375 1.171875 2.359375q0.875 0.75 2.375 0.75q1.578125 0 2.375 -0.65625q0.8125 -0.671875 0.8125 -1.578125q0 -0.5625 -0.34375 -0.96875q-0.328125 -0.40625 -1.171875 -0.703125q-0.578125 -0.203125 -2.625 -0.71875q-2.640625 -0.640625 -3.703125 -1.59375q-1.484375 -1.34375 -1.484375 -3.265625q0 -1.234375 0.703125 -2.3125q0.703125 -1.078125 2.015625 -1.640625q1.328125 -0.578125 3.203125 -0.578125q3.046875 0 4.59375 1.34375q1.546875 1.34375 1.625 3.578125l-3.28125 0.140625q-0.203125 -1.25 -0.90625 -1.796875q-0.6875 -0.546875 -2.0625 -0.546875q-1.4375 0 -2.234375 0.578125q-0.53125 0.375 -0.53125 1.015625q0 0.578125 0.484375 0.984375q0.625 0.515625 3.015625 1.078125q2.390625 0.5625 3.53125 1.171875q1.15625 0.59375 1.796875 1.640625q0.640625 1.046875 0.640625 2.59375q0 1.390625 -0.78125 2.609375q-0.765625 1.21875 -2.1875 1.8125q-1.40625 0.578125 -3.515625 0.578125q-3.078125 0 -4.734375 -1.421875q-1.640625 -1.421875 -1.96875 -4.140625zm21.314667 -6.46875l0 2.484375l-2.125 0l0 4.734375q0 1.4375 0.0625 1.671875q0.0625 0.234375 0.265625 0.390625q0.21875 0.15625 0.53125 0.15625q0.4375 0 1.25 -0.296875l0.265625 2.40625q-1.078125 0.46875 -2.453125 0.46875q-0.84375 0 -1.515625 -0.28125q-0.671875 -0.28125 -1.0 -0.71875q-0.3125 -0.453125 -0.421875 -1.21875q-0.109375 -0.546875 -0.109375 -2.203125l0 -5.109375l-1.421875 0l0 -2.484375l1.421875 0l0 -2.328125l3.125 -1.8125l0 4.140625l2.125 0zm4.4822083 3.578125l-2.828125 -0.5q0.484375 -1.703125 1.640625 -2.515625q1.15625 -0.828125 3.453125 -0.828125q2.078125 0 3.09375 0.5q1.015625 0.484375 1.421875 1.25q0.421875 0.75 0.421875 2.78125l-0.03125 3.625q0 1.546875 0.140625 2.28125q0.15625 0.734375 0.578125 1.578125l-3.078125 0q-0.125 -0.3125 -0.296875 -0.921875q-0.078125 -0.265625 -0.109375 -0.359375q-0.796875 0.765625 -1.71875 1.15625q-0.90625 0.390625 -1.921875 0.390625q-1.828125 0 -2.875 -0.984375q-1.03125 -0.984375 -1.03125 -2.484375q0 -1.0 0.46875 -1.78125q0.484375 -0.78125 1.328125 -1.1875q0.859375 -0.421875 2.484375 -0.734375q2.171875 -0.40625 3.015625 -0.765625l0 -0.296875q0 -0.90625 -0.453125 -1.28125q-0.4375 -0.390625 -1.65625 -0.390625q-0.828125 0 -1.296875 0.328125q-0.46875 0.328125 -0.75 1.140625zm4.15625 2.53125q-0.59375 0.203125 -1.890625 0.484375q-1.296875 0.265625 -1.6875 0.53125q-0.609375 0.4375 -0.609375 1.09375q0 0.65625 0.484375 1.140625q0.484375 0.46875 1.234375 0.46875q0.84375 0 1.609375 -0.5625q0.5625 -0.40625 0.734375 -1.015625q0.125 -0.40625 0.125 -1.515625l0 -0.625zm11.506592 -6.109375l0 2.484375l-2.125 0l0 4.734375q0 1.4375 0.0625 1.671875q0.0625 0.234375 0.265625 0.390625q0.21875 0.15625 0.53125 0.15625q0.4375 0 1.25 -0.296875l0.265625 2.40625q-1.078125 0.46875 -2.453125 0.46875q-0.84375 0 -1.515625 -0.28125q-0.671875 -0.28125 -1.0 -0.71875q-0.3125 -0.453125 -0.421875 -1.21875q-0.109375 -0.546875 -0.109375 -2.203125l0 -5.109375l-1.421875 0l0 -2.484375l1.421875 0l0 -2.328125l3.125 -1.8125l0 4.140625l2.125 0zm8.966614 8.015625l3.09375 0.515625q-0.59375 1.703125 -1.890625 2.59375q-1.28125 0.890625 -3.21875 0.890625q-3.0625 0 -4.546875 -2.0q-1.15625 -1.609375 -1.15625 -4.046875q0 -2.921875 1.515625 -4.578125q1.53125 -1.65625 3.875 -1.65625q2.625 0 4.140625 1.734375q1.515625 1.734375 1.4375 5.296875l-7.78125 0q0.03125 1.390625 0.75 2.15625q0.71875 0.765625 1.796875 0.765625q0.71875 0 1.21875 -0.390625q0.5 -0.40625 0.765625 -1.28125zm0.171875 -3.140625q-0.03125 -1.359375 -0.703125 -2.0625q-0.65625 -0.703125 -1.609375 -0.703125q-1.015625 0 -1.6875 0.75q-0.65625 0.734375 -0.65625 2.015625l4.65625 0zm11.8949585 6.875l0 -16.21875l4.890625 0l2.953125 11.0625l2.90625 -11.0625l4.90625 0l0 16.21875l-3.046875 0l0 -12.765625l-3.21875 12.765625l-3.140625 0l-3.21875 -12.765625l0 12.765625l-3.03125 0zm18.169678 -6.046875q0 -1.546875 0.765625 -2.984375q0.765625 -1.453125 2.15625 -2.21875q1.40625 -0.765625 3.125 -0.765625q2.671875 0 4.375 1.734375q1.703125 1.734375 1.703125 4.375q0 2.671875 -1.71875 4.421875q-1.71875 1.75 -4.328125 1.75q-1.625 0 -3.09375 -0.71875q-1.453125 -0.734375 -2.21875 -2.140625q-0.765625 -1.421875 -0.765625 -3.453125zm3.1875 0.171875q0 1.75 0.828125 2.6875q0.828125 0.921875 2.046875 0.921875q1.21875 0 2.03125 -0.921875q0.828125 -0.9375 0.828125 -2.703125q0 -1.734375 -0.828125 -2.65625q-0.8125 -0.9375 -2.03125 -0.9375q-1.21875 0 -2.046875 0.9375q-0.828125 0.921875 -0.828125 2.671875zm22.151855 5.875l-2.890625 0l0 -1.71875q-0.71875 1.0 -1.703125 1.5q-0.96875 0.484375 -1.96875 0.484375q-2.03125 0 -3.484375 -1.625q-1.4375 -1.640625 -1.4375 -4.5625q0 -2.984375 1.40625 -4.53125q1.40625 -1.5625 3.5625 -1.5625q1.96875 0 3.40625 1.640625l0 -5.84375l3.109375 0l0 16.21875zm-8.296875 -6.125q0 1.875 0.515625 2.71875q0.75 1.21875 2.09375 1.21875q1.078125 0 1.828125 -0.90625q0.75 -0.921875 0.75 -2.734375q0 -2.03125 -0.734375 -2.921875q-0.71875 -0.890625 -1.859375 -0.890625q-1.109375 0 -1.859375 0.890625q-0.734375 0.875 -0.734375 2.625zm18.16748 2.390625l3.09375 0.515625q-0.59375 1.703125 -1.890625 2.59375q-1.28125 0.890625 -3.21875 0.890625q-3.0625 0 -4.546875 -2.0q-1.15625 -1.609375 -1.15625 -4.046875q0 -2.921875 1.515625 -4.578125q1.53125 -1.65625 3.875 -1.65625q2.625 0 4.140625 1.734375q1.515625 1.734375 1.4375 5.296875l-7.78125 0q0.03125 1.390625 0.75 2.15625q0.71875 0.765625 1.796875 0.765625q0.71875 0 1.21875 -0.390625q0.5 -0.40625 0.765625 -1.28125zm0.171875 -3.140625q-0.03125 -1.359375 -0.703125 -2.0625q-0.65625 -0.703125 -1.609375 -0.703125q-1.015625 0 -1.6875 0.75q-0.65625 0.734375 -0.65625 2.015625l4.65625 0zm5.615906 6.875l0 -16.21875l3.109375 0l0 16.21875l-3.109375 0z" fill-rule="nonzero"/><path fill="#d0e0e3" d="m466.58994 328.6806l0 0c0 -115.971085 87.42081 -209.98425 195.25986 -209.98425l0 0c51.786133 0 101.45123 22.123283 138.06952 61.502968c36.618347 39.379684 57.190308 92.78999 57.190308 148.48128l0 0c0 115.9711 -87.42084 209.98425 -195.25983 209.98425l0 0c-107.83905 0 -195.25986 -94.01315 -195.25986 -209.98425z" fill-rule="evenodd"/><path stroke="#000000" stroke-width="1.0" stroke-linejoin="round" stroke-linecap="butt" d="m466.58994 328.6806l0 0c0 -115.971085 87.42081 -209.98425 195.25986 -209.98425l0 0c51.786133 0 101.45123 22.123283 138.06952 61.502968c36.618347 39.379684 57.190308 92.78999 57.190308 148.48128l0 0c0 115.9711 -87.42084 209.98425 -195.25983 209.98425l0 0c-107.83905 0 -195.25986 -94.01315 -195.25986 -209.98425z" fill-rule="evenodd"/><path fill="#000000" fill-opacity="0.0" d="m97.65293 198.98639l106.04723 0l0 38.771652l-106.04723 0z" fill-rule="evenodd"/><path fill="#000000" d="m108.15293 223.34639l0 -11.453125l1.515625 0l0 11.453125l-1.515625 0zm4.0078125 0l0 -8.296875l1.265625 0l0 1.171875q0.90625 -1.359375 2.640625 -1.359375q0.75 0 1.375 0.265625q0.625 0.265625 0.9375 0.703125q0.3125 0.4375 0.4375 1.046875q0.078125 0.390625 0.078125 1.359375l0 5.109375l-1.40625 0l0 -5.046875q0 -0.859375 -0.171875 -1.28125q-0.15625 -0.4375 -0.578125 -0.6875q-0.40625 -0.25 -0.96875 -0.25q-0.90625 0 -1.5625 0.578125q-0.640625 0.5625 -0.640625 2.15625l0 4.53125l-1.40625 0zm8.8984375 -9.84375l0 -1.609375l1.40625 0l0 1.609375l-1.40625 0zm0 9.84375l0 -8.296875l1.40625 0l0 8.296875l-1.40625 0zm6.6171875 -1.265625l0.203125 1.25q-0.59375 0.125 -1.0625 0.125q-0.765625 0 -1.1875 -0.234375q-0.421875 -0.25 -0.59375 -0.640625q-0.171875 -0.40625 -0.171875 -1.671875l0 -4.765625l-1.03125 0l0 -1.09375l1.03125 0l0 -2.0625l1.40625 -0.84375l0 2.90625l1.40625 0l0 1.09375l-1.40625 0l0 4.84375q0 0.609375 0.0625 0.78125q0.078125 0.171875 0.25 0.28125q0.171875 0.09375 0.484375 0.09375q0.234375 0 0.609375 -0.0625zm6.0781174 1.265625l0 -11.453125l7.734375 0l0 1.34375l-6.21875 0l0 3.546875l5.375 0l0 1.359375l-5.375 0l0 5.203125l-1.515625 0zm9.5234375 -9.84375l0 -1.609375l1.40625 0l0 1.609375l-1.40625 0zm0 9.84375l0 -8.296875l1.40625 0l0 8.296875l-1.40625 0zm3.5546875 0l0 -8.296875l1.265625 0l0 1.171875q0.90625 -1.359375 2.640625 -1.359375q0.75 0 1.375 0.265625q0.625 0.265625 0.9375 0.703125q0.3125 0.4375 0.4375 1.046875q0.078125 0.390625 0.078125 1.359375l0 5.109375l-1.40625 0l0 -5.046875q0 -0.859375 -0.171875 -1.28125q-0.15625 -0.4375 -0.578125 -0.6875q-0.40625 -0.25 -0.96875 -0.25q-0.90625 0 -1.5625 0.578125q-0.640625 0.5625 -0.640625 2.15625l0 4.53125l-1.40625 0zm8.8984375 -9.84375l0 -1.609375l1.40625 0l0 1.609375l-1.40625 0zm0 9.84375l0 -8.296875l1.40625 0l0 8.296875l-1.40625 0zm2.9921875 -2.484375l1.390625 -0.21875q0.109375 0.84375 0.640625 1.296875q0.546875 0.4375 1.5 0.4375q0.96875 0 1.4375 -0.390625q0.46875 -0.40625 0.46875 -0.9375q0 -0.46875 -0.40625 -0.75q-0.296875 -0.1875 -1.4375 -0.46875q-1.546875 -0.390625 -2.15625 -0.671875q-0.59375 -0.296875 -0.90625 -0.796875q-0.296875 -0.5 -0.296875 -1.109375q0 -0.5625 0.25 -1.03125q0.25 -0.46875 0.6875 -0.78125q0.328125 -0.25 0.890625 -0.40625q0.578125 -0.171875 1.21875 -0.171875q0.984375 0 1.71875 0.28125q0.734375 0.28125 1.078125 0.765625q0.359375 0.46875 0.5 1.28125l-1.375 0.1875q-0.09375 -0.640625 -0.546875 -1.0q-0.453125 -0.359375 -1.265625 -0.359375q-0.96875 0 -1.390625 0.328125q-0.40625 0.3125 -0.40625 0.734375q0 0.28125 0.171875 0.5q0.171875 0.21875 0.53125 0.375q0.21875 0.078125 1.25 0.359375q1.484375 0.390625 2.078125 0.65625q0.59375 0.25 0.921875 0.734375q0.34375 0.484375 0.34375 1.203125q0 0.703125 -0.421875 1.328125q-0.40625 0.609375 -1.1875 0.953125q-0.765625 0.34375 -1.734375 0.34375q-1.625 0 -2.46875 -0.671875q-0.84375 -0.671875 -1.078125 -2.0zm8.5625 2.484375l0 -11.453125l1.40625 0l0 4.109375q0.984375 -1.140625 2.484375 -1.140625q0.921875 0 1.59375 0.359375q0.6875 0.359375 0.96875 1.0q0.296875 0.640625 0.296875 1.859375l0 5.265625l-1.40625 0l0 -5.265625q0 -1.046875 -0.453125 -1.53125q-0.453125 -0.484375 -1.296875 -0.484375q-0.625 0 -1.171875 0.328125q-0.546875 0.328125 -0.78125 0.890625q-0.234375 0.546875 -0.234375 1.515625l0 4.546875l-1.40625 0zm14.5703125 -2.671875l1.453125 0.171875q-0.34375 1.28125 -1.28125 1.984375q-0.921875 0.703125 -2.359375 0.703125q-1.828125 0 -2.890625 -1.125q-1.0625 -1.125 -1.0625 -3.140625q0 -2.09375 1.078125 -3.25q1.078125 -1.15625 2.796875 -1.15625q1.65625 0 2.703125 1.140625q1.0625 1.125 1.0625 3.171875q0 0.125 0 0.375l-6.1875 0q0.078125 1.375 0.765625 2.109375q0.703125 0.71875 1.734375 0.71875q0.78125 0 1.328125 -0.40625q0.546875 -0.40625 0.859375 -1.296875zm-4.609375 -2.28125l4.625 0q-0.09375 -1.046875 -0.53125 -1.5625q-0.671875 -0.8125 -1.734375 -0.8125q-0.96875 0 -1.640625 0.65625q-0.65625 0.640625 -0.71875 1.71875zm13.2109375 4.953125l0 -1.046875q-0.78125 1.234375 -2.3125 1.234375q-1.0 0 -1.828125 -0.546875q-0.828125 -0.546875 -1.296875 -1.53125q-0.453125 -0.984375 -0.453125 -2.25q0 -1.25 0.40625 -2.25q0.421875 -1.015625 1.25 -1.546875q0.828125 -0.546875 1.859375 -0.546875q0.75 0 1.328125 0.3125q0.59375 0.3125 0.953125 0.828125l0 -4.109375l1.40625 0l0 11.453125l-1.3125 0zm-4.4375 -4.140625q0 1.59375 0.671875 2.390625q0.671875 0.78125 1.578125 0.78125q0.921875 0 1.5625 -0.75q0.65625 -0.765625 0.65625 -2.3125q0 -1.703125 -0.65625 -2.5q-0.65625 -0.796875 -1.625 -0.796875q-0.9375 0 -1.5625 0.765625q-0.625 0.765625 -0.625 2.421875z" fill-rule="nonzero"/><path fill="#d0e0e3" d="m51.734287 56.552002l0 0c0 -10.706497 13.234043 -19.385826 29.559055 -19.385826l0 0c16.32502 0 29.55906 8.679329 29.55906 19.385826l0 0c0 10.706497 -13.234039 19.385826 -29.55906 19.385826l0 0c-16.325012 0 -29.559055 -8.679329 -29.559055 -19.385826z" fill-rule="evenodd"/><path stroke="#000000" stroke-width="1.0" stroke-linejoin="round" stroke-linecap="butt" d="m51.734287 56.552002l0 0c0 -10.706497 13.234043 -19.385826 29.559055 -19.385826l0 0c16.32502 0 29.55906 8.679329 29.55906 19.385826l0 0c0 10.706497 -13.234039 19.385826 -29.55906 19.385826l0 0c-16.325012 0 -29.559055 -8.679329 -29.559055 -19.385826z" fill-rule="evenodd"/><path fill="#000000" fill-opacity="0.0" d="m113.63718 36.558163l117.38583 0l0 38.771656l-117.38583 0z" fill-rule="evenodd"/><path fill="#000000" d="m125.23093 60.918163l-2.546875 -8.296875l1.453125 0l1.328125 4.78125l0.484375 1.78125q0.03125 -0.125 0.4375 -1.703125l1.3125 -4.859375l1.453125 0l1.234375 4.8125l0.421875 1.578125l0.46875 -1.59375l1.421875 -4.796875l1.375 0l-2.59375 8.296875l-1.46875 0l-1.3125 -4.96875l-0.328125 -1.421875l-1.671875 6.390625l-1.46875 0zm10.0234375 -9.84375l0 -1.609375l1.40625 0l0 1.609375l-1.40625 0zm0 9.84375l0 -8.296875l1.40625 0l0 8.296875l-1.40625 0zm3.8828125 0l0 -7.203125l-1.234375 0l0 -1.09375l1.234375 0l0 -0.890625q0 -0.828125 0.15625 -1.234375q0.203125 -0.546875 0.703125 -0.890625q0.515625 -0.34375 1.4375 -0.34375q0.59375 0 1.3125 0.140625l-0.203125 1.234375q-0.4375 -0.078125 -0.828125 -0.078125q-0.640625 0 -0.90625 0.28125q-0.265625 0.265625 -0.265625 1.015625l0 0.765625l1.609375 0l0 1.09375l-1.609375 0l0 7.203125l-1.40625 0zm4.1171875 -9.84375l0 -1.609375l1.40625 0l0 1.609375l-1.40625 0zm0 9.84375l0 -8.296875l1.40625 0l0 8.296875l-1.40625 0zm2.2421875 3.1875038l0 -1.0156288l9.328125 0l0 1.0156288l-9.328125 0zm10.1953125 -3.1875038l0 -8.296875l1.265625 0l0 1.25q0.484375 -0.875 0.890625 -1.15625q0.40625 -0.28125 0.90625 -0.28125q0.703125 0 1.4375 0.453125l-0.484375 1.296875q-0.515625 -0.296875 -1.03125 -0.296875q-0.453125 0 -0.828125 0.28125q-0.359375 0.265625 -0.515625 0.765625q-0.234375 0.75 -0.234375 1.640625l0 4.34375l-1.40625 0zm10.78125 0l0 -1.21875q-0.96875 1.40625 -2.640625 1.40625q-0.734375 0 -1.375 -0.28125q-0.625 -0.28125 -0.9375 -0.703125q-0.3125 -0.4375 -0.4375 -1.046875q-0.078125 -0.421875 -0.078125 -1.3125l0 -5.140625l1.40625 0l0 4.59375q0 1.109375 0.078125 1.484375q0.140625 0.5625 0.5625 0.875q0.4375 0.3125 1.0625 0.3125q0.640625 0 1.1875 -0.3125q0.5625 -0.328125 0.78125 -0.890625q0.234375 -0.5625 0.234375 -1.625l0 -4.4375l1.40625 0l0 8.296875l-1.25 0zm3.4609375 0l0 -8.296875l1.265625 0l0 1.171875q0.90625 -1.359375 2.640625 -1.359375q0.75 0 1.375 0.265625q0.625 0.265625 0.9375 0.703125q0.3125 0.4375 0.4375 1.046875q0.078125 0.390625 0.078125 1.359375l0 5.109375l-1.40625 0l0 -5.046875q0 -0.859375 -0.171875 -1.28125q-0.15625 -0.4375 -0.578125 -0.6875q-0.40625 -0.25 -0.96875 -0.25q-0.90625 0 -1.5625 0.578125q-0.640625 0.5625 -0.640625 2.15625l0 4.53125l-1.40625 0zm16.148438 0l0 -10.109375l-3.78125 0l0 -1.34375l9.078125 0l0 1.34375l-3.78125 0l0 10.109375l-1.515625 0zm10.3125 -1.03125q-0.78125 0.671875 -1.5 0.953125q-0.71875 0.265625 -1.546875 0.265625q-1.375 0 -2.109375 -0.671875q-0.734375 -0.671875 -0.734375 -1.703125q0 -0.609375 0.28125 -1.109375q0.28125 -0.515625 0.71875 -0.8125q0.453125 -0.3125 1.015625 -0.46875q0.421875 -0.109375 1.25 -0.203125q1.703125 -0.203125 2.515625 -0.484375q0 -0.296875 0 -0.375q0 -0.859375 -0.390625 -1.203125q-0.546875 -0.484375 -1.609375 -0.484375q-0.984375 0 -1.46875 0.359375q-0.46875 0.34375 -0.6875 1.21875l-1.375 -0.1875q0.1875 -0.875 0.609375 -1.421875q0.4375 -0.546875 1.25 -0.828125q0.8125 -0.296875 1.875 -0.296875q1.0625 0 1.71875 0.25q0.671875 0.25 0.984375 0.625q0.3125 0.375 0.4375 0.953125q0.078125 0.359375 0.078125 1.296875l0 1.875q0 1.96875 0.078125 2.484375q0.09375 0.515625 0.359375 1.0l-1.46875 0q-0.21875 -0.4375 -0.28125 -1.03125zm-0.109375 -3.140625q-0.765625 0.3125 -2.296875 0.53125q-0.875 0.125 -1.234375 0.28125q-0.359375 0.15625 -0.5625 0.46875q-0.1875 0.296875 -0.1875 0.65625q0 0.5625 0.421875 0.9375q0.4375 0.375 1.25 0.375q0.8125 0 1.4375 -0.34375q0.640625 -0.359375 0.9375 -0.984375q0.234375 -0.46875 0.234375 -1.40625l0 -0.515625zm3.0390625 1.6875l1.390625 -0.21875q0.109375 0.84375 0.640625 1.296875q0.546875 0.4375 1.5 0.4375q0.96875 0 1.4375 -0.390625q0.46875 -0.40625 0.46875 -0.9375q0 -0.46875 -0.40625 -0.75q-0.296875 -0.1875 -1.4375 -0.46875q-1.546875 -0.390625 -2.15625 -0.671875q-0.59375 -0.296875 -0.90625 -0.796875q-0.296875 -0.5 -0.296875 -1.109375q0 -0.5625 0.25 -1.03125q0.25 -0.46875 0.6875 -0.78125q0.328125 -0.25 0.890625 -0.40625q0.578125 -0.171875 1.21875 -0.171875q0.984375 0 1.71875 0.28125q0.734375 0.28125 1.078125 0.765625q0.359375 0.46875 0.5 1.28125l-1.375 0.1875q-0.09375 -0.640625 -0.546875 -1.0q-0.453125 -0.359375 -1.265625 -0.359375q-0.96875 0 -1.390625 0.328125q-0.40625 0.3125 -0.40625 0.734375q0 0.28125 0.171875 0.5q0.171875 0.21875 0.53125 0.375q0.21875 0.078125 1.25 0.359375q1.484375 0.390625 2.078125 0.65625q0.59375 0.25 0.921875 0.734375q0.34375 0.484375 0.34375 1.203125q0 0.703125 -0.421875 1.328125q-0.40625 0.609375 -1.1875 0.953125q-0.765625 0.34375 -1.734375 0.34375q-1.625 0 -2.46875 -0.671875q-0.84375 -0.671875 -1.078125 -2.0zm8.5625 2.484375l0 -11.453125l1.40625 0l0 6.53125l3.328125 -3.375l1.828125 0l-3.171875 3.078125l3.484375 5.21875l-1.734375 0l-2.734375 -4.25l-1.0 0.953125l0 3.296875l-1.40625 0z" fill-rule="nonzero"/><path fill="#d0e0e3" d="m250.8547 333.19504l0 0c0 -37.83368 34.569244 -68.50394 77.212585 -68.50394l0 0c42.64334 0 77.212616 30.670258 77.212616 68.50394l0 0c0 37.83368 -34.569275 68.50394 -77.212616 68.50394l0 0c-42.64334 0 -77.212585 -30.670258 -77.212585 -68.50394z" fill-rule="evenodd"/><path stroke="#000000" stroke-width="1.0" stroke-linejoin="round" stroke-linecap="butt" d="m250.8547 333.19504l0 0c0 -37.83368 34.569244 -68.50394 77.212585 -68.50394l0 0c42.64334 0 77.212616 30.670258 77.212616 68.50394l0 0c0 37.83368 -34.569275 68.50394 -77.212616 68.50394l0 0c-42.64334 0 -77.212585 -30.670258 -77.212585 -68.50394z" fill-rule="evenodd"/><path fill="#000000" d="m291.14532 338.27505l0 -7.59375l1.15625 0l0 1.140625q0.453125 -0.796875 0.828125 -1.046875q0.375 -0.265625 0.8125 -0.265625q0.65625 0 1.328125 0.40625l-0.4375 1.203125q-0.46875 -0.28125 -0.953125 -0.28125q-0.421875 0 -0.765625 0.25q-0.328125 0.25 -0.46875 0.703125q-0.21875 0.6875 -0.21875 1.5l0 3.984375l-1.28125 0zm9.880646 0l0 -1.109375q-0.890625 1.28125 -2.421875 1.28125q-0.671875 0 -1.25 -0.25q-0.578125 -0.265625 -0.875 -0.65625q-0.28125 -0.390625 -0.390625 -0.953125q-0.078125 -0.375 -0.078125 -1.203125l0 -4.703125l1.28125 0l0 4.203125q0 1.015625 0.078125 1.359375q0.125 0.515625 0.515625 0.8125q0.40625 0.28125 0.984375 0.28125q0.578125 0 1.078125 -0.296875q0.515625 -0.296875 0.71875 -0.8125q0.21875 -0.515625 0.21875 -1.484375l0 -4.0625l1.28125 0l0 7.59375l-1.140625 0zm3.166748 0l0 -7.59375l1.15625 0l0 1.078125q0.84375 -1.25 2.421875 -1.25q0.6875 0 1.265625 0.25q0.578125 0.234375 0.859375 0.640625q0.28125 0.40625 0.40625 0.953125q0.0625 0.359375 0.0625 1.25l0 4.671875l-1.28125 0l0 -4.625q0 -0.78125 -0.15625 -1.171875q-0.15625 -0.390625 -0.546875 -0.625q-0.375 -0.234375 -0.890625 -0.234375q-0.8125 0 -1.421875 0.53125q-0.59375 0.515625 -0.59375 1.96875l0 4.15625l-1.28125 0zm8.338593 0l0 -10.484375l7.59375 0l0 1.234375l-6.203125 0l0 3.203125l5.796875 0l0 1.234375l-5.796875 0l0 3.578125l6.4375 0l0 1.234375l-7.828125 0zm11.697479 0l-2.890625 -7.59375l1.359375 0l1.625 4.546875q0.265625 0.734375 0.5 1.53125q0.15625 -0.609375 0.46875 -1.453125l1.6875 -4.625l1.328125 0l-2.875 7.59375l-1.203125 0zm10.421875 -2.453125l1.328125 0.171875q-0.3125 1.171875 -1.171875 1.8125q-0.84375 0.640625 -2.171875 0.640625q-1.671875 0 -2.65625 -1.015625q-0.96875 -1.03125 -0.96875 -2.890625q0 -1.921875 0.984375 -2.96875q1.0 -1.0625 2.578125 -1.0625q1.515625 0 2.484375 1.03125q0.96875 1.03125 0.96875 2.921875q0 0.109375 -0.015625 0.34375l-5.65625 0q0.0625 1.25 0.703125 1.921875q0.640625 0.65625 1.59375 0.65625q0.703125 0 1.203125 -0.359375q0.5 -0.375 0.796875 -1.203125zm-4.234375 -2.078125l4.25 0q-0.09375 -0.953125 -0.484375 -1.4375q-0.625 -0.75 -1.609375 -0.75q-0.875 0 -1.484375 0.59375q-0.609375 0.59375 -0.671875 1.59375zm7.182373 4.53125l0 -7.59375l1.15625 0l0 1.078125q0.84375 -1.25 2.421875 -1.25q0.6875 0 1.265625 0.25q0.578125 0.234375 0.859375 0.640625q0.28125 0.40625 0.40625 0.953125q0.0625 0.359375 0.0625 1.25l0 4.671875l-1.28125 0l0 -4.625q0 -0.78125 -0.15625 -1.171875q-0.15625 -0.390625 -0.546875 -0.625q-0.375 -0.234375 -0.890625 -0.234375q-0.8125 0 -1.421875 0.53125q-0.59375 0.515625 -0.59375 1.96875l0 4.15625l-1.28125 0zm10.963593 -1.15625l0.1875 1.140625q-0.546875 0.109375 -0.984375 0.109375q-0.6875 0 -1.078125 -0.21875q-0.390625 -0.21875 -0.546875 -0.578125q-0.15625 -0.359375 -0.15625 -1.515625l0 -4.375l-0.953125 0l0 -1.0l0.953125 0l0 -1.890625l1.28125 -0.765625l0 2.65625l1.296875 0l0 1.0l-1.296875 0l0 4.4375q0 0.546875 0.0625 0.71875q0.078125 0.15625 0.21875 0.25q0.15625 0.078125 0.453125 0.078125q0.203125 0 0.5625 -0.046875zm0.74386597 -1.109375l1.265625 -0.203125q0.109375 0.765625 0.59375 1.171875q0.5 0.40625 1.375 0.40625q0.890625 0 1.3125 -0.359375q0.4375 -0.359375 0.4375 -0.84375q0 -0.4375 -0.375 -0.6875q-0.265625 -0.171875 -1.3125 -0.4375q-1.421875 -0.359375 -1.96875 -0.609375q-0.546875 -0.265625 -0.828125 -0.734375q-0.28125 -0.46875 -0.28125 -1.015625q0 -0.515625 0.21875 -0.9375q0.234375 -0.4375 0.640625 -0.734375q0.296875 -0.21875 0.8125 -0.359375q0.53125 -0.15625 1.125 -0.15625q0.890625 0 1.5625 0.265625q0.671875 0.25 1.0 0.6875q0.328125 0.4375 0.4375 1.171875l-1.25 0.171875q-0.09375 -0.578125 -0.5 -0.90625q-0.40625 -0.34375 -1.15625 -0.34375q-0.890625 0 -1.28125 0.296875q-0.375 0.296875 -0.375 0.6875q0 0.25 0.15625 0.453125q0.15625 0.203125 0.5 0.34375q0.1875 0.078125 1.140625 0.328125q1.359375 0.359375 1.890625 0.59375q0.546875 0.234375 0.859375 0.6875q0.3125 0.4375 0.3125 1.09375q0 0.640625 -0.375 1.21875q-0.375 0.5625 -1.09375 0.875q-0.703125 0.3125 -1.59375 0.3125q-1.484375 0 -2.265625 -0.609375q-0.765625 -0.625 -0.984375 -1.828125zm10.296875 5.34375q-1.0625 -1.34375 -1.796875 -3.140625q-0.734375 -1.8125 -0.734375 -3.734375q0 -1.703125 0.546875 -3.265625q0.640625 -1.8125 1.984375 -3.609375l0.921875 0q-0.859375 1.484375 -1.140625 2.125q-0.4375 0.984375 -0.6875 2.0625q-0.296875 1.34375 -0.296875 2.6875q0 3.453125 2.125 6.875l-0.921875 0zm3.2712708 0l-0.921875 0q2.140625 -3.421875 2.140625 -6.875q0 -1.34375 -0.3125 -2.671875q-0.25 -1.0625 -0.671875 -2.046875q-0.28125 -0.65625 -1.15625 -2.15625l0.921875 0q1.34375 1.796875 1.984375 3.609375q0.546875 1.5625 0.546875 3.265625q0 1.921875 -0.734375 3.734375q-0.734375 1.796875 -1.796875 3.140625z" fill-rule="nonzero"/><path fill="#000000" fill-opacity="0.0" d="m328.0673 264.6911c0 -42.71039 48.92914 -74.8578 97.85828 -85.42079c48.92914 -10.563004 97.858246 0.45843506 97.858246 0.9168701" fill-rule="evenodd"/><path stroke="#000000" stroke-width="1.0" stroke-linejoin="round" stroke-linecap="butt" d="m328.0673 264.6911c0 -42.710403 48.92914 -74.8578 97.85828 -85.42081c24.46457 -5.281494 48.92914 -5.1668854 67.27756 -3.674591c9.174225 0.7461395 16.819397 1.8367157 22.17102 2.769394c0.6689453 0.11657715 1.302063 0.23069763 1.8978271 0.34136963l0.6668701 0.12579346" fill-rule="evenodd"/><path fill="#000000" stroke="#000000" stroke-width="1.0" stroke-linecap="butt" d="m517.5658 180.44135l4.7938843 -0.58428955l-4.0478516 -2.63385z" fill-rule="evenodd"/><path fill="#fff2cc" d="m559.7238 223.55725l0 0c0 -50.036133 45.723328 -90.59842 102.12598 -90.59842l0 0c56.402588 0 102.12598 40.562286 102.12598 90.59842l0 0c0 50.036133 -45.72339 90.59842 -102.12598 90.59842l0 0c-56.40265 0 -102.12598 -40.562286 -102.12598 -90.59842z" fill-rule="evenodd"/><path stroke="#000000" stroke-width="1.0" stroke-linejoin="round" stroke-linecap="butt" d="m559.7238 223.55725l0 0c0 -50.036133 45.723328 -90.59842 102.12598 -90.59842l0 0c56.402588 0 102.12598 40.562286 102.12598 90.59842l0 0c0 50.036133 -45.72339 90.59842 -102.12598 90.59842l0 0c-56.40265 0 -102.12598 -40.562286 -102.12598 -90.59842z" fill-rule="evenodd"/><path fill="#000000" d="m636.3693 225.74162l1.890625 0.46875q-0.59375 2.34375 -2.140625 3.578125q-1.546875 1.21875 -3.796875 1.21875q-2.3125 0 -3.765625 -0.9375q-1.4375 -0.953125 -2.203125 -2.734375q-0.75 -1.796875 -0.75 -3.84375q0 -2.234375 0.84375 -3.890625q0.859375 -1.671875 2.4375 -2.53125q1.578125 -0.875 3.46875 -0.875q2.15625 0 3.609375 1.09375q1.46875 1.09375 2.046875 3.078125l-1.859375 0.4375q-0.5 -1.5625 -1.453125 -2.265625q-0.9375 -0.71875 -2.375 -0.71875q-1.65625 0 -2.765625 0.796875q-1.109375 0.78125 -1.5625 2.125q-0.4375 1.328125 -0.4375 2.734375q0 1.828125 0.53125 3.203125q0.53125 1.359375 1.65625 2.03125q1.125 0.671875 2.421875 0.671875q1.59375 0 2.703125 -0.921875q1.109375 -0.921875 1.5 -2.71875zm3.3496094 -0.171875q0 -2.875 1.59375 -4.265625q1.34375 -1.15625 3.265625 -1.15625q2.140625 0 3.484375 1.40625q1.359375 1.40625 1.359375 3.875q0 2.0 -0.59375 3.15625q-0.59375 1.140625 -1.75 1.78125q-1.140625 0.625 -2.5 0.625q-2.1875 0 -3.53125 -1.390625q-1.328125 -1.40625 -1.328125 -4.03125zm1.796875 0q0 2.0 0.859375 2.984375q0.875 0.984375 2.203125 0.984375q1.3125 0 2.171875 -0.984375q0.875 -1.0 0.875 -3.046875q0 -1.921875 -0.875 -2.90625q-0.875 -1.0 -2.171875 -1.0q-1.328125 0 -2.203125 1.0q-0.859375 0.984375 -0.859375 2.96875zm9.966797 5.1875l0 -10.375l1.59375 0l0 1.484375q1.140625 -1.71875 3.296875 -1.71875q0.9375 0 1.71875 0.34375q0.796875 0.328125 1.1875 0.875q0.390625 0.546875 0.546875 1.296875q0.09375 0.5 0.09375 1.71875l0 6.375l-1.765625 0l0 -6.3125q0 -1.078125 -0.203125 -1.609375q-0.203125 -0.53125 -0.734375 -0.84375q-0.515625 -0.3125 -1.21875 -0.3125q-1.125 0 -1.9375 0.71875q-0.8125 0.703125 -0.8125 2.6875l0 5.671875l-1.765625 0zm11.123047 0l0 -10.375l1.59375 0l0 1.484375q1.140625 -1.71875 3.296875 -1.71875q0.9375 0 1.71875 0.34375q0.796875 0.328125 1.1875 0.875q0.390625 0.546875 0.546875 1.296875q0.09375 0.5 0.09375 1.71875l0 6.375l-1.765625 0l0 -6.3125q0 -1.078125 -0.203125 -1.609375q-0.203125 -0.53125 -0.734375 -0.84375q-0.515625 -0.3125 -1.21875 -0.3125q-1.125 0 -1.9375 0.71875q-0.8125 0.703125 -0.8125 2.6875l0 5.671875l-1.765625 0zm18.232422 -3.34375l1.8125 0.234375q-0.421875 1.578125 -1.59375 2.46875q-1.15625 0.875 -2.96875 0.875q-2.265625 0 -3.609375 -1.390625q-1.328125 -1.40625 -1.328125 -3.9375q0 -2.625 1.34375 -4.0625q1.34375 -1.453125 3.5 -1.453125q2.078125 0 3.390625 1.421875q1.328125 1.40625 1.328125 3.984375q0 0.15625 -0.015625 0.46875l-7.734375 0q0.09375 1.703125 0.96875 2.609375q0.875 0.90625 2.171875 0.90625q0.96875 0 1.640625 -0.5q0.6875 -0.515625 1.09375 -1.625zm-5.78125 -2.84375l5.796875 0q-0.109375 -1.296875 -0.65625 -1.953125q-0.84375 -1.015625 -2.1875 -1.015625q-1.203125 0 -2.03125 0.8125q-0.828125 0.796875 -0.921875 2.15625zm16.576172 2.390625l1.71875 0.21875q-0.28125 1.796875 -1.453125 2.8125q-1.15625 1.0 -2.859375 1.0q-2.125 0 -3.421875 -1.390625q-1.296875 -1.390625 -1.296875 -3.984375q0 -1.6875 0.546875 -2.9375q0.5625 -1.265625 1.703125 -1.890625q1.140625 -0.640625 2.484375 -0.640625q1.6875 0 2.75 0.859375q1.078125 0.859375 1.390625 2.421875l-1.71875 0.265625q-0.234375 -1.046875 -0.859375 -1.5625q-0.625 -0.53125 -1.5 -0.53125q-1.328125 0 -2.15625 0.953125q-0.828125 0.953125 -0.828125 3.0q0 2.09375 0.796875 3.046875q0.796875 0.9375 2.09375 0.9375q1.03125 0 1.71875 -0.625q0.703125 -0.640625 0.890625 -1.953125zm7.0625 2.21875l0.25 1.5625q-0.734375 0.15625 -1.328125 0.15625q-0.953125 0 -1.484375 -0.296875q-0.515625 -0.3125 -0.734375 -0.796875q-0.21875 -0.5 -0.21875 -2.078125l0 -5.96875l-1.28125 0l0 -1.375l1.28125 0l0 -2.5625l1.75 -1.0625l0 3.625l1.765625 0l0 1.375l-1.765625 0l0 6.0625q0 0.75 0.09375 0.96875q0.09375 0.203125 0.296875 0.34375q0.21875 0.125 0.609375 0.125q0.28125 0 0.765625 -0.078125z" fill-rule="nonzero"/><path fill="#fff2cc" d="m653.981 405.54938l0 0c0 -42.0867 38.46826 -76.20471 85.921265 -76.20471l0 0c47.453003 0 85.921265 34.11801 85.921265 76.20471l0 0c0 42.0867 -38.46826 76.20471 -85.921265 76.20471l0 0c-47.453003 0 -85.921265 -34.11801 -85.921265 -76.20471z" fill-rule="evenodd"/><path stroke="#000000" stroke-width="1.0" stroke-linejoin="round" stroke-linecap="butt" d="m653.981 405.54938l0 0c0 -42.0867 38.46826 -76.20471 85.921265 -76.20471l0 0c47.453003 0 85.921265 34.11801 85.921265 76.20471l0 0c0 42.0867 -38.46826 76.20471 -85.921265 76.20471l0 0c-47.453003 0 -85.921265 -34.11801 -85.921265 -76.20471z" fill-rule="evenodd"/><path fill="#000000" d="m720.64233 412.46936l0 -13.359375l9.65625 0l0 1.578125l-7.875 0l0 4.09375l7.375 0l0 1.5625l-7.375 0l0 4.546875l8.1875 0l0 1.578125l-9.96875 0zm12.1936035 0l0 -9.671875l1.46875 0l0 1.46875q0.5625 -1.03125 1.03125 -1.359375q0.484375 -0.328125 1.0625 -0.328125q0.828125 0 1.6875 0.53125l-0.5625 1.515625q-0.609375 -0.359375 -1.203125 -0.359375q-0.546875 0 -0.96875 0.328125q-0.421875 0.328125 -0.609375 0.890625q-0.28125 0.875 -0.28125 1.921875l0 5.0625l-1.625 0zm6.2126465 0l0 -9.671875l1.46875 0l0 1.46875q0.5625 -1.03125 1.03125 -1.359375q0.484375 -0.328125 1.0625 -0.328125q0.828125 0 1.6875 0.53125l-0.5625 1.515625q-0.609375 -0.359375 -1.203125 -0.359375q-0.546875 0 -0.96875 0.328125q-0.421875 0.328125 -0.609375 0.890625q-0.28125 0.875 -0.28125 1.921875l0 5.0625l-1.625 0zm5.6189575 -4.84375q0 -2.6875 1.484375 -3.96875q1.25 -1.078125 3.046875 -1.078125q2.0 0 3.265625 1.3125q1.265625 1.296875 1.265625 3.609375q0 1.859375 -0.5625 2.9375q-0.5625 1.0625 -1.640625 1.65625q-1.0625 0.59375 -2.328125 0.59375q-2.03125 0 -3.28125 -1.296875q-1.25 -1.3125 -1.25 -3.765625zm1.6875 0q0 1.859375 0.796875 2.796875q0.8125 0.921875 2.046875 0.921875q1.21875 0 2.03125 -0.921875q0.8125 -0.9375 0.8125 -2.84375q0 -1.796875 -0.8125 -2.71875q-0.8125 -0.921875 -2.03125 -0.921875q-1.234375 0 -2.046875 0.921875q-0.796875 0.90625 -0.796875 2.765625zm9.281982 4.84375l0 -9.671875l1.46875 0l0 1.46875q0.5625 -1.03125 1.03125 -1.359375q0.484375 -0.328125 1.0625 -0.328125q0.828125 0 1.6875 0.53125l-0.5625 1.515625q-0.609375 -0.359375 -1.203125 -0.359375q-0.546875 0 -0.96875 0.328125q-0.421875 0.328125 -0.609375 0.890625q-0.28125 0.875 -0.28125 1.921875l0 5.0625l-1.625 0z" fill-rule="nonzero"/><path fill="#fff2cc" d="m486.07288 381.89584l0 0c0 -40.1037 34.569275 -72.6142 77.212585 -72.6142l0 0c20.478088 0 40.11737 7.650421 54.597534 21.268219c14.480225 13.617798 22.615051 32.087494 22.615051 51.345978l0 0c0 40.1037 -34.569214 72.61417 -77.212585 72.61417l0 0c-42.64331 0 -77.212585 -32.510468 -77.212585 -72.61417z" fill-rule="evenodd"/><path stroke="#000000" stroke-width="1.0" stroke-linejoin="round" stroke-linecap="butt" d="m486.07288 381.89584l0 0c0 -40.1037 34.569275 -72.6142 77.212585 -72.6142l0 0c20.478088 0 40.11737 7.650421 54.597534 21.268219c14.480225 13.617798 22.615051 32.087494 22.615051 51.345978l0 0c0 40.1037 -34.569214 72.61417 -77.212585 72.61417l0 0c-42.64331 0 -77.212585 -32.510468 -77.212585 -72.61417z" fill-rule="evenodd"/><path fill="#000000" d="m549.98004 388.81583l0 -13.359375l1.765625 0l0 13.359375l-1.765625 0zm10.948975 0l0 -1.21875q-0.90625 1.4375 -2.703125 1.4375q-1.15625 0 -2.125 -0.640625q-0.96875 -0.640625 -1.5 -1.78125q-0.53125 -1.140625 -0.53125 -2.625q0 -1.453125 0.484375 -2.625q0.484375 -1.1875 1.4375 -1.8125q0.96875 -0.625 2.171875 -0.625q0.875 0 1.546875 0.375q0.6875 0.359375 1.109375 0.953125l0 -4.796875l1.640625 0l0 13.359375l-1.53125 0zm-5.171875 -4.828125q0 1.859375 0.78125 2.78125q0.78125 0.921875 1.84375 0.921875q1.078125 0 1.828125 -0.875q0.75 -0.890625 0.75 -2.6875q0 -1.984375 -0.765625 -2.90625q-0.765625 -0.9375 -1.890625 -0.9375q-1.078125 0 -1.8125 0.890625q-0.734375 0.890625 -0.734375 2.8125zm9.235046 4.828125l0 -13.359375l1.640625 0l0 13.359375l-1.640625 0zm10.816711 -3.109375l1.6875 0.203125q-0.40625 1.484375 -1.484375 2.3125q-1.078125 0.8125 -2.765625 0.8125q-2.125 0 -3.375 -1.296875q-1.234375 -1.3125 -1.234375 -3.671875q0 -2.453125 1.25 -3.796875q1.265625 -1.34375 3.265625 -1.34375q1.9375 0 3.15625 1.328125q1.234375 1.3125 1.234375 3.703125q0 0.15625 0 0.4375l-7.21875 0q0.09375 1.59375 0.90625 2.453125q0.8125 0.84375 2.015625 0.84375q0.90625 0 1.546875 -0.46875q0.640625 -0.484375 1.015625 -1.515625zm-5.390625 -2.65625l5.40625 0q-0.109375 -1.21875 -0.625 -1.828125q-0.78125 -0.953125 -2.03125 -0.953125q-1.125 0 -1.90625 0.765625q-0.765625 0.75 -0.84375 2.015625z" fill-rule="nonzero"/><path fill="#000000" fill-opacity="0.0" d="m661.8498 538.66486c0 12.5 -93.055176 30.902832 -165.93942 25.0c-72.88422 -5.902893 -125.59747 -36.111572 -165.93942 -69.27167c-40.34192 -33.160095 -68.31256 -69.27164 -136.6251 -69.27164" fill-rule="evenodd"/><path stroke="#000000" stroke-width="1.0" stroke-linejoin="round" stroke-linecap="butt" d="m661.8498 538.66486c0 12.5 -93.05524 30.902832 -165.93945 24.999939c-72.884186 -5.902832 -125.59744 -36.11151 -165.93936 -69.271576c-20.17099 -16.580048 -37.249146 -33.89798 -57.823578 -47.07086c-10.287231 -6.5864563 -21.448563 -12.136658 -34.307602 -16.040253c-6.429535 -1.9518127 -13.283463 -3.4919128 -20.664825 -4.5441284c-3.6906586 -0.526062 -7.5131836 -0.9302063 -11.480423 -1.2027893c-1.9836121 -0.1362915 -4.0034027 -0.23971558 -6.060974 -0.309021l-0.28851318 -0.008483887" fill-rule="evenodd"/><path fill="#000000" stroke="#000000" stroke-width="1.0" stroke-linecap="butt" d="m199.37154 423.56616l-4.56398 1.5788269l4.5110474 1.7242126z" fill-rule="evenodd"/><path fill="#f3f3f3" d="m30.39571 333.19513l0 0c0 -10.515137 8.524216 -19.039368 19.039371 -19.039368l124.88189 0c5.0495605 0 9.892288 2.0059204 13.46286 5.5765076c3.5705872 3.5705872 5.5765076 8.4133 5.5765076 13.46286l0 0l0 0c0 10.515167 -8.524216 19.039368 -19.039368 19.039368l-124.88189 0c-10.515156 0 -19.039371 -8.5242 -19.039371 -19.039368z" fill-rule="evenodd"/><path stroke="#000000" stroke-width="1.0" stroke-linejoin="round" stroke-linecap="butt" d="m30.39571 333.19513l0 0c0 -10.515137 8.524216 -19.039368 19.039371 -19.039368l124.88189 0c5.0495605 0 9.892288 2.0059204 13.46286 5.5765076c3.5705872 3.5705872 5.5765076 8.4133 5.5765076 13.46286l0 0l0 0c0 10.515167 -8.524216 19.039368 -19.039368 19.039368l-124.88189 0c-10.515156 0 -19.039371 -8.5242 -19.039371 -19.039368z" fill-rule="evenodd"/><path fill="#000000" d="m69.28239 337.99515l0 -9.546875l6.4375 0l0 1.125l-5.171875 0l0 2.96875l4.46875 0l0 1.125l-4.46875 0l0 4.328125l-1.265625 0zm7.9069824 0l0 -6.90625l1.0625 0l0 1.046875q0.40625 -0.734375 0.734375 -0.96875q0.34375 -0.234375 0.765625 -0.234375q0.59375 0 1.203125 0.375l-0.40625 1.078125q-0.4375 -0.25 -0.859375 -0.25q-0.390625 0 -0.703125 0.234375q-0.296875 0.234375 -0.421875 0.640625q-0.203125 0.625 -0.203125 1.359375l0 3.625l-1.171875 0zm4.0164948 -3.453125q0 -1.921875 1.078125 -2.84375q0.890625 -0.765625 2.171875 -0.765625q1.421875 0 2.328125 0.9375q0.90625 0.921875 0.90625 2.578125q0 1.328125 -0.40625 2.09375q-0.390625 0.765625 -1.15625 1.1875q-0.765625 0.421875 -1.671875 0.421875q-1.453125 0 -2.359375 -0.921875q-0.890625 -0.9375 -0.890625 -2.6875zm1.203125 0q0 1.328125 0.578125 1.984375q0.59375 0.65625 1.46875 0.65625q0.875 0 1.453125 -0.65625q0.578125 -0.671875 0.578125 -2.03125q0 -1.28125 -0.59375 -1.9375q-0.578125 -0.65625 -1.4375 -0.65625q-0.875 0 -1.46875 0.65625q-0.578125 0.65625 -0.578125 1.984375zm6.6468506 3.453125l0 -6.90625l1.046875 0l0 0.96875q0.328125 -0.515625 0.859375 -0.8125q0.546875 -0.3125 1.234375 -0.3125q0.78125 0 1.265625 0.3125q0.484375 0.3125 0.6875 0.890625q0.828125 -1.203125 2.140625 -1.203125q1.03125 0 1.578125 0.578125q0.5625 0.5625 0.5625 1.734375l0 4.75l-1.171875 0l0 -4.359375q0 -0.703125 -0.125 -1.0q-0.109375 -0.3125 -0.40625 -0.5q-0.296875 -0.1875 -0.703125 -0.1875q-0.71875 0 -1.203125 0.484375q-0.484375 0.484375 -0.484375 1.546875l0 4.015625l-1.171875 0l0 -4.484375q0 -0.78125 -0.296875 -1.171875q-0.28125 -0.390625 -0.921875 -0.390625q-0.5 0 -0.921875 0.265625q-0.421875 0.25 -0.609375 0.75q-0.1875 0.5 -0.1875 1.453125l0 3.578125l-1.171875 0zm16.08667 0l-2.125 -6.90625l1.21875 0l1.09375 3.984375l0.421875 1.484375q0.015625 -0.109375 0.359375 -1.421875l1.09375 -4.046875l1.203125 0l1.03125 4.0l0.34375 1.328125l0.40625 -1.34375l1.171875 -3.984375l1.140625 0l-2.15625 6.90625l-1.21875 0l-1.09375 -4.140625l-0.265625 -1.171875l-1.40625 5.3125l-1.21875 0zm8.359528 -8.1875l0 -1.359375l1.171875 0l0 1.359375l-1.171875 0zm0 8.1875l0 -6.90625l1.171875 0l0 6.90625l-1.171875 0zm3.226715 0l0 -6.0l-1.03125 0l0 -0.90625l1.03125 0l0 -0.734375q0 -0.703125 0.125 -1.046875q0.171875 -0.453125 0.59375 -0.734375q0.421875 -0.28125 1.203125 -0.28125q0.484375 0 1.09375 0.109375l-0.1875 1.03125q-0.359375 -0.0625 -0.6875 -0.0625q-0.53125 0 -0.75 0.234375q-0.21875 0.21875 -0.21875 0.84375l0 0.640625l1.34375 0l0 0.90625l-1.34375 0l0 6.0l-1.171875 0zm3.4373627 -8.1875l0 -1.359375l1.171875 0l0 1.359375l-1.171875 0zm0 8.1875l0 -6.90625l1.171875 0l0 6.90625l-1.171875 0zm3.11734 0l0 -9.546875l4.234375 0q1.2656174 0 1.9218674 0.265625q0.671875 0.25 1.0625 0.90625q0.40625 0.65625 0.40625 1.4375q0 1.015625 -0.65625 1.71875q-0.65625 0.6875 -2.03125 0.875q0.5 0.25 0.765625 0.484375q0.546875 0.5 1.046875 1.265625l1.65625 2.59375l-1.578125 0l-1.265625 -1.984375q-0.5625 -0.859375 -0.9218674 -1.3125q-0.34375 -0.453125 -0.640625 -0.640625q-0.28125 -0.1875 -0.5625 -0.25q-0.21875 -0.046875 -0.703125 -0.046875l-1.46875 0l0 4.234375l-1.265625 0zm1.265625 -5.328125l2.71875 0q0.8593674 0 1.3437424 -0.171875q0.484375 -0.1875 0.734375 -0.578125q0.265625 -0.390625 0.265625 -0.859375q0 -0.671875 -0.5 -1.109375q-0.484375 -0.4375 -1.5468674 -0.4375l-3.015625 0l0 3.15625zm12.718895 5.328125l0 -1.015625q-0.8125 1.171875 -2.1875 1.171875q-0.609375 0 -1.140625 -0.234375q-0.53125 -0.234375 -0.796875 -0.578125q-0.25 -0.359375 -0.359375 -0.875q-0.0625 -0.34375 -0.0625 -1.09375l0 -4.28125l1.171875 0l0 3.828125q0 0.921875 0.0625 1.234375q0.109375 0.46875 0.46875 0.734375q0.359375 0.25 0.890625 0.25q0.515625 0 0.984375 -0.265625q0.46875 -0.265625 0.65625 -0.734375q0.1875 -0.46875 0.1875 -1.34375l0 -3.703125l1.171875 0l0 6.90625l-1.046875 0zm2.8812256 0l0 -6.90625l1.0625 0l0 0.984375q0.75 -1.140625 2.1875 -1.140625q0.625 0 1.15625 0.21875q0.53125 0.21875 0.78125 0.59375q0.265625 0.359375 0.375 0.859375q0.0625 0.328125 0.0625 1.140625l0 4.25l-1.171875 0l0 -4.203125q0 -0.71875 -0.140625 -1.0625q-0.140625 -0.359375 -0.484375 -0.5625q-0.34375 -0.21875 -0.8125 -0.21875q-0.75 0 -1.296875 0.46875q-0.546875 0.46875 -0.546875 1.796875l0 3.78125l-1.171875 0zm9.662476 2.8125q-0.984375 -1.234375 -1.65625 -2.875q-0.65625 -1.640625 -0.65625 -3.390625q0 -1.546875 0.5 -2.96875q0.578125 -1.640625 1.8125 -3.28125l0.828125 0q-0.78125 1.359375 -1.03125 1.9375q-0.40625 0.890625 -0.625 1.875q-0.28125 1.21875 -0.28125 2.4375q0 3.140625 1.9375 6.265625l-0.828125 0zm2.9539948 0l-0.828125 0q1.9375 -3.125 1.9375 -6.265625q0 -1.21875 -0.28125 -2.421875q-0.21875 -0.984375 -0.609375 -1.875q-0.265625 -0.59375 -1.046875 -1.953125l0.828125 0q1.234375 1.640625 1.8125 3.28125q0.5 1.421875 0.5 2.96875q0 1.75 -0.671875 3.390625q-0.671875 1.640625 -1.640625 2.875z" fill-rule="nonzero"/><path fill="#000000" fill-opacity="0.0" d="m193.35634 333.19513c14.374496 0 21.560028 0.01574707 28.749008 0.03149414c7.18898 0.01574707 14.381393 0.03149414 28.762802 0.03149414" fill-rule="evenodd"/><path stroke="#000000" stroke-width="1.0" stroke-linejoin="round" stroke-linecap="butt" d="m193.35634 333.19513c14.374512 0 21.560028 0.01574707 28.748993 0.03149414c3.5944977 0.007873535 7.1898346 0.01574707 11.68425 0.02166748c2.2472076 0.0029296875 4.7191772 0.0054016113 7.5281677 0.0071105957l3.5503998 0.0010070801" fill-rule="evenodd"/><path fill="#000000" stroke="#000000" stroke-width="1.0" stroke-linecap="butt" d="m244.86769 334.90814l4.538559 -1.6504211l-4.537628 -1.6530457z" fill-rule="evenodd"/><path fill="#f3f3f3" d="m30.39571 425.10852l0 0c0 -10.515137 8.524216 -19.039368 19.039371 -19.039368l124.88189 0c5.0495605 0 9.892288 2.0059204 13.46286 5.5765076c3.5705872 3.5705566 5.5765076 8.4133 5.5765076 13.46286l0 0l0 0c0 10.515167 -8.524216 19.039368 -19.039368 19.039368l-124.88189 0c-10.515156 0 -19.039371 -8.5242 -19.039371 -19.039368z" fill-rule="evenodd"/><path stroke="#000000" stroke-width="1.0" stroke-linejoin="round" stroke-linecap="butt" d="m30.39571 425.10852l0 0c0 -10.515137 8.524216 -19.039368 19.039371 -19.039368l124.88189 0c5.0495605 0 9.892288 2.0059204 13.46286 5.5765076c3.5705872 3.5705566 5.5765076 8.4133 5.5765076 13.46286l0 0l0 0c0 10.515167 -8.524216 19.039368 -19.039368 19.039368l-124.88189 0c-10.515156 0 -19.039371 -8.5242 -19.039371 -19.039368z" fill-rule="evenodd"/><path fill="#000000" d="m80.15109 429.9085l0 -8.421875l-3.140625 0l0 -1.125l7.5625 0l0 1.125l-3.15625 0l0 8.421875l-1.265625 0zm3.647873 -3.453125q0 -1.921875 1.078125 -2.84375q0.890625 -0.765625 2.171875 -0.765625q1.421875 0 2.328125 0.9375q0.90625 0.921875 0.90625 2.578125q0 1.328125 -0.40625 2.09375q-0.390625 0.765625 -1.15625 1.1875q-0.765625 0.421875 -1.671875 0.421875q-1.453125 0 -2.359375 -0.921875q-0.890625 -0.9375 -0.890625 -2.6875zm1.203125 0q0 1.328125 0.578125 1.984375q0.59375 0.65625 1.46875 0.65625q0.875 0 1.453125 -0.65625q0.578125 -0.671875 0.578125 -2.03125q0 -1.28125 -0.59375 -1.9375q-0.578125 -0.65625 -1.4375 -0.65625q-0.875 0 -1.46875 0.65625q-0.578125 0.65625 -0.578125 1.984375zm11.631088 3.453125l-2.125 -6.90625l1.21875 0l1.09375 3.984375l0.421875 1.484375q0.015625 -0.109375 0.359375 -1.421875l1.09375 -4.046875l1.203125 0l1.03125 4.0l0.34375 1.328125l0.40625 -1.34375l1.171875 -3.984375l1.140625 0l-2.15625 6.90625l-1.21875 0l-1.09375 -4.140625l-0.265625 -1.171875l-1.40625 5.3125l-1.21875 0zm8.359528 -8.1875l0 -1.359375l1.171875 0l0 1.359375l-1.171875 0zm0 8.1875l0 -6.90625l1.171875 0l0 6.90625l-1.171875 0zm3.226715 0l0 -6.0l-1.03125 0l0 -0.90625l1.03125 0l0 -0.734375q0 -0.703125 0.125 -1.046875q0.171875 -0.453125 0.59375 -0.734375q0.421875 -0.28125 1.203125 -0.28125q0.484375 0 1.09375 0.109375l-0.1875 1.03125q-0.359375 -0.0625 -0.6875 -0.0625q-0.53125 0 -0.75 0.234375q-0.21875 0.21875 -0.21875 0.84375l0 0.640625l1.34375 0l0 0.90625l-1.34375 0l0 6.0l-1.171875 0zm3.4373627 -8.1875l0 -1.359375l1.171875 0l0 1.359375l-1.171875 0zm0 8.1875l0 -6.90625l1.171875 0l0 6.90625l-1.171875 0zm3.11734 0l0 -9.546875l4.234375 0q1.265625 0 1.921875 0.265625q0.671875 0.25 1.0625 0.90625q0.40625 0.65625 0.40625 1.4375q0 1.015625 -0.65625 1.71875q-0.65625 0.6875 -2.03125 0.875q0.5 0.25 0.765625 0.484375q0.546875 0.5 1.046875 1.265625l1.65625 2.59375l-1.578125 0l-1.265625 -1.984375q-0.5625 -0.859375 -0.921875 -1.3125q-0.34375 -0.453125 -0.640625 -0.640625q-0.28125 -0.1875 -0.5625 -0.25q-0.21875 -0.046875 -0.703125 -0.046875l-1.46875 0l0 4.234375l-1.265625 0zm1.265625 -5.328125l2.71875 0q0.859375 0 1.34375 -0.171875q0.484375 -0.1875 0.734375 -0.578125q0.265625 -0.390625 0.265625 -0.859375q0 -0.671875 -0.5 -1.109375q-0.484375 -0.4375 -1.546875 -0.4375l-3.015625 0l0 3.15625zm12.718903 5.328125l0 -1.015625q-0.8125 1.171875 -2.1875 1.171875q-0.609375 0 -1.140625 -0.234375q-0.53125 -0.234375 -0.796875 -0.578125q-0.25 -0.359375 -0.359375 -0.875q-0.0625 -0.34375 -0.0625 -1.09375l0 -4.28125l1.171875 0l0 3.828125q0 0.921875 0.0625 1.234375q0.109375 0.46875 0.46875 0.734375q0.359375 0.25 0.890625 0.25q0.515625 0 0.984375 -0.265625q0.46875 -0.265625 0.65625 -0.734375q0.1875 -0.46875 0.1875 -1.34375l0 -3.703125l1.171875 0l0 6.90625l-1.046875 0zm2.8812256 0l0 -6.90625l1.0625 0l0 0.984375q0.75 -1.140625 2.1875 -1.140625q0.625 0 1.15625 0.21875q0.53125 0.21875 0.78125 0.59375q0.265625 0.359375 0.375 0.859375q0.0625 0.328125 0.0625 1.140625l0 4.25l-1.171875 0l0 -4.203125q0 -0.71875 -0.140625 -1.0625q-0.140625 -0.359375 -0.484375 -0.5625q-0.34375 -0.21875 -0.8125 -0.21875q-0.75 0 -1.296875 0.46875q-0.546875 0.46875 -0.546875 1.796875l0 3.78125l-1.171875 0zm9.662476 2.8125q-0.984375 -1.234375 -1.65625 -2.875q-0.65625 -1.640625 -0.65625 -3.390625q0 -1.546875 0.5 -2.96875q0.578125 -1.640625 1.8125 -3.28125l0.828125 0q-0.78125 1.359375 -1.03125 1.9375q-0.40625 0.890625 -0.625 1.875q-0.28125 1.21875 -0.28125 2.4375q0 3.140625 1.9375 6.265625l-0.828125 0zm2.9539948 0l-0.828125 0q1.9375 -3.125 1.9375 -6.265625q0 -1.21875 -0.28125 -2.421875q-0.21875 -0.984375 -0.609375 -1.875q-0.265625 -0.59375 -1.046875 -1.953125l0.828125 0q1.234375 1.640625 1.8125 3.28125q0.5 1.421875 0.5 2.96875q0 1.75 -0.671875 3.390625q-0.671875 1.640625 -1.640625 2.875z" fill-rule="nonzero"/><path fill="#f4cccc" d="m774.76843 95.49749l0 0c0 -37.833683 34.569214 -68.50394 77.212585 -68.50394l0 0c42.64331 0 77.212585 30.670258 77.212585 68.50394l0 0c0 37.83367 -34.569275 68.50393 -77.212585 68.50393l0 0c-42.64337 0 -77.212585 -30.670258 -77.212585 -68.50393z" fill-rule="evenodd"/><path stroke="#000000" stroke-width="1.0" stroke-linejoin="round" stroke-linecap="butt" d="m774.76843 95.49749l0 0c0 -37.833683 34.569214 -68.50394 77.212585 -68.50394l0 0c42.64331 0 77.212585 30.670258 77.212585 68.50394l0 0c0 37.83367 -34.569275 68.50393 -77.212585 68.50393l0 0c-42.64337 0 -77.212585 -30.670258 -77.212585 -68.50393z" fill-rule="evenodd"/><path fill="#000000" d="m814.5634 98.12437l1.328125 0.171875q-0.3125 1.171875 -1.171875 1.8125q-0.84375 0.640625 -2.171875 0.640625q-1.671875 0 -2.65625 -1.015625q-0.96875 -1.03125 -0.96875 -2.890625q0 -1.921875 0.984375 -2.96875q1.0 -1.0625 2.578125 -1.0625q1.515625 0 2.484375 1.03125q0.96875 1.03125 0.96875 2.921875q0 0.109375 -0.015625 0.34375l-5.65625 0q0.0625 1.25 0.703125 1.921875q0.640625 0.65625 1.59375 0.65625q0.703125 0 1.203125 -0.359375q0.5 -0.375 0.796875 -1.203125zm-4.234375 -2.078125l4.25 0q-0.09375 -0.953125 -0.484375 -1.4375q-0.625 -0.75 -1.609375 -0.75q-0.875 0 -1.484375 0.59375q-0.609375 0.59375 -0.671875 1.59375zm9.291748 4.53125l-2.890625 -7.59375l1.359375 0l1.625 4.546875q0.265625 0.734375 0.5 1.53125q0.15625 -0.609375 0.46875 -1.453125l1.6875 -4.625l1.328125 0l-2.875 7.59375l-1.203125 0zm10.421875 -2.453125l1.328125 0.171875q-0.3125 1.171875 -1.171875 1.8125q-0.84375 0.640625 -2.171875 0.640625q-1.671875 0 -2.65625 -1.015625q-0.96875 -1.03125 -0.96875 -2.890625q0 -1.921875 0.984375 -2.96875q1.0 -1.0625 2.578125 -1.0625q1.515625 0 2.484375 1.03125q0.96875 1.03125 0.96875 2.921875q0 0.109375 -0.015625 0.34375l-5.65625 0q0.0625 1.25 0.703125 1.921875q0.640625 0.65625 1.59375 0.65625q0.703125 0 1.203125 -0.359375q0.5 -0.375 0.796875 -1.203125zm-4.234375 -2.078125l4.25 0q-0.09375 -0.953125 -0.484375 -1.4375q-0.625 -0.75 -1.609375 -0.75q-0.875 0 -1.484375 0.59375q-0.609375 0.59375 -0.671875 1.59375zm7.182373 4.53125l0 -7.59375l1.15625 0l0 1.078125q0.84375 -1.25 2.421875 -1.25q0.6875 0 1.265625 0.25q0.578125 0.234375 0.859375 0.640625q0.28125 0.40625 0.40625 0.953125q0.0625 0.359375 0.0625 1.25l0 4.671875l-1.28125 0l0 -4.625q0 -0.78125 -0.15625 -1.171875q-0.15625 -0.390625 -0.546875 -0.625q-0.375 -0.234375 -0.890625 -0.234375q-0.8125 0 -1.421875 0.53125q-0.59375 0.515625 -0.59375 1.96875l0 4.15625l-1.28125 0zm10.963562 -1.15625l0.1875 1.140625q-0.546875 0.109375 -0.984375 0.109375q-0.6875 0 -1.078125 -0.21875q-0.390625 -0.21875 -0.546875 -0.578125q-0.15625 -0.359375 -0.15625 -1.515625l0 -4.375l-0.953125 0l0 -1.0l0.953125 0l0 -1.890625l1.28125 -0.765625l0 2.65625l1.296875 0l0 1.0l-1.296875 0l0 4.4375q0 0.546875 0.0625 0.71875q0.078125 0.15625 0.21875 0.25q0.15625 0.078125 0.453125 0.078125q0.203125 0 0.5625 -0.046875zm1.4626465 1.15625l0 -10.484375l1.390625 0l0 4.296875l5.453125 0l0 -4.296875l1.390625 0l0 10.484375l-1.390625 0l0 -4.9375l-5.453125 0l0 4.9375l-1.390625 0zm15.3342285 -0.9375q-0.71875 0.609375 -1.375 0.859375q-0.65625 0.25 -1.421875 0.25q-1.25 0 -1.921875 -0.609375q-0.671875 -0.609375 -0.671875 -1.5625q0 -0.5625 0.25 -1.015625q0.25 -0.46875 0.65625 -0.75q0.421875 -0.28125 0.9375 -0.421875q0.375 -0.09375 1.140625 -0.1875q1.5625 -0.1875 2.296875 -0.453125q0.015625 -0.265625 0.015625 -0.328125q0 -0.796875 -0.375 -1.109375q-0.484375 -0.4375 -1.453125 -0.4375q-0.921875 0 -1.359375 0.328125q-0.421875 0.3125 -0.625 1.109375l-1.265625 -0.171875q0.171875 -0.796875 0.5625 -1.296875q0.390625 -0.5 1.140625 -0.765625q0.75 -0.265625 1.71875 -0.265625q0.984375 0 1.59375 0.234375q0.609375 0.21875 0.890625 0.5625q0.28125 0.34375 0.40625 0.875q0.0625 0.328125 0.0625 1.1875l0 1.71875q0 1.796875 0.078125 2.28125q0.078125 0.46875 0.328125 0.90625l-1.34375 0q-0.203125 -0.40625 -0.265625 -0.9375zm-0.109375 -2.875q-0.703125 0.28125 -2.09375 0.484375q-0.796875 0.109375 -1.125 0.265625q-0.328125 0.140625 -0.515625 0.421875q-0.171875 0.265625 -0.171875 0.59375q0 0.515625 0.390625 0.859375q0.390625 0.34375 1.140625 0.34375q0.734375 0 1.3125 -0.3125q0.59375 -0.328125 0.859375 -0.890625q0.203125 -0.4375 0.203125 -1.296875l0 -0.46875zm3.307373 3.8125l0 -7.59375l1.15625 0l0 1.078125q0.84375 -1.25 2.421875 -1.25q0.6875 0 1.265625 0.25q0.578125 0.234375 0.859375 0.640625q0.28125 0.40625 0.40625 0.953125q0.0625 0.359375 0.0625 1.25l0 4.671875l-1.28125 0l0 -4.625q0 -0.78125 -0.15625 -1.171875q-0.15625 -0.390625 -0.546875 -0.625q-0.375 -0.234375 -0.890625 -0.234375q-0.8125 0 -1.421875 0.53125q-0.59375 0.515625 -0.59375 1.96875l0 4.15625l-1.28125 0zm13.072998 0l0 -0.953125q-0.71875 1.125 -2.125 1.125q-0.90625 0 -1.671875 -0.5q-0.75 -0.5 -1.171875 -1.390625q-0.421875 -0.90625 -0.421875 -2.078125q0 -1.140625 0.375 -2.0625q0.390625 -0.921875 1.140625 -1.40625q0.765625 -0.5 1.703125 -0.5q0.6875 0 1.21875 0.296875q0.53125 0.28125 0.875 0.734375l0 -3.75l1.28125 0l0 10.484375l-1.203125 0zm-4.0625 -3.796875q0 1.46875 0.609375 2.1875q0.625 0.71875 1.453125 0.71875q0.84375 0 1.4375 -0.6875q0.59375 -0.6875 0.59375 -2.109375q0 -1.5625 -0.609375 -2.28125q-0.59375 -0.734375 -1.484375 -0.734375q-0.84375 0 -1.421875 0.703125q-0.578125 0.703125 -0.578125 2.203125zm7.260498 3.796875l0 -10.484375l1.28125 0l0 10.484375l-1.28125 0zm8.4904785 -2.453125l1.328125 0.171875q-0.3125 1.171875 -1.171875 1.8125q-0.84375 0.640625 -2.171875 0.640625q-1.671875 0 -2.65625 -1.015625q-0.96875 -1.03125 -0.96875 -2.890625q0 -1.921875 0.984375 -2.96875q1.0 -1.0625 2.578125 -1.0625q1.515625 0 2.484375 1.03125q0.96875 1.03125 0.96875 2.921875q0 0.109375 -0.015625 0.34375l-5.65625 0q0.0625 1.25 0.703125 1.921875q0.640625 0.65625 1.59375 0.65625q0.703125 0 1.203125 -0.359375q0.5 -0.375 0.796875 -1.203125zm-4.234375 -2.078125l4.25 0q-0.09375 -0.953125 -0.484375 -1.4375q-0.625 -0.75 -1.609375 -0.75q-0.875 0 -1.484375 0.59375q-0.609375 0.59375 -0.671875 1.59375zm7.166748 4.53125l0 -7.59375l1.15625 0l0 1.140625q0.453125 -0.796875 0.828125 -1.046875q0.375 -0.265625 0.8125 -0.265625q0.65625 0 1.328125 0.40625l-0.4375 1.203125q-0.46875 -0.28125 -0.953125 -0.28125q-0.421875 0 -0.765625 0.25q-0.328125 0.25 -0.46875 0.703125q-0.21875 0.6875 -0.21875 1.5l0 3.984375l-1.28125 0z" fill-rule="nonzero"/><path fill="#f4cccc" d="m51.734287 104.552l0 0c0 -10.706497 13.234043 -19.385826 29.559055 -19.385826l0 0c16.32502 0 29.55906 8.679329 29.55906 19.385826l0 0c0 10.706497 -13.234039 19.385826 -29.55906 19.385826l0 0c-16.325012 0 -29.559055 -8.679329 -29.559055 -19.385826z" fill-rule="evenodd"/><path stroke="#000000" stroke-width="1.0" stroke-linejoin="round" stroke-linecap="butt" d="m51.734287 104.552l0 0c0 -10.706497 13.234043 -19.385826 29.559055 -19.385826l0 0c16.32502 0 29.55906 8.679329 29.55906 19.385826l0 0c0 10.706497 -13.234039 19.385826 -29.55906 19.385826l0 0c-16.325012 0 -29.559055 -8.679329 -29.559055 -19.385826z" fill-rule="evenodd"/><path fill="#000000" fill-opacity="0.0" d="m113.63718 84.55817l117.38583 0l0 38.771652l-117.38583 0z" fill-rule="evenodd"/><path fill="#000000" d="m126.76218 107.65254l0.203125 1.25q-0.59375 0.125 -1.0625 0.125q-0.765625 0 -1.1875 -0.234375q-0.421875 -0.25 -0.59375 -0.640625q-0.171875 -0.40625 -0.171875 -1.671875l0 -4.765625l-1.03125 0l0 -1.09375l1.03125 0l0 -2.0625l1.40625 -0.84375l0 2.90625l1.40625 0l0 1.09375l-1.40625 0l0 4.84375q0 0.609375 0.0625 0.78125q0.078125 0.171875 0.25 0.28125q0.171875 0.09375 0.484375 0.09375q0.234375 0 0.609375 -0.0625zm1.3828125 -8.578125l0 -1.609375l1.40625 0l0 1.609375l-1.40625 0zm0 9.84375l0 -8.296875l1.40625 0l0 8.296875l-1.40625 0zm6.6484375 0l0 -10.109375l-3.78125 0l0 -1.34375l9.078125 0l0 1.34375l-3.78125 0l0 10.109375l-1.515625 0zm13.640625 0l0 -10.109375l-3.78125 0l0 -1.34375l9.078125 0l0 1.34375l-3.78125 0l0 10.109375l-1.515625 0zm10.3125 -1.03125q-0.78125 0.671875 -1.5 0.953125q-0.71875 0.265625 -1.546875 0.265625q-1.375 0 -2.109375 -0.671875q-0.734375 -0.671875 -0.734375 -1.703125q0 -0.609375 0.28125 -1.109375q0.28125 -0.515625 0.71875 -0.8125q0.453125 -0.3125 1.015625 -0.46875q0.421875 -0.109375 1.25 -0.203125q1.703125 -0.203125 2.515625 -0.484375q0 -0.296875 0 -0.375q0 -0.859375 -0.390625 -1.203125q-0.546875 -0.484375 -1.609375 -0.484375q-0.984375 0 -1.46875 0.359375q-0.46875 0.34375 -0.6875 1.21875l-1.375 -0.1875q0.1875 -0.875 0.609375 -1.421875q0.4375 -0.546875 1.25 -0.828125q0.8125 -0.296875 1.875 -0.296875q1.0625 0 1.71875 0.25q0.671875 0.25 0.984375 0.625q0.3125 0.375 0.4375 0.953125q0.078125 0.359375 0.078125 1.296875l0 1.875q0 1.96875 0.078125 2.484375q0.09375 0.515625 0.359375 1.0l-1.46875 0q-0.21875 -0.4375 -0.28125 -1.03125zm-0.109375 -3.140625q-0.765625 0.3125 -2.296875 0.53125q-0.875 0.125 -1.234375 0.28125q-0.359375 0.15625 -0.5625 0.46875q-0.1875 0.296875 -0.1875 0.65625q0 0.5625 0.421875 0.9375q0.4375 0.375 1.25 0.375q0.8125 0 1.4375 -0.34375q0.640625 -0.359375 0.9375 -0.984375q0.234375 -0.46875 0.234375 -1.40625l0 -0.515625zm3.0390625 1.6875l1.390625 -0.21875q0.109375 0.84375 0.640625 1.296875q0.546875 0.4375 1.5 0.4375q0.96875 0 1.4375 -0.390625q0.46875 -0.40625 0.46875 -0.9375q0 -0.46875 -0.40625 -0.75q-0.296875 -0.1875 -1.4375 -0.46875q-1.546875 -0.390625 -2.15625 -0.671875q-0.59375 -0.296875 -0.90625 -0.796875q-0.296875 -0.5 -0.296875 -1.109375q0 -0.5625 0.25 -1.03125q0.25 -0.46875 0.6875 -0.78125q0.328125 -0.25 0.890625 -0.40625q0.578125 -0.171875 1.21875 -0.171875q0.984375 0 1.71875 0.28125q0.734375 0.28125 1.078125 0.765625q0.359375 0.46875 0.5 1.28125l-1.375 0.1875q-0.09375 -0.640625 -0.546875 -1.0q-0.453125 -0.359375 -1.265625 -0.359375q-0.96875 0 -1.390625 0.328125q-0.40625 0.3125 -0.40625 0.734375q0 0.28125 0.171875 0.5q0.171875 0.21875 0.53125 0.375q0.21875 0.078125 1.25 0.359375q1.484375 0.390625 2.078125 0.65625q0.59375 0.25 0.921875 0.734375q0.34375 0.484375 0.34375 1.203125q0 0.703125 -0.421875 1.328125q-0.40625 0.609375 -1.1875 0.953125q-0.765625 0.34375 -1.734375 0.34375q-1.625 0 -2.46875 -0.671875q-0.84375 -0.671875 -1.078125 -2.0zm8.5625 2.484375l0 -11.453125l1.40625 0l0 6.53125l3.328125 -3.375l1.828125 0l-3.171875 3.078125l3.484375 5.21875l-1.734375 0l-2.734375 -4.25l-1.0 0.953125l0 3.296875l-1.40625 0z" fill-rule="nonzero"/><path fill="#fff2cc" d="m51.734287 152.552l0 0c0 -10.706497 13.234043 -19.385834 29.559055 -19.385834l0 0c16.32502 0 29.55906 8.679337 29.55906 19.385834l0 0c0 10.706497 -13.234039 19.385834 -29.55906 19.385834l0 0c-16.325012 0 -29.559055 -8.679337 -29.559055 -19.385834z" fill-rule="evenodd"/><path stroke="#000000" stroke-width="1.0" stroke-linejoin="round" stroke-linecap="butt" d="m51.734287 152.552l0 0c0 -10.706497 13.234043 -19.385834 29.559055 -19.385834l0 0c16.32502 0 29.55906 8.679337 29.55906 19.385834l0 0c0 10.706497 -13.234039 19.385834 -29.55906 19.385834l0 0c-16.325012 0 -29.559055 -8.679337 -29.559055 -19.385834z" fill-rule="evenodd"/><path fill="#000000" fill-opacity="0.0" d="m113.63718 132.55725l137.22835 0l0 38.771652l-137.22835 0z" fill-rule="evenodd"/><path fill="#000000" d="m123.13718 154.43288l1.390625 -0.21875q0.109375 0.84375 0.640625 1.296875q0.546875 0.4375 1.5 0.4375q0.96875 0 1.4375 -0.390625q0.46875 -0.40625 0.46875 -0.9375q0 -0.46875 -0.40625 -0.75q-0.296875 -0.1875 -1.4375 -0.46875q-1.546875 -0.390625 -2.15625 -0.671875q-0.59375 -0.296875 -0.90625 -0.796875q-0.296875 -0.5 -0.296875 -1.109375q0 -0.5625 0.25 -1.03125q0.25 -0.46875 0.6875 -0.78125q0.328125 -0.25 0.890625 -0.40625q0.578125 -0.171875 1.21875 -0.171875q0.984375 0 1.71875 0.28125q0.734375 0.28125 1.078125 0.765625q0.359375 0.46875 0.5 1.28125l-1.375 0.1875q-0.09375 -0.640625 -0.546875 -1.0q-0.453125 -0.359375 -1.265625 -0.359375q-0.96875 0 -1.390625 0.328125q-0.40625 0.3125 -0.40625 0.734375q0 0.28125 0.171875 0.5q0.171875 0.21875 0.53125 0.375q0.21875 0.078125 1.25 0.359375q1.484375 0.390625 2.078125 0.65625q0.59375 0.25 0.921875 0.734375q0.34375 0.484375 0.34375 1.203125q0 0.703125 -0.421875 1.328125q-0.40625 0.609375 -1.1875 0.953125q-0.765625 0.34375 -1.734375 0.34375q-1.625 0 -2.46875 -0.671875q-0.84375 -0.671875 -1.078125 -2.0zm8.5625 2.484375l0 -8.296875l1.265625 0l0 1.171875q0.90625 -1.359375 2.640625 -1.359375q0.75 0 1.375 0.265625q0.625 0.265625 0.9375 0.703125q0.3125 0.4375 0.4375 1.046875q0.078125 0.390625 0.078125 1.359375l0 5.109375l-1.40625 0l0 -5.046875q0 -0.859375 -0.171875 -1.28125q-0.15625 -0.4375 -0.578125 -0.6875q-0.40625 -0.25 -0.96875 -0.25q-0.90625 0 -1.5625 0.578125q-0.640625 0.5625 -0.640625 2.15625l0 4.53125l-1.40625 0zm11.9609375 -1.265625l0.203125 1.25q-0.59375 0.125 -1.0625 0.125q-0.765625 0 -1.1875 -0.234375q-0.421875 -0.25 -0.59375 -0.640625q-0.171875 -0.40625 -0.171875 -1.671875l0 -4.765625l-1.03125 0l0 -1.09375l1.03125 0l0 -2.0625l1.40625 -0.84375l0 2.90625l1.40625 0l0 1.09375l-1.40625 0l0 4.84375q0 0.609375 0.0625 0.78125q0.078125 0.171875 0.25 0.28125q0.171875 0.09375 0.484375 0.09375q0.234375 0 0.609375 -0.0625zm1.3828125 4.453125l0 -11.484375l1.28125 0l0 1.078125q0.453125 -0.640625 1.015625 -0.953125q0.578125 -0.3125 1.390625 -0.3125q1.0625 0 1.875 0.546875q0.8125 0.546875 1.21875 1.546875q0.421875 0.984375 0.421875 2.171875q0 1.28125 -0.46875 2.296875q-0.453125 1.015625 -1.328125 1.5625q-0.859375 0.546875 -1.828125 0.546875q-0.703125 0 -1.265625 -0.296875q-0.546875 -0.296875 -0.90625 -0.75l0 4.046875l-1.40625 0zm1.265625 -7.296875q0 1.609375 0.640625 2.375q0.65625 0.765625 1.578125 0.765625q0.9375 0 1.609375 -0.796875q0.671875 -0.796875 0.671875 -2.453125q0 -1.59375 -0.65625 -2.375q-0.65625 -0.796875 -1.5625 -0.796875q-0.890625 0 -1.59375 0.84375q-0.6875 0.84375 -0.6875 2.4375zm11.796875 -1.46875q0 -2.859375 1.53125 -4.46875q1.53125 -1.609375 3.953125 -1.609375q1.578125 0 2.84375 0.765625q1.28125 0.75 1.953125 2.109375q0.671875 1.34375 0.671875 3.0625q0 1.75 -0.703125 3.125q-0.703125 1.375 -2.0 2.09375q-1.28125 0.703125 -2.78125 0.703125q-1.609375 0 -2.890625 -0.78125q-1.265625 -0.796875 -1.921875 -2.140625q-0.65625 -1.359375 -0.65625 -2.859375zm1.5625 0.015625q0 2.078125 1.109375 3.265625q1.109375 1.1875 2.796875 1.1875q1.703125 0 2.8125 -1.203125q1.109375 -1.203125 1.109375 -3.40625q0 -1.40625 -0.484375 -2.4375q-0.46875 -1.046875 -1.375 -1.625q-0.90625 -0.578125 -2.046875 -0.578125q-1.609375 0 -2.765625 1.109375q-1.15625 1.109375 -1.15625 3.6875zm11.1640625 8.75l0 -11.484375l1.28125 0l0 1.078125q0.453125 -0.640625 1.015625 -0.953125q0.578125 -0.3125 1.390625 -0.3125q1.0625 0 1.875 0.546875q0.8125 0.546875 1.21875 1.546875q0.421875 0.984375 0.421875 2.171875q0 1.28125 -0.46875 2.296875q-0.453125 1.015625 -1.328125 1.5625q-0.859375 0.546875 -1.828125 0.546875q-0.703125 0 -1.265625 -0.296875q-0.546875 -0.296875 -0.90625 -0.75l0 4.046875l-1.40625 0zm1.265625 -7.296875q0 1.609375 0.640625 2.375q0.65625 0.765625 1.578125 0.765625q0.9375 0 1.609375 -0.796875q0.671875 -0.796875 0.671875 -2.453125q0 -1.59375 -0.65625 -2.375q-0.65625 -0.796875 -1.5625 -0.796875q-0.890625 0 -1.59375 0.84375q-0.6875 0.84375 -0.6875 2.4375zm13.3046875 1.4375l1.453125 0.171875q-0.34375 1.28125 -1.28125 1.984375q-0.921875 0.703125 -2.359375 0.703125q-1.828125 0 -2.890625 -1.125q-1.0625 -1.125 -1.0625 -3.140625q0 -2.09375 1.078125 -3.25q1.078125 -1.15625 2.796875 -1.15625q1.65625 0 2.703125 1.140625q1.0625 1.125 1.0625 3.171875q0 0.125 0 0.375l-6.1875 0q0.078125 1.375 0.765625 2.109375q0.703125 0.71875 1.734375 0.71875q0.78125 0 1.328125 -0.40625q0.546875 -0.40625 0.859375 -1.296875zm-4.609375 -2.28125l4.625 0q-0.09375 -1.046875 -0.53125 -1.5625q-0.671875 -0.8125 -1.734375 -0.8125q-0.96875 0 -1.640625 0.65625q-0.65625 0.640625 -0.71875 1.71875zm7.8203125 4.953125l0 -8.296875l1.265625 0l0 1.25q0.484375 -0.875 0.890625 -1.15625q0.40625 -0.28125 0.90625 -0.28125q0.703125 0 1.4375 0.453125l-0.484375 1.296875q-0.515625 -0.296875 -1.03125 -0.296875q-0.453125 0 -0.828125 0.28125q-0.359375 0.265625 -0.515625 0.765625q-0.234375 0.75 -0.234375 1.640625l0 4.34375l-1.40625 0zm10.75 -1.03125q-0.78125 0.671875 -1.5 0.953125q-0.71875 0.265625 -1.546875 0.265625q-1.375 0 -2.109375 -0.671875q-0.734375 -0.671875 -0.734375 -1.703125q0 -0.609375 0.28125 -1.109375q0.28125 -0.515625 0.71875 -0.8125q0.453125 -0.3125 1.015625 -0.46875q0.421875 -0.109375 1.25 -0.203125q1.703125 -0.203125 2.515625 -0.484375q0 -0.296875 0 -0.375q0 -0.859375 -0.390625 -1.203125q-0.546875 -0.484375 -1.609375 -0.484375q-0.984375 0 -1.46875 0.359375q-0.46875 0.34375 -0.6875 1.21875l-1.375 -0.1875q0.1875 -0.875 0.609375 -1.421875q0.4375 -0.546875 1.25 -0.828125q0.8125 -0.296875 1.875 -0.296875q1.0625 0 1.71875 0.25q0.671875 0.25 0.984375 0.625q0.3125 0.375 0.4375 0.953125q0.078125 0.359375 0.078125 1.296875l0 1.875q0 1.96875 0.078125 2.484375q0.09375 0.515625 0.359375 1.0l-1.46875 0q-0.21875 -0.4375 -0.28125 -1.03125zm-0.109375 -3.140625q-0.765625 0.3125 -2.296875 0.53125q-0.875 0.125 -1.234375 0.28125q-0.359375 0.15625 -0.5625 0.46875q-0.1875 0.296875 -0.1875 0.65625q0 0.5625 0.421875 0.9375q0.4375 0.375 1.25 0.375q0.8125 0 1.4375 -0.34375q0.640625 -0.359375 0.9375 -0.984375q0.234375 -0.46875 0.234375 -1.40625l0 -0.515625zm6.6640625 2.90625l0.203125 1.25q-0.59375 0.125 -1.0625 0.125q-0.765625 0 -1.1875 -0.234375q-0.421875 -0.25 -0.59375 -0.640625q-0.171875 -0.40625 -0.171875 -1.671875l0 -4.765625l-1.03125 0l0 -1.09375l1.03125 0l0 -2.0625l1.40625 -0.84375l0 2.90625l1.40625 0l0 1.09375l-1.40625 0l0 4.84375q0 0.609375 0.0625 0.78125q0.078125 0.171875 0.25 0.28125q0.171875 0.09375 0.484375 0.09375q0.234375 0 0.609375 -0.0625zm1.3828125 -8.578125l0 -1.609375l1.40625 0l0 1.609375l-1.40625 0zm0 9.84375l0 -8.296875l1.40625 0l0 8.296875l-1.40625 0zm3.0234375 -4.15625q0 -2.296875 1.28125 -3.40625q1.078125 -0.921875 2.609375 -0.921875q1.71875 0 2.796875 1.125q1.09375 1.109375 1.09375 3.09375q0 1.59375 -0.484375 2.515625q-0.484375 0.921875 -1.40625 1.4375q-0.90625 0.5 -2.0 0.5q-1.734375 0 -2.8125 -1.109375q-1.078125 -1.125 -1.078125 -3.234375zm1.453125 0q0 1.59375 0.6875 2.390625q0.703125 0.796875 1.75 0.796875q1.046875 0 1.734375 -0.796875q0.703125 -0.796875 0.703125 -2.4375q0 -1.53125 -0.703125 -2.328125q-0.6875 -0.796875 -1.734375 -0.796875q-1.046875 0 -1.75 0.796875q-0.6875 0.78125 -0.6875 2.375zm7.9765625 4.15625l0 -8.296875l1.265625 0l0 1.171875q0.90625 -1.359375 2.640625 -1.359375q0.75 0 1.375 0.265625q0.625 0.265625 0.9375 0.703125q0.3125 0.4375 0.4375 1.046875q0.078125 0.390625 0.078125 1.359375l0 5.109375l-1.40625 0l0 -5.046875q0 -0.859375 -0.171875 -1.28125q-0.15625 -0.4375 -0.578125 -0.6875q-0.40625 -0.25 -0.96875 -0.25q-0.90625 0 -1.5625 0.578125q-0.640625 0.5625 -0.640625 2.15625l0 4.53125l-1.40625 0zm8.3359375 -2.484375l1.390625 -0.21875q0.109375 0.84375 0.640625 1.296875q0.546875 0.4375 1.5 0.4375q0.96875 0 1.4375 -0.390625q0.46875 -0.40625 0.46875 -0.9375q0 -0.46875 -0.40625 -0.75q-0.296875 -0.1875 -1.4375 -0.46875q-1.546875 -0.390625 -2.15625 -0.671875q-0.59375 -0.296875 -0.90625 -0.796875q-0.296875 -0.5 -0.296875 -1.109375q0 -0.5625 0.25 -1.03125q0.25 -0.46875 0.6875 -0.78125q0.328125 -0.25 0.890625 -0.40625q0.578125 -0.171875 1.21875 -0.171875q0.984375 0 1.71875 0.28125q0.734375 0.28125 1.078125 0.765625q0.359375 0.46875 0.5 1.28125l-1.375 0.1875q-0.09375 -0.640625 -0.546875 -1.0q-0.453125 -0.359375 -1.265625 -0.359375q-0.96875 0 -1.390625 0.328125q-0.40625 0.3125 -0.40625 0.734375q0 0.28125 0.171875 0.5q0.171875 0.21875 0.53125 0.375q0.21875 0.078125 1.25 0.359375q1.484375 0.390625 2.078125 0.65625q0.59375 0.25 0.921875 0.734375q0.34375 0.484375 0.34375 1.203125q0 0.703125 -0.421875 1.328125q-0.40625 0.609375 -1.1875 0.953125q-0.765625 0.34375 -1.734375 0.34375q-1.625 0 -2.46875 -0.671875q-0.84375 -0.671875 -1.078125 -2.0z" fill-rule="nonzero"/><path fill="#000000" fill-opacity="0.0" d="m763.97577 223.55725c18.346436 0 36.692932 64.04724 36.692932 128.09448" fill-rule="evenodd"/><path stroke="#000000" stroke-width="1.0" stroke-linejoin="round" stroke-linecap="butt" d="m763.9757 223.55725c9.173218 0 18.346497 16.01181 25.22638 40.02954c3.4400024 12.00885 6.3065796 26.019165 8.313232 41.030243c1.0033569 7.505554 1.791687 15.261261 2.3291626 23.14206c0.26867676 3.9404297 0.47473145 7.9121094 0.6135864 11.899445c0.06951904 1.9936218 0.12207031 3.991211 0.15740967 5.990753l0 0.0026855469" fill-rule="evenodd"/><path fill="#000000" stroke="#000000" stroke-width="1.0" stroke-linecap="butt" d="m798.9638 345.6666l1.6918945 4.523285l1.6114502 -4.5525513z" fill-rule="evenodd"/><path fill="#000000" fill-opacity="0.0" d="m679.1468 459.43427c0 -0.46514893 -15.315002 2.3453064 -30.629944 -0.93026733c-15.314941 -3.2756042 -30.629944 -12.637238 -30.629944 -25.274475" fill-rule="evenodd"/><path stroke="#000000" stroke-width="1.0" stroke-linejoin="round" stroke-linecap="butt" d="m679.1468 459.43427c0 -0.46514893 -15.315002 2.3453064 -30.629944 -0.93029785c-7.6574707 -1.6377869 -15.314941 -4.797119 -21.058044 -9.126587c-2.871582 -2.164795 -5.2645264 -4.622101 -6.939636 -7.328003c-0.41870117 -0.6765137 -0.79260254 -1.3685303 -1.1179199 -2.075409c-0.08129883 -0.1767273 -0.15960693 -0.35437012 -0.23480225 -0.53292847c-0.037597656 -0.08929443 -0.074401855 -0.17877197 -0.11047363 -0.2685547l-0.021057129 -0.05380249" fill-rule="evenodd"/><path fill="#000000" stroke="#000000" stroke-width="1.0" stroke-linecap="butt" d="m620.6561 438.80267l-2.489502 -4.1382446l-0.7529297 4.770294z" fill-rule="evenodd"/><path fill="#000000" fill-opacity="0.0" d="m813.7793 237.52945l14.393677 79.055115l-32.440918 5.9212646l-14.393738 -79.055115z" fill-rule="evenodd"/><path fill="#000000" d="m799.9654 257.45325q2.3363647 -0.42645264 3.8878174 0.59280396q1.5513916 1.0192261 1.9124756 3.0022583q0.23510742 1.2912598 -0.18945312 2.448822q-0.4244995 1.1575317 -1.4486084 1.9003601q-1.0059814 0.7554016 -2.420105 1.0135193q-1.4141846 0.25811768 -2.657959 -0.1184082q-1.225647 -0.36398315 -2.0028687 -1.3180542q-0.7590332 -0.9414978 -0.9829712 -2.1712952q-0.24072266 -1.3220215 0.19921875 -2.4823608q0.45526123 -1.163147 1.4639893 -1.9031677q1.0087891 -0.74005127 2.2384644 -0.96447754zm0.21972656 1.2940674q-1.6908569 0.30862427 -2.5094604 1.3951416q-0.80322266 1.0837097 -0.55133057 2.4672241q0.2546997 1.3988647 1.4035645 2.1262817q1.1488647 0.727417 2.9626465 0.3963318q1.1375122 -0.20761108 1.9254761 -0.7644043q0.7908325 -0.54141235 1.1148071 -1.3788147q0.3421631 -0.8248596 0.17425537 -1.7471924q-0.24072266 -1.3220215 -1.321167 -2.109558q-1.0775757 -0.7721863 -3.1987915 -0.38500977zm-2.8859253 9.969147l6.7940063 -1.2400818l0.19030762 1.0453186l-0.9683838 0.17675781q1.2564087 0.53305054 1.513916 1.9472961q0.11193848 0.6148987 -0.008056641 1.1768494q-0.12005615 0.56192017 -0.44415283 0.8752136q-0.30596924 0.3258667 -0.7782593 0.5232544q-0.31158447 0.120391846 -1.1109009 0.2662964l-4.180908 0.76312256l-0.2098999 -1.1529236l4.1347656 -0.7546997q0.7070923 -0.12905884 1.0200806 -0.32913208q0.3283081 -0.20288086 0.46661377 -0.57754517q0.15356445 -0.37747192 0.06964111 -0.83865356q-0.13433838 -0.737854 -0.69348145 -1.1917114q-0.55908203 -0.45385742 -1.8656006 -0.21539307l-3.7197876 0.6789551l-0.2098999 -1.1529236zm1.3585205 7.46167l9.391724 -1.7142029l1.2371216 6.7945557l-1.1067505 0.20199585l-1.010376 -5.549408l-2.8743896 0.5246582l0.9460449 5.1958313l-1.1067505 0.20199585l-0.9459839 -5.1958313l-3.1972046 0.5835571l1.0495605 5.764618l-1.1066895 0.20199585l-1.2763062 -7.0097656zm1.5588379 8.561523l6.7940063 -1.2400818l0.19030762 1.0453186l-1.0298462 0.18795776q0.795166 0.26782227 1.0845337 0.54855347q0.29211426 0.29611206 0.36773682 0.71118164q0.10632324 0.58413696 -0.15344238 1.2509766l-1.1333618 -0.2060852q0.16760254 -0.47531128 0.092041016 -0.89035034q-0.070007324 -0.38430786 -0.35656738 -0.6496887q-0.2836914 -0.24996948 -0.7057495 -0.3000183q-0.6512451 -0.08761597 -1.3736572 0.04425049l-3.566101 0.6509094l-0.2098999 -1.1529236zm0.79504395 4.366577l6.7940063 -1.2400818l0.19030762 1.0453186l-1.0298462 0.18798828q0.795166 0.26782227 1.0845337 0.54855347q0.29211426 0.29608154 0.36767578 0.7111511q0.10638428 0.58413696 -0.15338135 1.2510071l-1.1333618 -0.20611572q0.1675415 -0.47531128 0.09197998 -0.89035034q-0.06994629 -0.38430786 -0.35650635 -0.6496887q-0.28375244 -0.24996948 -0.7057495 -0.3000183q-0.6512451 -0.08761597 -1.3736572 0.04425049l-3.566101 0.6509094l-0.2098999 -1.1529236zm4.116455 3.331482q1.890625 -0.34506226 2.9906616 0.55007935q0.9127197 0.738739 1.1422119 1.9992676q0.2546997 1.3988953 -0.505249 2.4588013q-0.7445679 1.0571289 -2.3739014 1.3545227q-1.3065186 0.23846436 -2.1325073 -0.023712158q-0.8231201 -0.24685669 -1.3753052 -0.9243469q-0.552124 -0.67749023 -0.71447754 -1.5690613q-0.26031494 -1.4296265 0.48425293 -2.4867554q0.76275635 -1.0445557 2.484314 -1.3587952zm0.21551514 1.1836853q-1.3065796 0.23846436 -1.8485718 0.92507935q-0.5392456 0.70196533 -0.38250732 1.5628357q0.15673828 0.86083984 0.9058838 1.3117676q0.76452637 0.44815063 2.1018066 0.20407104q1.260437 -0.23007202 1.7996216 -0.9320679q0.5420532 -0.6865845 0.38812256 -1.532074q-0.15673828 -0.86083984 -0.9086914 -1.3271484q-0.7491455 -0.45095825 -2.055664 -0.21246338zm-2.2091675 7.1440125l6.7940063 -1.2400818l0.19030762 1.0453186l-1.0298462 0.18795776q0.795166 0.26782227 1.0845337 0.54855347q0.29211426 0.29611206 0.36767578 0.7111511q0.10638428 0.5841675 -0.15338135 1.2510071l-1.1333618 -0.2060852q0.16760254 -0.47531128 0.09197998 -0.89038086q-0.06994629 -0.38427734 -0.35650635 -0.6496582q-0.28375244 -0.25 -0.7057495 -0.3000183q-0.6512451 -0.08761597 -1.3736572 0.04425049l-3.566101 0.6508789l-0.2098999 -1.1528931z" fill-rule="nonzero"/></g></svg>