<svg version="1.1" viewBox="0.0 0.0 960.0 768.0" fill="none" stroke="none" stroke-linecap="square" stroke-miterlimit="10" xmlns:xlink="http://www.w3.org/1999/xlink" xmlns="http://www.w3.org/2000/svg"><clipPath id="p.0"><path d="m0 0l960.0 0l0 768.0l-960.0 0l0 -768.0z" clip-rule="nonzero"/></clipPath><g clip-path="url(#p.0)"><path fill="#000000" fill-opacity="0.0" d="m0 0l960.0 0l0 768.0l-960.0 0z" fill-rule="evenodd"/><path fill="#fff2cc" d="m146.696 394.38058l0 0c0 -169.86018 174.45384 -307.55905 389.65356 -307.55905l0 0c215.1997 0 389.65356 137.69888 389.65356 307.55905l0 0c0 169.8602 -174.45386 307.55905 -389.65356 307.55905l0 0c-215.1997 0 -389.65356 -137.69885 -389.65356 -307.55905z" fill-rule="evenodd"/><path stroke="#000000" stroke-width="1.0" stroke-linejoin="round" stroke-linecap="butt" d="m146.696 394.38058l0 0c0 -169.86018 174.45384 -307.55905 389.65356 -307.55905l0 0c215.1997 0 389.65356 137.69888 389.65356 307.55905l0 0c0 169.8602 -174.45386 307.55905 -389.65356 307.55905l0 0c-215.1997 0 -389.65356 -137.69885 -389.65356 -307.55905z" fill-rule="evenodd"/><path fill="#000000" fill-opacity="0.0" d="m317.059 15.460674l303.62204 0l0 46.866142l-303.62204 0z" fill-rule="evenodd"/><path fill="#000000" d="m334.44083 46.220673l-3.875 -16.21875l3.34375 0l2.453125 11.140625l2.96875 -11.140625l3.890625 0l2.84375 11.328125l2.484375 -11.328125l3.296875 0l-3.9375 16.21875l-3.46875 0l-3.234375 -12.125l-3.21875 12.125l-3.546875 0zm18.85672 -13.34375l0 -2.875l3.109375 0l0 2.875l-3.109375 0zm0 13.34375l0 -11.75l3.109375 0l0 11.75l-3.109375 0zm4.9352417 -11.75l1.71875 0l0 -0.890625q0 -1.46875 0.3125 -2.203125q0.328125 -0.734375 1.171875 -1.1875q0.84375 -0.46875 2.140625 -0.46875q1.328125 0 2.59375 0.40625l-0.421875 2.171875q-0.734375 -0.1875 -1.421875 -0.1875q-0.671875 0 -0.96875 0.328125q-0.296875 0.3125 -0.296875 1.203125l0 0.828125l2.328125 0l0 2.453125l-2.328125 0l0 9.296875l-3.109375 0l0 -9.296875l-1.71875 0l0 -2.453125zm8.904083 -1.59375l0 -2.875l3.109375 0l0 2.875l-3.109375 0zm0 13.34375l0 -11.75l3.109375 0l0 11.75l-3.109375 0zm12.604889 -16.21875l5.984375 0q2.015625 0 3.078125 0.3125q1.4375 0.421875 2.453125 1.5q1.015625 1.0625 1.546875 2.625q0.53125 1.546875 0.53125 3.828125q0 2.0 -0.5 3.453125q-0.609375 1.765625 -1.734375 2.859375q-0.859375 0.828125 -2.296875 1.296875q-1.09375 0.34375 -2.90625 0.34375l-6.15625 0l0 -16.21875zm3.265625 2.75l0 10.734375l2.453125 0q1.375 0 1.984375 -0.15625q0.796875 -0.203125 1.3125 -0.671875q0.53125 -0.46875 0.859375 -1.5625q0.328125 -1.09375 0.328125 -2.96875q0 -1.890625 -0.328125 -2.890625q-0.328125 -1.0 -0.9375 -1.5625q-0.59375 -0.578125 -1.5 -0.765625q-0.6875 -0.15625 -2.6875 -0.15625l-1.484375 0zm13.080383 0.125l0 -2.875l3.109375 0l0 2.875l-3.109375 0zm0 13.34375l0 -11.75l3.109375 0l0 11.75l-3.109375 0zm9.278992 0l-3.109375 0l0 -11.75l2.875 0l0 1.671875q0.75 -1.1875 1.34375 -1.5625q0.59375 -0.375 1.34375 -0.375q1.0625 0 2.046875 0.59375l-0.96875 2.703125q-0.78125 -0.5 -1.453125 -0.5q-0.65625 0 -1.109375 0.359375q-0.453125 0.359375 -0.71875 1.296875q-0.25 0.9375 -0.25 3.9375l0 3.625zm12.64505 -3.734375l3.09375 0.515625q-0.59375 1.703125 -1.890625 2.59375q-1.28125 0.890625 -3.21875 0.890625q-3.0625 0 -4.546875 -2.0q-1.15625 -1.609375 -1.15625 -4.046875q0 -2.921875 1.515625 -4.578125q1.53125 -1.65625 3.875 -1.65625q2.625 0 4.140625 1.734375q1.515625 1.734375 1.4375 5.296875l-7.78125 0q0.03125 1.390625 0.75 2.15625q0.71875 0.765625 1.796875 0.765625q0.71875 0 1.21875 -0.390625q0.5 -0.40625 0.765625 -1.28125zm0.171875 -3.140625q-0.03125 -1.359375 -0.703125 -2.0625q-0.65625 -0.703125 -1.609375 -0.703125q-1.015625 0 -1.6875 0.75q-0.65625 0.734375 -0.65625 2.015625l4.65625 0zm15.865936 -1.40625l-3.0625 0.5625q-0.15625 -0.921875 -0.703125 -1.375q-0.546875 -0.46875 -1.421875 -0.46875q-1.171875 0 -1.859375 0.796875q-0.6875 0.796875 -0.6875 2.6875q0 2.078125 0.703125 2.953125q0.703125 0.859375 1.875 0.859375q0.890625 0 1.453125 -0.5q0.5625 -0.515625 0.796875 -1.734375l3.0625 0.515625q-0.484375 2.109375 -1.84375 3.1875q-1.34375 1.0625 -3.609375 1.0625q-2.578125 0 -4.109375 -1.625q-1.53125 -1.625 -1.53125 -4.5q0 -2.90625 1.53125 -4.53125q1.546875 -1.625 4.171875 -1.625q2.140625 0 3.40625 0.921875q1.265625 0.921875 1.828125 2.8125zm7.740967 -3.46875l0 2.484375l-2.125 0l0 4.734375q0 1.4375 0.0625 1.671875q0.0625 0.234375 0.265625 0.390625q0.21875 0.15625 0.53125 0.15625q0.4375 0 1.25 -0.296875l0.265625 2.40625q-1.078125 0.46875 -2.453125 0.46875q-0.84375 0 -1.515625 -0.28125q-0.671875 -0.28125 -1.0 -0.71875q-0.3125 -0.453125 -0.421875 -1.21875q-0.109375 -0.546875 -0.109375 -2.203125l0 -5.109375l-1.421875 0l0 -2.484375l1.421875 0l0 -2.328125l3.125 -1.8125l0 4.140625l2.125 0zm2.1540833 -1.59375l0 -2.875l3.109375 0l0 2.875l-3.109375 0zm0 13.34375l0 -11.75l3.109375 0l0 11.75l-3.109375 0zm9.528992 0l-4.734375 -11.75l3.265625 0l2.203125 6.0l0.640625 2.0q0.265625 -0.765625 0.328125 -1.0q0.15625 -0.5 0.328125 -1.0l2.234375 -6.0l3.203125 0l-4.671875 11.75l-2.796875 0zm16.178467 -3.734375l3.09375 0.515625q-0.59375 1.703125 -1.890625 2.59375q-1.28125 0.890625 -3.21875 0.890625q-3.0625 0 -4.546875 -2.0q-1.15625 -1.609375 -1.15625 -4.046875q0 -2.921875 1.515625 -4.578125q1.53125 -1.65625 3.875 -1.65625q2.625 0 4.140625 1.734375q1.515625 1.734375 1.4375 5.296875l-7.78125 0q0.03125 1.390625 0.75 2.15625q0.71875 0.765625 1.796875 0.765625q0.71875 0 1.21875 -0.390625q0.5 -0.40625 0.765625 -1.28125zm0.171875 -3.140625q-0.03125 -1.359375 -0.703125 -2.0625q-0.65625 -0.703125 -1.609375 -0.703125q-1.015625 0 -1.6875 0.75q-0.65625 0.734375 -0.65625 2.015625l4.65625 0zm11.0980835 1.59375l3.1875 -0.3125q0.296875 1.609375 1.171875 2.359375q0.875 0.75 2.375 0.75q1.578125 0 2.375 -0.65625q0.8125 -0.671875 0.8125 -1.578125q0 -0.5625 -0.34375 -0.96875q-0.328125 -0.40625 -1.171875 -0.703125q-0.578125 -0.203125 -2.625 -0.71875q-2.640625 -0.640625 -3.703125 -1.59375q-1.484375 -1.34375 -1.484375 -3.265625q0 -1.234375 0.703125 -2.3125q0.703125 -1.078125 2.015625 -1.640625q1.328125 -0.578125 3.203125 -0.578125q3.046875 0 4.59375 1.34375q1.546875 1.34375 1.625 3.578125l-3.28125 0.140625q-0.203125 -1.25 -0.90625 -1.796875q-0.6875 -0.546875 -2.0625 -0.546875q-1.4375 0 -2.234375 0.578125q-0.53125 0.375 -0.53125 1.015625q0 0.578125 0.484375 0.984375q0.625 0.515625 3.015625 1.078125q2.390625 0.5625 3.53125 1.171875q1.15625 0.59375 1.796875 1.640625q0.640625 1.046875 0.640625 2.59375q0 1.390625 -0.78125 2.609375q-0.765625 1.21875 -2.1875 1.8125q-1.40625 0.578125 -3.515625 0.578125q-3.078125 0 -4.734375 -1.421875q-1.640625 -1.421875 -1.96875 -4.140625zm21.314667 -6.46875l0 2.484375l-2.125 0l0 4.734375q0 1.4375 0.0625 1.671875q0.0625 0.234375 0.265625 0.390625q0.21875 0.15625 0.53125 0.15625q0.4375 0 1.25 -0.296875l0.265625 2.40625q-1.078125 0.46875 -2.453125 0.46875q-0.84375 0 -1.515625 -0.28125q-0.671875 -0.28125 -1.0 -0.71875q-0.3125 -0.453125 -0.421875 -1.21875q-0.109375 -0.546875 -0.109375 -2.203125l0 -5.109375l-1.421875 0l0 -2.484375l1.421875 0l0 -2.328125l3.125 -1.8125l0 4.140625l2.125 0zm4.4822083 3.578125l-2.828125 -0.5q0.484375 -1.703125 1.640625 -2.515625q1.15625 -0.828125 3.453125 -0.828125q2.078125 0 3.0937195 0.5q1.015625 0.484375 1.421875 1.25q0.421875 0.75 0.421875 2.78125l-0.03125 3.625q0 1.546875 0.140625 2.28125q0.15625 0.734375 0.578125 1.578125l-3.0780945 0q-0.125 -0.3125 -0.296875 -0.921875q-0.078125 -0.265625 -0.109375 -0.359375q-0.796875 0.765625 -1.71875 1.15625q-0.90625 0.390625 -1.921875 0.390625q-1.828125 0 -2.875 -0.984375q-1.03125 -0.984375 -1.03125 -2.484375q0 -1.0 0.46875 -1.78125q0.484375 -0.78125 1.328125 -1.1875q0.859375 -0.421875 2.484375 -0.734375q2.171875 -0.40625 3.015625 -0.765625l0 -0.296875q0 -0.90625 -0.453125 -1.28125q-0.4375 -0.390625 -1.65625 -0.390625q-0.828125 0 -1.296875 0.328125q-0.46875 0.328125 -0.75 1.140625zm4.15625 2.53125q-0.59375 0.203125 -1.890625 0.484375q-1.296875 0.265625 -1.6875 0.53125q-0.609375 0.4375 -0.609375 1.09375q0 0.65625 0.484375 1.140625q0.484375 0.46875 1.234375 0.46875q0.84375 0 1.609375 -0.5625q0.5625 -0.40625 0.734375 -1.015625q0.125 -0.40625 0.125 -1.515625l0 -0.625zm11.506561 -6.109375l0 2.484375l-2.125 0l0 4.734375q0 1.4375 0.0625 1.671875q0.0625 0.234375 0.265625 0.390625q0.21875 0.15625 0.53125 0.15625q0.4375 0 1.25 -0.296875l0.265625 2.40625q-1.078125 0.46875 -2.453125 0.46875q-0.84375 0 -1.515625 -0.28125q-0.671875 -0.28125 -1.0 -0.71875q-0.3125 -0.453125 -0.421875 -1.21875q-0.109375 -0.546875 -0.109375 -2.203125l0 -5.109375l-1.421875 0l0 -2.484375l1.421875 0l0 -2.328125l3.125 -1.8125l0 4.140625l2.125 0zm8.966614 8.015625l3.09375 0.515625q-0.59375 1.703125 -1.890625 2.59375q-1.28125 0.890625 -3.21875 0.890625q-3.0625 0 -4.546875 -2.0q-1.15625 -1.609375 -1.15625 -4.046875q0 -2.921875 1.515625 -4.578125q1.53125 -1.65625 3.875 -1.65625q2.625 0 4.140625 1.734375q1.515625 1.734375 1.4375 5.296875l-7.78125 0q0.03125 1.390625 0.75 2.15625q0.71875 0.765625 1.796875 0.765625q0.71875 0 1.21875 -0.390625q0.5 -0.40625 0.765625 -1.28125zm0.171875 -3.140625q-0.03125 -1.359375 -0.703125 -2.0625q-0.65625 -0.703125 -1.609375 -0.703125q-1.015625 0 -1.6875 0.75q-0.65625 0.734375 -0.65625 2.015625l4.65625 0zm11.8949585 6.875l0 -16.21875l4.890625 0l2.953125 11.0625l2.90625 -11.0625l4.90625 0l0 16.21875l-3.046875 0l0 -12.765625l-3.21875 12.765625l-3.140625 0l-3.21875 -12.765625l0 12.765625l-3.03125 0zm18.169678 -6.046875q0 -1.546875 0.765625 -2.984375q0.765625 -1.453125 2.15625 -2.21875q1.40625 -0.765625 3.125 -0.765625q2.671875 0 4.375 1.734375q1.703125 1.734375 1.703125 4.375q0 2.671875 -1.71875 4.421875q-1.71875 1.75 -4.328125 1.75q-1.625 0 -3.09375 -0.71875q-1.453125 -0.734375 -2.21875 -2.140625q-0.765625 -1.421875 -0.765625 -3.453125zm3.1875 0.171875q0 1.75 0.828125 2.6875q0.828125 0.921875 2.046875 0.921875q1.21875 0 2.03125 -0.921875q0.828125 -0.9375 0.828125 -2.703125q0 -1.734375 -0.828125 -2.65625q-0.8125 -0.9375 -2.03125 -0.9375q-1.21875 0 -2.046875 0.9375q-0.828125 0.921875 -0.828125 2.671875zm22.151855 5.875l-2.890625 0l0 -1.71875q-0.71875 1.0 -1.703125 1.5q-0.96875 0.484375 -1.96875 0.484375q-2.03125 0 -3.484375 -1.625q-1.4375 -1.640625 -1.4375 -4.5625q0 -2.984375 1.40625 -4.53125q1.40625 -1.5625 3.5625 -1.5625q1.96875 0 3.40625 1.640625l0 -5.84375l3.109375 0l0 16.21875zm-8.296875 -6.125q0 1.875 0.515625 2.71875q0.75 1.21875 2.09375 1.21875q1.078125 0 1.828125 -0.90625q0.75 -0.921875 0.75 -2.734375q0 -2.03125 -0.734375 -2.921875q-0.71875 -0.890625 -1.859375 -0.890625q-1.109375 0 -1.859375 0.890625q-0.734375 0.875 -0.734375 2.625zm18.16742 2.390625l3.09375 0.515625q-0.59375 1.703125 -1.890625 2.59375q-1.28125 0.890625 -3.21875 0.890625q-3.0625 0 -4.546875 -2.0q-1.15625 -1.609375 -1.15625 -4.046875q0 -2.921875 1.515625 -4.578125q1.53125 -1.65625 3.875 -1.65625q2.625 0 4.140625 1.734375q1.515625 1.734375 1.4375 5.296875l-7.78125 0q0.03125 1.390625 0.75 2.15625q0.71875 0.765625 1.796875 0.765625q0.71875 0 1.21875 -0.390625q0.5 -0.40625 0.765625 -1.28125zm0.171875 -3.140625q-0.03125 -1.359375 -0.703125 -2.0625q-0.65625 -0.703125 -1.609375 -0.703125q-1.015625 0 -1.6875 0.75q-0.65625 0.734375 -0.65625 2.015625l4.65625 0zm5.615967 6.875l0 -16.21875l3.109375 0l0 16.21875l-3.109375 0z" fill-rule="nonzero"/><path fill="#d9d2e9" d="m236.28 369.22964l0 0c0 -29.640717 36.64215 -53.66928 81.8425 -53.66928l0 0c45.20038 0 81.84253 24.028564 81.84253 53.66928l0 0c0 29.640747 -36.64215 53.66931 -81.84253 53.66931l0 0c-45.200348 0 -81.8425 -24.028564 -81.8425 -53.66931z" fill-rule="evenodd"/><path stroke="#000000" stroke-width="1.0" stroke-linejoin="round" stroke-linecap="butt" d="m236.28 369.22964l0 0c0 -29.640717 36.64215 -53.66928 81.8425 -53.66928l0 0c45.20038 0 81.84253 24.028564 81.84253 53.66928l0 0c0 29.640747 -36.64215 53.66931 -81.84253 53.66931l0 0c-45.200348 0 -81.8425 -24.028564 -81.8425 -53.66931z" fill-rule="evenodd"/><path fill="#000000" d="m299.26697 371.85278l1.65625 -0.140625q0.125 1.0 0.546875 1.640625q0.4375 0.640625 1.34375 1.046875q0.921875 0.390625 2.0625 0.390625q1.0 0 1.78125 -0.296875q0.78125 -0.296875 1.15625 -0.8125q0.375 -0.53125 0.375 -1.15625q0 -0.625 -0.375 -1.09375q-0.359375 -0.46875 -1.1875 -0.796875q-0.546875 -0.203125 -2.390625 -0.640625q-1.828125 -0.453125 -2.5625 -0.84375q-0.96875 -0.5 -1.4375 -1.234375q-0.46875 -0.75 -0.46875 -1.671875q0 -1.0 0.578125 -1.875q0.578125 -0.890625 1.671875 -1.34375q1.109375 -0.453125 2.453125 -0.453125q1.484375 0 2.609375 0.484375q1.140625 0.46875 1.75 1.40625q0.609375 0.921875 0.65625 2.09375l-1.6875 0.125q-0.140625 -1.265625 -0.9375 -1.90625q-0.78125 -0.65625 -2.3125 -0.65625q-1.609375 0 -2.34375 0.59375q-0.734375 0.59375 -0.734375 1.421875q0 0.71875 0.53125 1.171875q0.5 0.46875 2.65625 0.96875q2.15625 0.484375 2.953125 0.84375q1.171875 0.53125 1.71875 1.359375q0.5625 0.828125 0.5625 1.90625q0 1.0625 -0.609375 2.015625q-0.609375 0.9375 -1.75 1.46875q-1.140625 0.515625 -2.578125 0.515625q-1.8125 0 -3.046875 -0.53125q-1.21875 -0.53125 -1.921875 -1.59375q-0.6875 -1.0625 -0.71875 -2.40625zm16.412323 2.828125l0.234375 1.453125q-0.6875 0.140625 -1.234375 0.140625q-0.890625 0 -1.390625 -0.28125q-0.484375 -0.28125 -0.6875 -0.734375q-0.203125 -0.46875 -0.203125 -1.9375l0 -5.578125l-1.203125 0l0 -1.265625l1.203125 0l0 -2.390625l1.625 -0.984375l0 3.375l1.65625 0l0 1.265625l-1.65625 0l0 5.671875q0 0.6875 0.078125 0.890625q0.09375 0.203125 0.28125 0.328125q0.203125 0.109375 0.578125 0.109375q0.265625 0 0.71875 -0.0625zm7.917694 0.28125q-0.921875 0.765625 -1.765625 1.09375q-0.828125 0.3125 -1.796875 0.3125q-1.59375 0 -2.453125 -0.78125q-0.859375 -0.78125 -0.859375 -1.984375q0 -0.71875 0.328125 -1.296875q0.328125 -0.59375 0.84375 -0.9375q0.53125 -0.359375 1.1875 -0.546875q0.46875 -0.125 1.453125 -0.25q1.984375 -0.234375 2.921875 -0.5625q0.015625 -0.34375 0.015625 -0.421875q0 -1.0 -0.46875 -1.421875q-0.625 -0.546875 -1.875 -0.546875q-1.15625 0 -1.703125 0.40625q-0.546875 0.40625 -0.8125 1.421875l-1.609375 -0.21875q0.21875 -1.015625 0.71875 -1.640625q0.5 -0.640625 1.453125 -0.984375q0.953125 -0.34375 2.1875 -0.34375q1.25 0 2.015625 0.296875q0.78125 0.28125 1.140625 0.734375q0.375 0.4375 0.515625 1.109375q0.078125 0.421875 0.078125 1.515625l0 2.1875q0 2.28125 0.109375 2.890625q0.109375 0.59375 0.40625 1.15625l-1.703125 0q-0.265625 -0.515625 -0.328125 -1.1875zm-0.140625 -3.671875q-0.890625 0.375 -2.671875 0.625q-1.015625 0.140625 -1.4375 0.328125q-0.421875 0.1875 -0.65625 0.53125q-0.21875 0.34375 -0.21875 0.78125q0 0.65625 0.5 1.09375q0.5 0.4375 1.453125 0.4375q0.9375 0 1.671875 -0.40625q0.75 -0.421875 1.09375 -1.140625q0.265625 -0.5625 0.265625 -1.640625l0 -0.609375zm4.188202 4.859375l0 -9.671875l1.46875 0l0 1.46875q0.5625 -1.03125 1.03125 -1.359375q0.484375 -0.328125 1.0625 -0.328125q0.828125 0 1.6875 0.53125l-0.5625 1.515625q-0.609375 -0.359375 -1.203125 -0.359375q-0.546875 0 -0.96875 0.328125q-0.421875 0.328125 -0.609375 0.890625q-0.28125 0.875 -0.28125 1.921875l0 5.0625l-1.625 0zm9.806427 -1.46875l0.234375 1.453125q-0.6875 0.140625 -1.234375 0.140625q-0.890625 0 -1.390625 -0.28125q-0.484375 -0.28125 -0.6875 -0.734375q-0.203125 -0.46875 -0.203125 -1.9375l0 -5.578125l-1.203125 0l0 -1.265625l1.203125 0l0 -2.390625l1.625 -0.984375l0 3.375l1.65625 0l0 1.265625l-1.65625 0l0 5.671875q0 0.6875 0.078125 0.890625q0.09375 0.203125 0.28125 0.328125q0.203125 0.109375 0.578125 0.109375q0.265625 0 0.71875 -0.0625z" fill-rule="nonzero"/><path fill="#ffffff" d="m764.59717 682.828l0 0c0 -7.6898804 6.2338867 -13.923767 13.923767 -13.923767l133.56982 0c3.69281 0 7.234375 1.46698 9.845581 4.078186c2.611206 2.611206 4.078125 6.152771 4.078125 9.845581l0 17.412354c0 7.6898804 -6.2338257 13.923706 -13.923706 13.923706l-133.56982 0c-7.6898804 0 -13.923767 -6.2338257 -13.923767 -13.923706z" fill-rule="evenodd"/><path stroke="#0000ff" stroke-width="2.0" stroke-linejoin="round" stroke-linecap="butt" d="m764.59717 682.828l0 0c0 -7.6898804 6.2338867 -13.923767 13.923767 -13.923767l133.56982 0c3.69281 0 7.234375 1.46698 9.845581 4.078186c2.611206 2.611206 4.078125 6.152771 4.078125 9.845581l0 17.412354c0 7.6898804 -6.2338257 13.923706 -13.923706 13.923706l-133.56982 0c-7.6898804 0 -13.923767 -6.2338257 -13.923767 -13.923706z" fill-rule="evenodd"/><path fill="#0000ff" d="m780.34924 681.1492l3.046875 0q0.90625 0 1.34375 0.078125q0.453125 0.0625 0.796875 0.3125q0.359375 0.234375 0.59375 0.640625q0.234375 0.390625 0.234375 0.890625q0 0.53125 -0.296875 0.984375q-0.28125 0.4375 -0.78125 0.671875q0.703125 0.203125 1.078125 0.6875q0.375 0.484375 0.375 1.140625q0 0.53125 -0.25 1.03125q-0.234375 0.484375 -0.65625 0.78125q-0.421875 0.28125 -1.03125 0.359375q-0.390625 0.03125 -1.859375 0.046875l-2.59375 0l0 -7.625zm1.546875 1.265625l0 1.765625l1.0 0q0.90625 0 1.125 -0.03125q0.390625 -0.046875 0.609375 -0.265625q0.234375 -0.234375 0.234375 -0.59375q0 -0.359375 -0.203125 -0.578125q-0.1875 -0.21875 -0.578125 -0.265625q-0.21875 -0.03125 -1.3125 -0.03125l-0.875 0zm0 3.03125l0 2.046875l1.421875 0q0.828125 0 1.046875 -0.046875q0.34375 -0.0625 0.5625 -0.296875q0.21875 -0.25 0.21875 -0.65625q0 -0.34375 -0.171875 -0.578125q-0.15625 -0.25 -0.484375 -0.359375q-0.3125 -0.109375 -1.359375 -0.109375l-1.234375 0zm6.1331177 3.328125l0 -7.625l1.46875 0l0 7.625l-1.46875 0zm6.6012573 0l0 -0.828125q-0.3125 0.4375 -0.8125 0.703125q-0.484375 0.25 -1.015625 0.25q-0.5625 0 -1.015625 -0.234375q-0.4375 -0.25 -0.640625 -0.6875q-0.1875 -0.453125 -0.1875 -1.234375l0 -3.5l1.46875 0l0 2.546875q0 1.15625 0.078125 1.421875q0.078125 0.265625 0.28125 0.421875q0.21875 0.15625 0.546875 0.15625q0.375 0 0.671875 -0.203125q0.296875 -0.21875 0.40625 -0.515625q0.109375 -0.3125 0.109375 -1.484375l0 -2.34375l1.46875 0l0 5.53125l-1.359375 0zm6.0717773 -1.765625l1.453125 0.25q-0.28125 0.796875 -0.890625 1.21875q-0.609375 0.421875 -1.515625 0.421875q-1.4375 0 -2.125 -0.9375q-0.546875 -0.765625 -0.546875 -1.90625q0 -1.375 0.71875 -2.15625q0.71875 -0.78125 1.8125 -0.78125q1.234375 0 1.9375 0.828125q0.71875 0.8125 0.6875 2.484375l-3.65625 0q0.015625 0.65625 0.34375 1.015625q0.34375 0.359375 0.84375 0.359375q0.34375 0 0.578125 -0.1875q0.234375 -0.1875 0.359375 -0.609375zm0.078125 -1.46875q-0.015625 -0.640625 -0.328125 -0.96875q-0.3125 -0.328125 -0.765625 -0.328125q-0.46875 0 -0.78125 0.34375q-0.3125 0.359375 -0.3125 0.953125l2.1875 0zm5.496521 -2.296875l1.34375 0l0 0.765625q0.71875 -0.890625 1.71875 -0.890625q0.53125 0 0.921875 0.21875q0.390625 0.21875 0.640625 0.671875q0.375 -0.453125 0.796875 -0.671875q0.421875 -0.21875 0.890625 -0.21875q0.609375 0 1.03125 0.25q0.421875 0.25 0.625 0.734375q0.15625 0.34375 0.15625 1.140625l0 3.53125l-1.453125 0l0 -3.15625q0 -0.828125 -0.15625 -1.0625q-0.203125 -0.3125 -0.625 -0.3125q-0.3125 0 -0.578125 0.1875q-0.265625 0.1875 -0.390625 0.546875q-0.125 0.359375 -0.125 1.140625l0 2.65625l-1.453125 0l0 -3.03125q0 -0.796875 -0.078125 -1.03125q-0.078125 -0.234375 -0.25 -0.34375q-0.15625 -0.125 -0.4375 -0.125q-0.34375 0 -0.609375 0.1875q-0.265625 0.171875 -0.390625 0.515625q-0.109375 0.34375 -0.109375 1.140625l0 2.6875l-1.46875 0l0 -5.53125zm10.678223 1.6875l-1.328125 -0.234375q0.21875 -0.796875 0.765625 -1.1875q0.546875 -0.390625 1.625 -0.390625q0.984375 0 1.453125 0.234375q0.484375 0.234375 0.671875 0.59375q0.203125 0.359375 0.203125 1.3125l-0.015625 1.703125q0 0.71875 0.0625 1.078125q0.078125 0.34375 0.265625 0.734375l-1.4375 0q-0.0625 -0.140625 -0.140625 -0.4375q-0.046875 -0.125 -0.0625 -0.171875q-0.375 0.375 -0.796875 0.5625q-0.421875 0.171875 -0.90625 0.171875q-0.859375 0 -1.359375 -0.453125q-0.484375 -0.46875 -0.484375 -1.1875q0 -0.46875 0.21875 -0.828125q0.234375 -0.359375 0.640625 -0.546875q0.40625 -0.203125 1.15625 -0.359375q1.03125 -0.1875 1.421875 -0.359375l0 -0.140625q0 -0.421875 -0.21875 -0.59375q-0.203125 -0.1875 -0.78125 -0.1875q-0.375 0 -0.59375 0.15625q-0.21875 0.15625 -0.359375 0.53125zm1.953125 1.1875q-0.28125 0.09375 -0.890625 0.234375q-0.609375 0.125 -0.796875 0.25q-0.28125 0.203125 -0.28125 0.515625q0 0.296875 0.21875 0.53125q0.234375 0.21875 0.59375 0.21875q0.390625 0 0.75 -0.265625q0.265625 -0.1875 0.34375 -0.484375q0.0625 -0.1875 0.0625 -0.703125l0 -0.296875zm4.2858887 2.65625l-1.46875 0l0 -5.53125l1.359375 0l0 0.796875q0.34375 -0.5625 0.625 -0.734375q0.28125 -0.1875 0.625 -0.1875q0.5 0 0.96875 0.28125l-0.453125 1.28125q-0.375 -0.25 -0.6875 -0.25q-0.3125 0 -0.53125 0.171875q-0.203125 0.171875 -0.328125 0.625q-0.109375 0.4375 -0.109375 1.84375l0 1.703125zm2.6938477 0l0 -7.625l1.453125 0l0 4.046875l1.71875 -1.953125l1.796875 0l-1.890625 2.03125l2.03125 3.5l-1.578125 0l-1.390625 -2.484375l-0.6875 0.71875l0 1.765625l-1.453125 0zm5.9733887 -6.28125l0 -1.34375l1.46875 0l0 1.34375l-1.46875 0zm0 6.28125l0 -5.53125l1.46875 0l0 5.53125l-1.46875 0zm7.9918823 0l-1.46875 0l0 -2.8125q0 -0.90625 -0.09375 -1.15625q-0.09375 -0.265625 -0.3125 -0.40625q-0.203125 -0.15625 -0.5 -0.15625q-0.375 0 -0.6875 0.21875q-0.296875 0.203125 -0.40625 0.546875q-0.109375 0.34375 -0.109375 1.265625l0 2.5l-1.46875 0l0 -5.53125l1.359375 0l0 0.8125q0.71875 -0.9375 1.828125 -0.9375q0.484375 0 0.875 0.1875q0.40625 0.171875 0.609375 0.4375q0.203125 0.265625 0.28125 0.609375q0.09375 0.34375 0.09375 0.984375l0 3.4375zm1.3374023 0.359375l1.671875 0.203125q0.046875 0.296875 0.203125 0.40625q0.203125 0.15625 0.640625 0.15625q0.578125 0 0.859375 -0.171875q0.203125 -0.109375 0.296875 -0.375q0.0625 -0.171875 0.0625 -0.671875l0 -0.796875q-0.65625 0.890625 -1.65625 0.890625q-1.109375 0 -1.75 -0.9375q-0.515625 -0.75 -0.515625 -1.859375q0 -1.390625 0.671875 -2.125q0.671875 -0.734375 1.65625 -0.734375q1.03125 0 1.6875 0.90625l0 -0.78125l1.375 0l0 4.96875q0 0.96875 -0.171875 1.453125q-0.15625 0.484375 -0.453125 0.765625q-0.28125 0.28125 -0.765625 0.4375q-0.484375 0.15625 -1.234375 0.15625q-1.40625 0 -2.0 -0.484375q-0.578125 -0.484375 -0.578125 -1.21875q0 -0.078125 0 -0.1875zm1.3125 -3.234375q0 0.875 0.34375 1.28125q0.34375 0.40625 0.828125 0.40625q0.546875 0 0.90625 -0.40625q0.375 -0.421875 0.375 -1.25q0 -0.859375 -0.359375 -1.265625q-0.34375 -0.421875 -0.890625 -0.421875q-0.515625 0 -0.859375 0.40625q-0.34375 0.40625 -0.34375 1.25zm4.8217773 1.296875l1.46875 -0.21875q0.09375 0.421875 0.375 0.640625q0.296875 0.21875 0.796875 0.21875q0.578125 0 0.859375 -0.203125q0.1875 -0.140625 0.1875 -0.390625q0 -0.171875 -0.09375 -0.28125q-0.109375 -0.09375 -0.5 -0.1875q-1.765625 -0.390625 -2.234375 -0.703125q-0.65625 -0.453125 -0.65625 -1.25q0 -0.71875 0.5625 -1.203125q0.578125 -0.5 1.765625 -0.5q1.125 0 1.671875 0.375q0.5625 0.375 0.765625 1.09375l-1.375 0.25q-0.09375 -0.3125 -0.34375 -0.484375q-0.234375 -0.171875 -0.703125 -0.171875q-0.5625 0 -0.8125 0.15625q-0.171875 0.109375 -0.171875 0.296875q0 0.15625 0.140625 0.265625q0.203125 0.140625 1.359375 0.40625q1.171875 0.265625 1.640625 0.65625q0.453125 0.390625 0.453125 1.078125q0 0.765625 -0.640625 1.3125q-0.625 0.546875 -1.875 0.546875q-1.125 0 -1.78125 -0.453125q-0.65625 -0.46875 -0.859375 -1.25zm9.402771 -4.703125l0 -1.34375l1.46875 0l0 1.34375l-1.46875 0zm0 6.28125l0 -5.53125l1.46875 0l0 5.53125l-1.46875 0zm7.9918823 0l-1.46875 0l0 -2.8125q0 -0.90625 -0.09375 -1.15625q-0.09375 -0.265625 -0.3125 -0.40625q-0.203125 -0.15625 -0.5 -0.15625q-0.375 0 -0.6875 0.21875q-0.296875 0.203125 -0.40625 0.546875q-0.109375 0.34375 -0.109375 1.265625l0 2.5l-1.46875 0l0 -5.53125l1.359375 0l0 0.8125q0.71875 -0.9375 1.828125 -0.9375q0.484375 0 0.875 0.1875q0.40625 0.171875 0.609375 0.4375q0.203125 0.265625 0.28125 0.609375q0.09375 0.34375 0.09375 0.984375l0 3.4375zm6.5405273 0l-1.359375 0l0 -0.8125q-0.328125 0.46875 -0.796875 0.703125q-0.453125 0.234375 -0.921875 0.234375q-0.953125 0 -1.640625 -0.765625q-0.671875 -0.765625 -0.671875 -2.140625q0 -1.40625 0.65625 -2.140625q0.671875 -0.734375 1.671875 -0.734375q0.921875 0 1.609375 0.78125l0 -2.75l1.453125 0l0 7.625zm-3.890625 -2.875q0 0.875 0.234375 1.265625q0.359375 0.578125 0.984375 0.578125q0.515625 0 0.859375 -0.421875q0.359375 -0.4375 0.359375 -1.28125q0 -0.953125 -0.34375 -1.375q-0.34375 -0.421875 -0.875 -0.421875q-0.515625 0 -0.875 0.421875q-0.34375 0.40625 -0.34375 1.234375zm5.3373413 -3.40625l0 -1.34375l1.46875 0l0 1.34375l-1.46875 0zm0 6.28125l0 -5.53125l1.46875 0l0 5.53125l-1.46875 0zm7.7731934 -3.890625l-1.4375 0.265625q-0.078125 -0.4375 -0.34375 -0.65625q-0.25 -0.21875 -0.65625 -0.21875q-0.546875 0 -0.875 0.375q-0.3125 0.375 -0.3125 1.265625q0 0.984375 0.328125 1.390625q0.328125 0.40625 0.875 0.40625q0.421875 0 0.6875 -0.234375q0.265625 -0.25 0.375 -0.828125l1.4375 0.25q-0.21875 0.984375 -0.859375 1.5q-0.640625 0.5 -1.703125 0.5q-1.203125 0 -1.9375 -0.765625q-0.71875 -0.765625 -0.71875 -2.109375q0 -1.375 0.71875 -2.140625q0.734375 -0.765625 1.96875 -0.765625q1.0 0 1.59375 0.4375q0.609375 0.4375 0.859375 1.328125zm2.2077026 0.046875l-1.328125 -0.234375q0.21875 -0.796875 0.765625 -1.1875q0.546875 -0.390625 1.625 -0.390625q0.984375 0 1.453125 0.234375q0.484375 0.234375 0.671875 0.59375q0.203125 0.359375 0.203125 1.3125l-0.015625 1.703125q0 0.71875 0.0625 1.078125q0.078125 0.34375 0.265625 0.734375l-1.4375 0q-0.0625 -0.140625 -0.140625 -0.4375q-0.046875 -0.125 -0.0625 -0.171875q-0.375 0.375 -0.796875 0.5625q-0.421875 0.171875 -0.90625 0.171875q-0.859375 0 -1.359375 -0.453125q-0.484375 -0.46875 -0.484375 -1.1875q0 -0.46875 0.21875 -0.828125q0.234375 -0.359375 0.640625 -0.546875q0.40625 -0.203125 1.15625 -0.359375q1.03125 -0.1875 1.421875 -0.359375l0 -0.140625q0 -0.421875 -0.21875 -0.59375q-0.203125 -0.1875 -0.78125 -0.1875q-0.375 0 -0.59375 0.15625q-0.21875 0.15625 -0.359375 0.53125zm1.953125 1.1875q-0.28125 0.09375 -0.890625 0.234375q-0.609375 0.125 -0.796875 0.25q-0.28125 0.203125 -0.28125 0.515625q0 0.296875 0.21875 0.53125q0.234375 0.21875 0.59375 0.21875q0.390625 0 0.75 -0.265625q0.265625 -0.1875 0.34375 -0.484375q0.0625 -0.1875 0.0625 -0.703125l0 -0.296875zm5.4108887 -2.875l0 1.171875l-1.0 0l0 2.21875q0 0.6875 0.03125 0.796875q0.03125 0.109375 0.125 0.1875q0.109375 0.0625 0.25 0.0625q0.203125 0 0.59375 -0.140625l0.125 1.140625q-0.515625 0.21875 -1.15625 0.21875q-0.390625 0 -0.71875 -0.125q-0.3125 -0.140625 -0.46875 -0.34375q-0.140625 -0.21875 -0.203125 -0.578125q-0.046875 -0.25 -0.046875 -1.03125l0 -2.40625l-0.671875 0l0 -1.171875l0.671875 0l0 -1.09375l1.46875 -0.859375l0 1.953125l1.0 0zm4.22052 3.765625l1.453125 0.25q-0.28125 0.796875 -0.890625 1.21875q-0.609375 0.421875 -1.515625 0.421875q-1.4375 0 -2.125 -0.9375q-0.546875 -0.765625 -0.546875 -1.90625q0 -1.375 0.71875 -2.15625q0.71875 -0.78125 1.8125 -0.78125q1.234375 0 1.9375 0.828125q0.71875 0.8125 0.6875 2.484375l-3.65625 0q0.015625 0.65625 0.34375 1.015625q0.34375 0.359375 0.84375 0.359375q0.34375 0 0.578125 -0.1875q0.234375 -0.1875 0.359375 -0.609375zm0.078125 -1.46875q-0.015625 -0.640625 -0.328125 -0.96875q-0.3125 -0.328125 -0.765625 -0.328125q-0.46875 0 -0.78125 0.34375q-0.3125 0.359375 -0.3125 0.953125l2.1875 0zm2.1295776 1.65625l1.46875 -0.21875q0.09375 0.421875 0.375 0.640625q0.296875 0.21875 0.796875 0.21875q0.578125 0 0.859375 -0.203125q0.1875 -0.140625 0.1875 -0.390625q0 -0.171875 -0.09375 -0.28125q-0.109375 -0.09375 -0.5 -0.1875q-1.765625 -0.390625 -2.234375 -0.703125q-0.65625 -0.453125 -0.65625 -1.25q0 -0.71875 0.5625 -1.203125q0.578125 -0.5 1.765625 -0.5q1.125 0 1.671875 0.375q0.5625 0.375 0.765625 1.09375l-1.375 0.25q-0.09375 -0.3125 -0.34375 -0.484375q-0.234375 -0.171875 -0.703125 -0.171875q-0.5625 0 -0.8125 0.15625q-0.171875 0.109375 -0.171875 0.296875q0 0.15625 0.140625 0.265625q0.203125 0.140625 1.359375 0.40625q1.171875 0.265625 1.640625 0.65625q0.453125 0.390625 0.453125 1.078125q0 0.765625 -0.640625 1.3125q-0.625 0.546875 -1.875 0.546875q-1.125 0 -1.78125 -0.453125q-0.65625 -0.46875 -0.859375 -1.25zm10.496521 -2.265625l-1.328125 -0.234375q0.21875 -0.796875 0.765625 -1.1875q0.546875 -0.390625 1.625 -0.390625q0.984375 0 1.453125 0.234375q0.484375 0.234375 0.671875 0.59375q0.203125 0.359375 0.203125 1.3125l-0.015625 1.703125q0 0.71875 0.0625 1.078125q0.078125 0.34375 0.265625 0.734375l-1.4375 0q-0.0625 -0.140625 -0.140625 -0.4375q-0.046875 -0.125 -0.0625 -0.171875q-0.375 0.375 -0.796875 0.5625q-0.421875 0.171875 -0.90625 0.171875q-0.859375 0 -1.359375 -0.453125q-0.484375 -0.46875 -0.484375 -1.1875q0 -0.46875 0.21875 -0.828125q0.234375 -0.359375 0.640625 -0.546875q0.40625 -0.203125 1.15625 -0.359375q1.03125 -0.1875 1.421875 -0.359375l0 -0.140625q0 -0.421875 -0.21875 -0.59375q-0.203125 -0.1875 -0.78125 -0.1875q-0.375 0 -0.59375 0.15625q-0.21875 0.15625 -0.359375 0.53125zm1.953125 1.1875q-0.28125 0.09375 -0.890625 0.234375q-0.609375 0.125 -0.796875 0.25q-0.28125 0.203125 -0.28125 0.515625q0 0.296875 0.21875 0.53125q0.234375 0.21875 0.59375 0.21875q0.390625 0 0.75 -0.265625q0.265625 -0.1875 0.34375 -0.484375q0.0625 -0.1875 0.0625 -0.703125l0 -0.296875z" fill-rule="nonzero"/><path fill="#0000ff" d="m801.0758 696.2429l1.546875 0l1.328125 3.921875l1.28125 -3.921875l1.515625 0l-1.953125 5.328125l-0.34375 0.953125q-0.1875 0.484375 -0.375 0.734375q-0.171875 0.265625 -0.390625 0.421875q-0.21875 0.15625 -0.5625 0.25q-0.328125 0.09375 -0.734375 0.09375q-0.421875 0 -0.828125 -0.09375l-0.140625 -1.140625q0.34375 0.0625 0.625 0.0625q0.515625 0 0.75 -0.296875q0.25 -0.296875 0.375 -0.765625l-2.09375 -5.546875zm6.6140137 -0.75l0 -1.34375l1.46875 0l0 1.34375l-1.46875 0zm0 6.28125l0 -5.53125l1.46875 0l0 5.53125l-1.46875 0zm6.1637573 -1.765625l1.453125 0.25q-0.28125 0.796875 -0.890625 1.21875q-0.609375 0.421875 -1.515625 0.421875q-1.4375 0 -2.125 -0.9375q-0.546875 -0.765625 -0.546875 -1.90625q0 -1.375 0.71875 -2.15625q0.71875 -0.78125 1.8125 -0.78125q1.234375 0 1.9375 0.828125q0.71875 0.8125 0.6875 2.484375l-3.65625 0q0.015625 0.65625 0.34375 1.015625q0.34375 0.359375 0.84375 0.359375q0.34375 0 0.578125 -0.1875q0.234375 -0.1875 0.359375 -0.609375zm0.078125 -1.46875q-0.015625 -0.640625 -0.328125 -0.96875q-0.3125 -0.328125 -0.765625 -0.328125q-0.46875 0 -0.78125 0.34375q-0.3125 0.359375 -0.3125 0.953125l2.1875 0zm2.6452637 3.234375l0 -7.625l1.46875 0l0 7.625l-1.46875 0zm8.023132 0l-1.359375 0l0 -0.8125q-0.328125 0.46875 -0.796875 0.703125q-0.453125 0.234375 -0.921875 0.234375q-0.953125 0 -1.640625 -0.765625q-0.671875 -0.765625 -0.671875 -2.140625q0 -1.40625 0.65625 -2.140625q0.671875 -0.734375 1.671875 -0.734375q0.921875 0 1.609375 0.78125l0 -2.75l1.453125 0l0 7.625zm-3.890625 -2.875q0 0.875 0.234375 1.265625q0.359375 0.578125 0.984375 0.578125q0.515625 0 0.859375 -0.421875q0.359375 -0.4375 0.359375 -1.28125q0 -0.953125 -0.34375 -1.375q-0.34375 -0.421875 -0.875 -0.421875q-0.515625 0 -0.875 0.421875q-0.34375 0.40625 -0.34375 1.234375zm10.829285 -2.65625l0 1.171875l-1.0 0l0 2.21875q0 0.6875 0.03125 0.796875q0.03125 0.109375 0.125 0.1875q0.109375 0.0625 0.25 0.0625q0.203125 0 0.59375 -0.140625l0.125 1.140625q-0.515625 0.21875 -1.15625 0.21875q-0.390625 0 -0.71875 -0.125q-0.3125 -0.140625 -0.46875 -0.34375q-0.140625 -0.21875 -0.203125 -0.578125q-0.046875 -0.25 -0.046875 -1.03125l0 -2.40625l-0.671875 0l0 -1.171875l0.671875 0l0 -1.09375l1.46875 -0.859375l0 1.953125l1.0 0zm0.673584 2.6875q0 -0.71875 0.359375 -1.40625q0.359375 -0.6875 1.015625 -1.046875q0.671875 -0.359375 1.46875 -0.359375q1.265625 0 2.0625 0.828125q0.796875 0.8125 0.796875 2.046875q0 1.25 -0.8125 2.078125q-0.796875 0.828125 -2.03125 0.828125q-0.75 0 -1.453125 -0.34375q-0.6875 -0.34375 -1.046875 -1.0q-0.359375 -0.671875 -0.359375 -1.625zm1.5 0.078125q0 0.828125 0.390625 1.265625q0.390625 0.4375 0.96875 0.4375q0.5625 0 0.953125 -0.4375q0.390625 -0.4375 0.390625 -1.265625q0 -0.8125 -0.390625 -1.25q-0.390625 -0.4375 -0.953125 -0.4375q-0.578125 0 -0.96875 0.4375q-0.390625 0.4375 -0.390625 1.25zm10.84491 -2.765625l0 1.171875l-1.0 0l0 2.21875q0 0.6875 0.03125 0.796875q0.03125 0.109375 0.125 0.1875q0.109375 0.0625 0.25 0.0625q0.203125 0 0.59375 -0.140625l0.125 1.140625q-0.515625 0.21875 -1.15625 0.21875q-0.390625 0 -0.71875 -0.125q-0.3125 -0.140625 -0.46875 -0.34375q-0.140625 -0.21875 -0.203125 -0.578125q-0.046875 -0.25 -0.046875 -1.03125l0 -2.40625l-0.671875 0l0 -1.171875l0.671875 0l0 -1.09375l1.46875 -0.859375l0 1.953125l1.0 0zm2.47052 -2.09375l0 2.796875q0.703125 -0.828125 1.6875 -0.828125q0.515625 0 0.921875 0.1875q0.40625 0.1875 0.609375 0.484375q0.203125 0.296875 0.28125 0.65625q0.078125 0.34375 0.078125 1.09375l0 3.234375l-1.46875 0l0 -2.921875q0 -0.859375 -0.09375 -1.09375q-0.078125 -0.234375 -0.296875 -0.375q-0.203125 -0.140625 -0.515625 -0.140625q-0.359375 0 -0.65625 0.1875q-0.28125 0.171875 -0.421875 0.53125q-0.125 0.34375 -0.125 1.046875l0 2.765625l-1.453125 0l0 -7.625l1.453125 0zm8.259277 5.859375l1.453125 0.25q-0.28125 0.796875 -0.890625 1.21875q-0.609375 0.421875 -1.515625 0.421875q-1.4375 0 -2.125 -0.9375q-0.546875 -0.765625 -0.546875 -1.90625q0 -1.375 0.71875 -2.15625q0.71875 -0.78125 1.8125 -0.78125q1.234375 0 1.9375 0.828125q0.71875 0.8125 0.6875 2.484375l-3.65625 0q0.015625 0.65625 0.34375 1.015625q0.34375 0.359375 0.84375 0.359375q0.34375 0 0.578125 -0.1875q0.234375 -0.1875 0.359375 -0.609375zm0.078125 -1.46875q-0.015625 -0.640625 -0.328125 -0.96875q-0.3125 -0.328125 -0.765625 -0.328125q-0.46875 0 -0.78125 0.34375q-0.3125 0.359375 -0.3125 0.953125l2.1875 0zm5.621521 3.234375l0 -7.625l3.234375 0q1.234375 0 1.78125 0.203125q0.5625 0.203125 0.890625 0.734375q0.328125 0.515625 0.328125 1.203125q0 0.859375 -0.5 1.421875q-0.5 0.546875 -1.515625 0.703125q0.5 0.28125 0.828125 0.640625q0.328125 0.34375 0.875 1.234375l0.9375 1.484375l-1.84375 0l-1.109375 -1.65625q-0.59375 -0.890625 -0.8125 -1.125q-0.21875 -0.234375 -0.46875 -0.3125q-0.25 -0.09375 -0.765625 -0.09375l-0.3125 0l0 3.1875l-1.546875 0zm1.546875 -4.40625l1.125 0q1.109375 0 1.390625 -0.09375q0.28125 -0.09375 0.4375 -0.3125q0.15625 -0.234375 0.15625 -0.578125q0 -0.390625 -0.21875 -0.625q-0.203125 -0.234375 -0.578125 -0.296875q-0.1875 -0.03125 -1.125 -0.03125l-1.1875 0l0 1.9375zm7.8674316 4.40625l0 -6.34375l-2.265625 0l0 -1.28125l6.0625 0l0 1.28125l-2.265625 0l0 6.34375l-1.53125 0zm4.2853394 -3.765625q0 -1.171875 0.34375 -1.953125q0.265625 -0.59375 0.703125 -1.046875q0.453125 -0.46875 1.0 -0.6875q0.703125 -0.3125 1.640625 -0.3125q1.6875 0 2.6875 1.046875q1.015625 1.046875 1.015625 2.921875q0 1.84375 -1.0 2.890625q-1.0 1.03125 -2.6875 1.03125q-1.703125 0 -2.703125 -1.03125q-1.0 -1.046875 -1.0 -2.859375zm1.578125 -0.046875q0 1.28125 0.59375 1.953125q0.609375 0.671875 1.53125 0.671875q0.921875 0 1.5 -0.65625q0.59375 -0.671875 0.59375 -2.0q0 -1.3125 -0.578125 -1.953125q-0.5625 -0.640625 -1.515625 -0.640625q-0.953125 0 -1.546875 0.65625q-0.578125 0.640625 -0.578125 1.96875zm6.6325073 1.328125l1.5 -0.140625q0.125 0.75 0.53125 1.109375q0.421875 0.34375 1.125 0.34375q0.75 0 1.125 -0.3125q0.375 -0.3125 0.375 -0.734375q0 -0.265625 -0.15625 -0.453125q-0.15625 -0.1875 -0.5625 -0.328125q-0.265625 -0.09375 -1.234375 -0.34375q-1.234375 -0.296875 -1.734375 -0.75q-0.703125 -0.625 -0.703125 -1.53125q0 -0.59375 0.328125 -1.09375q0.34375 -0.515625 0.953125 -0.78125q0.625 -0.265625 1.5 -0.265625q1.4375 0 2.15625 0.640625q0.734375 0.625 0.78125 1.671875l-1.546875 0.078125q-0.09375 -0.59375 -0.421875 -0.84375q-0.328125 -0.265625 -0.984375 -0.265625q-0.671875 0 -1.046875 0.28125q-0.234375 0.171875 -0.234375 0.46875q0 0.265625 0.21875 0.46875q0.296875 0.234375 1.421875 0.5q1.125 0.265625 1.65625 0.5625q0.546875 0.28125 0.84375 0.78125q0.3125 0.484375 0.3125 1.203125q0 0.65625 -0.375 1.234375q-0.359375 0.5625 -1.03125 0.84375q-0.65625 0.28125 -1.65625 0.28125q-1.4375 0 -2.21875 -0.671875q-0.78125 -0.671875 -0.921875 -1.953125z" fill-rule="nonzero"/><path fill="#d9d2e9" d="m58.051235 97.39768l0 0c0 -10.706497 13.2340355 -19.385826 29.559055 -19.385826l0 0c16.325012 0 29.559052 8.679329 29.559052 19.385826l0 0c0 10.706497 -13.234039 19.385826 -29.559052 19.385826l0 0c-16.32502 0 -29.559055 -8.679329 -29.559055 -19.385826z" fill-rule="evenodd"/><path stroke="#000000" stroke-width="1.0" stroke-linejoin="round" stroke-linecap="butt" d="m58.051235 97.39768l0 0c0 -10.706497 13.2340355 -19.385826 29.559055 -19.385826l0 0c16.325012 0 29.559052 8.679329 29.559052 19.385826l0 0c0 10.706497 -13.234039 19.385826 -29.559052 19.385826l0 0c-16.32502 0 -29.559055 -8.679329 -29.559055 -19.385826z" fill-rule="evenodd"/><path fill="#000000" fill-opacity="0.0" d="m119.954124 78.011856l123.40157 0l0 38.771652l-123.40157 0z" fill-rule="evenodd"/><path fill="#000000" d="m131.54787 102.37186l-2.546875 -8.296875l1.453125 0l1.328125 4.78125l0.484375 1.78125q0.03125 -0.125 0.4375 -1.703125l1.3125 -4.859375l1.453125 0l1.234375 4.8125l0.421875 1.578125l0.46875 -1.59375l1.421875 -4.796875l1.375 0l-2.59375 8.296875l-1.46875 0l-1.3125 -4.96875l-0.328125 -1.421875l-1.671875 6.390625l-1.46875 0zm10.0234375 -9.84375l0 -1.609375l1.40625 0l0 1.609375l-1.40625 0zm0 9.84375l0 -8.296875l1.40625 0l0 8.296875l-1.40625 0zm3.8828125 0l0 -7.203125l-1.234375 0l0 -1.09375l1.234375 0l0 -0.890625q0 -0.828125 0.15625 -1.234375q0.203125 -0.546875 0.703125 -0.890625q0.515625 -0.34375 1.4375 -0.34375q0.59375 0 1.3125 0.140625l-0.203125 1.234375q-0.4375 -0.078125 -0.828125 -0.078125q-0.640625 0 -0.90625 0.28125q-0.265625 0.265625 -0.265625 1.015625l0 0.765625l1.609375 0l0 1.09375l-1.609375 0l0 7.203125l-1.40625 0zm4.1171875 -9.84375l0 -1.609375l1.40625 0l0 1.609375l-1.40625 0zm0 9.84375l0 -8.296875l1.40625 0l0 8.296875l-1.40625 0zm2.2421875 3.1875l0 -1.015625l9.328125 0l0 1.015625l-9.328125 0zm10.1953125 -3.1875l0 -8.296875l1.265625 0l0 1.25q0.484375 -0.875 0.890625 -1.15625q0.40625 -0.28125 0.90625 -0.28125q0.703125 0 1.4375 0.453125l-0.484375 1.296875q-0.515625 -0.296875 -1.03125 -0.296875q-0.453125 0 -0.828125 0.28125q-0.359375 0.265625 -0.515625 0.765625q-0.234375 0.75 -0.234375 1.640625l0 4.34375l-1.40625 0zm10.78125 0l0 -1.21875q-0.96875 1.40625 -2.640625 1.40625q-0.734375 0 -1.375 -0.28125q-0.625 -0.28125 -0.9375 -0.703125q-0.3125 -0.4375 -0.4375 -1.046875q-0.078125 -0.421875 -0.078125 -1.3125l0 -5.140625l1.40625 0l0 4.59375q0 1.109375 0.078125 1.484375q0.140625 0.5625 0.5625 0.875q0.4375 0.3125 1.0625 0.3125q0.640625 0 1.1875 -0.3125q0.5625 -0.328125 0.78125 -0.890625q0.234375 -0.5625 0.234375 -1.625l0 -4.4375l1.40625 0l0 8.296875l-1.25 0zm3.4609375 0l0 -8.296875l1.265625 0l0 1.171875q0.90625 -1.359375 2.640625 -1.359375q0.75 0 1.375 0.265625q0.625 0.265625 0.9375 0.703125q0.3125 0.4375 0.4375 1.046875q0.078125 0.390625 0.078125 1.359375l0 5.109375l-1.40625 0l0 -5.046875q0 -0.859375 -0.171875 -1.28125q-0.15625 -0.4375 -0.578125 -0.6875q-0.40625 -0.25 -0.96875 -0.25q-0.90625 0 -1.5625 0.578125q-0.640625 0.5625 -0.640625 2.15625l0 4.53125l-1.40625 0zm16.148438 0l0 -10.109375l-3.78125 0l0 -1.34375l9.078125 0l0 1.34375l-3.78125 0l0 10.109375l-1.515625 0zm10.3125 -1.03125q-0.78125 0.671875 -1.5 0.953125q-0.71875 0.265625 -1.546875 0.265625q-1.375 0 -2.109375 -0.671875q-0.734375 -0.671875 -0.734375 -1.703125q0 -0.609375 0.28125 -1.109375q0.28125 -0.515625 0.71875 -0.8125q0.453125 -0.3125 1.015625 -0.46875q0.421875 -0.109375 1.25 -0.203125q1.703125 -0.203125 2.515625 -0.484375q0 -0.296875 0 -0.375q0 -0.859375 -0.390625 -1.203125q-0.546875 -0.484375 -1.609375 -0.484375q-0.984375 0 -1.46875 0.359375q-0.46875 0.34375 -0.6875 1.21875l-1.375 -0.1875q0.1875 -0.875 0.609375 -1.421875q0.4375 -0.546875 1.25 -0.828125q0.8125 -0.296875 1.875 -0.296875q1.0625 0 1.71875 0.25q0.671875 0.25 0.984375 0.625q0.3125 0.375 0.4375 0.953125q0.078125 0.359375 0.078125 1.296875l0 1.875q0 1.96875 0.078125 2.484375q0.09375 0.515625 0.359375 1.0l-1.46875 0q-0.21875 -0.4375 -0.28125 -1.03125zm-0.109375 -3.140625q-0.765625 0.3125 -2.296875 0.53125q-0.875 0.125 -1.234375 0.28125q-0.359375 0.15625 -0.5625 0.46875q-0.1875 0.296875 -0.1875 0.65625q0 0.5625 0.421875 0.9375q0.4375 0.375 1.25 0.375q0.8125 0 1.4375 -0.34375q0.640625 -0.359375 0.9375 -0.984375q0.234375 -0.46875 0.234375 -1.40625l0 -0.515625zm3.0390625 1.6875l1.390625 -0.21875q0.109375 0.84375 0.640625 1.296875q0.546875 0.4375 1.5 0.4375q0.96875 0 1.4375 -0.390625q0.46875 -0.40625 0.46875 -0.9375q0 -0.46875 -0.40625 -0.75q-0.296875 -0.1875 -1.4375 -0.46875q-1.546875 -0.390625 -2.15625 -0.671875q-0.59375 -0.296875 -0.90625 -0.796875q-0.296875 -0.5 -0.296875 -1.109375q0 -0.5625 0.25 -1.03125q0.25 -0.46875 0.6875 -0.78125q0.328125 -0.25 0.890625 -0.40625q0.578125 -0.171875 1.21875 -0.171875q0.984375 0 1.71875 0.28125q0.734375 0.28125 1.078125 0.765625q0.359375 0.46875 0.5 1.28125l-1.375 0.1875q-0.09375 -0.640625 -0.546875 -1.0q-0.453125 -0.359375 -1.265625 -0.359375q-0.96875 0 -1.390625 0.328125q-0.40625 0.3125 -0.40625 0.734375q0 0.28125 0.171875 0.5q0.171875 0.21875 0.53125 0.375q0.21875 0.078125 1.25 0.359375q1.484375 0.390625 2.078125 0.65625q0.59375 0.25 0.921875 0.734375q0.34375 0.484375 0.34375 1.203125q0 0.703125 -0.421875 1.328125q-0.40625 0.609375 -1.1875 0.953125q-0.765625 0.34375 -1.734375 0.34375q-1.625 0 -2.46875 -0.671875q-0.84375 -0.671875 -1.078125 -2.0zm8.5625 2.484375l0 -11.453125l1.40625 0l0 6.53125l3.328125 -3.375l1.828125 0l-3.171875 3.078125l3.484375 5.21875l-1.734375 0l-2.734375 -4.25l-1.0 0.953125l0 3.296875l-1.40625 0z" fill-rule="nonzero"/><path fill="#d9d2e9" d="m344.2144 522.6798l0 0c0 -29.640747 36.64212 -53.66931 81.8425 -53.66931l0 0c45.20038 0 81.84253 24.028564 81.84253 53.66931l0 0c0 29.640686 -36.64215 53.66925 -81.84253 53.66925l0 0c-45.20038 0 -81.8425 -24.028564 -81.8425 -53.66925z" fill-rule="evenodd"/><path stroke="#000000" stroke-width="1.0" stroke-linejoin="round" stroke-linecap="butt" d="m344.2144 522.6798l0 0c0 -29.640747 36.64212 -53.66931 81.8425 -53.66931l0 0c45.20038 0 81.84253 24.028564 81.84253 53.66931l0 0c0 29.640686 -36.64215 53.66925 -81.84253 53.66925l0 0c-45.20038 0 -81.8425 -24.028564 -81.8425 -53.66925z" fill-rule="evenodd"/><path fill="#000000" d="m392.32983 529.5998l0 -13.359375l9.015625 0l0 1.578125l-7.25 0l0 4.140625l6.265625 0l0 1.578125l-6.265625 0l0 6.0625l-1.765625 0zm11.099121 -11.46875l0 -1.890625l1.640625 0l0 1.890625l-1.640625 0zm0 11.46875l0 -9.671875l1.640625 0l0 9.671875l-1.640625 0zm4.144806 0l0 -9.671875l1.46875 0l0 1.375q1.0625 -1.59375 3.078125 -1.59375q0.875 0 1.609375 0.3125q0.734375 0.3125 1.09375 0.828125q0.375 0.5 0.515625 1.203125q0.09375 0.453125 0.09375 1.59375l0 5.953125l-1.640625 0l0 -5.890625q0 -1.0 -0.203125 -1.484375q-0.1875 -0.5 -0.671875 -0.796875q-0.484375 -0.296875 -1.140625 -0.296875q-1.046875 0 -1.8125 0.671875q-0.75 0.65625 -0.75 2.515625l0 5.28125l-1.640625 0zm10.375732 -11.46875l0 -1.890625l1.640625 0l0 1.890625l-1.640625 0zm0 11.46875l0 -9.671875l1.640625 0l0 9.671875l-1.640625 0zm3.488556 -2.890625l1.625 -0.25q0.125 0.96875 0.75 1.5q0.625 0.515625 1.75 0.515625q1.125 0 1.671875 -0.453125q0.546875 -0.46875 0.546875 -1.09375q0 -0.546875 -0.484375 -0.875q-0.328125 -0.21875 -1.671875 -0.546875q-1.8125 -0.46875 -2.515625 -0.796875q-0.6875 -0.328125 -1.046875 -0.90625q-0.359375 -0.59375 -0.359375 -1.3125q0 -0.640625 0.296875 -1.1875q0.296875 -0.5625 0.8125 -0.921875q0.375 -0.28125 1.03125 -0.46875q0.671875 -0.203125 1.421875 -0.203125q1.140625 0 2.0 0.328125q0.859375 0.328125 1.265625 0.890625q0.421875 0.5625 0.578125 1.5l-1.609375 0.21875q-0.109375 -0.75 -0.640625 -1.171875q-0.515625 -0.421875 -1.46875 -0.421875q-1.140625 0 -1.625 0.375q-0.46875 0.375 -0.46875 0.875q0 0.3125 0.1875 0.578125q0.203125 0.265625 0.640625 0.4375q0.234375 0.09375 1.4375 0.421875q1.75 0.453125 2.4375 0.75q0.6875 0.296875 1.078125 0.859375q0.390625 0.5625 0.390625 1.40625q0 0.828125 -0.484375 1.546875q-0.46875 0.71875 -1.375 1.125q-0.90625 0.390625 -2.046875 0.390625q-1.875 0 -2.875 -0.78125q-0.984375 -0.78125 -1.25 -2.328125zm9.984375 2.890625l0 -13.359375l1.640625 0l0 4.796875q1.140625 -1.328125 2.890625 -1.328125q1.078125 0 1.859375 0.421875q0.796875 0.421875 1.140625 1.171875q0.34375 0.75 0.34375 2.171875l0 6.125l-1.640625 0l0 -6.125q0 -1.234375 -0.53125 -1.796875q-0.53125 -0.5625 -1.515625 -0.5625q-0.71875 0 -1.359375 0.390625q-0.640625 0.375 -0.921875 1.015625q-0.265625 0.640625 -0.265625 1.78125l0 5.296875l-1.640625 0zm17.000732 -3.109375l1.6875 0.203125q-0.40625 1.484375 -1.484375 2.3125q-1.078125 0.8125 -2.765625 0.8125q-2.125 0 -3.375 -1.296875q-1.234375 -1.3125 -1.234375 -3.671875q0 -2.453125 1.25 -3.796875q1.265625 -1.34375 3.265625 -1.34375q1.9375 0 3.15625 1.328125q1.234375 1.3125 1.234375 3.703125q0 0.15625 0 0.4375l-7.21875 0q0.09375 1.59375 0.90625 2.453125q0.8125 0.84375 2.015625 0.84375q0.90625 0 1.546875 -0.46875q0.640625 -0.484375 1.015625 -1.515625zm-5.390625 -2.65625l5.40625 0q-0.109375 -1.21875 -0.625 -1.828125q-0.78125 -0.953125 -2.03125 -0.953125q-1.125 0 -1.90625 0.765625q-0.765625 0.75 -0.84375 2.015625zm15.406952 5.765625l0 -1.21875q-0.90625 1.4375 -2.703125 1.4375q-1.15625 0 -2.125 -0.640625q-0.96875 -0.640625 -1.5 -1.78125q-0.53125 -1.140625 -0.53125 -2.625q0 -1.453125 0.484375 -2.625q0.484375 -1.1875 1.4375 -1.8125q0.96875 -0.625 2.171875 -0.625q0.875 0 1.546875 0.375q0.6875 0.359375 1.109375 0.953125l0 -4.796875l1.640625 0l0 13.359375l-1.53125 0zm-5.171875 -4.828125q0 1.859375 0.78125 2.78125q0.78125 0.921875 1.84375 0.921875q1.078125 0 1.828125 -0.875q0.75 -0.890625 0.75 -2.6875q0 -1.984375 -0.765625 -2.90625q-0.765625 -0.9375 -1.890625 -0.9375q-1.078125 0 -1.8125 0.890625q-0.734375 0.890625 -0.734375 2.8125z" fill-rule="nonzero"/><path fill="#d9d2e9" d="m399.96634 215.7769l0 0c0 -29.640732 36.64215 -53.669296 81.84253 -53.669296l0 0c45.200348 0 81.8425 24.028564 81.8425 53.669296l0 0c0 29.640732 -36.64215 53.669296 -81.8425 53.669296l0 0c-45.20038 0 -81.84253 -24.028564 -81.84253 -53.669296z" fill-rule="evenodd"/><path stroke="#000000" stroke-width="1.0" stroke-linejoin="round" stroke-linecap="butt" d="m399.96634 215.7769l0 0c0 -29.640732 36.64215 -53.669296 81.84253 -53.669296l0 0c45.200348 0 81.8425 24.028564 81.8425 53.669296l0 0c0 29.640732 -36.64215 53.669296 -81.8425 53.669296l0 0c-45.20038 0 -81.84253 -24.028564 -81.84253 -53.669296z" fill-rule="evenodd"/><path fill="#000000" d="m445.59497 218.0094l1.765625 0.453125q-0.5625 2.171875 -2.0 3.328125q-1.4375 1.140625 -3.53125 1.140625q-2.15625 0 -3.515625 -0.875q-1.34375 -0.890625 -2.0625 -2.546875q-0.703125 -1.671875 -0.703125 -3.59375q0 -2.078125 0.796875 -3.625q0.796875 -1.5625 2.265625 -2.359375q1.484375 -0.8125 3.25 -0.8125q2.0 0 3.359375 1.015625q1.375 1.015625 1.90625 2.875l-1.734375 0.40625q-0.46875 -1.453125 -1.359375 -2.109375q-0.875 -0.671875 -2.203125 -0.671875q-1.546875 0 -2.578125 0.734375q-1.03125 0.734375 -1.453125 1.984375q-0.421875 1.234375 -0.421875 2.5625q0 1.703125 0.5 2.96875q0.5 1.265625 1.546875 1.90625q1.046875 0.625 2.265625 0.625q1.484375 0 2.515625 -0.859375q1.03125 -0.859375 1.390625 -2.546875zm3.6917114 4.6875l0 -13.359375l1.640625 0l0 13.359375l-1.640625 0zm10.816681 -3.109375l1.6875 0.203125q-0.40625 1.484375 -1.484375 2.3125q-1.078125 0.8125 -2.765625 0.8125q-2.125 0 -3.375 -1.296875q-1.234375 -1.3125 -1.234375 -3.671875q0 -2.453125 1.25 -3.796875q1.265625 -1.34375 3.265625 -1.34375q1.9375 0 3.15625 1.328125q1.234375 1.3125 1.234375 3.703125q0 0.15625 0 0.4375l-7.21875 0q0.09375 1.59375 0.90625 2.453125q0.8125 0.84375 2.015625 0.84375q0.90625 0 1.546875 -0.46875q0.640625 -0.484375 1.015625 -1.515625zm-5.390625 -2.65625l5.40625 0q-0.109375 -1.21875 -0.625 -1.828125q-0.78125 -0.953125 -2.03125 -0.953125q-1.125 0 -1.90625 0.765625q-0.765625 0.75 -0.84375 2.015625zm15.453857 4.578125q-0.921875 0.765625 -1.765625 1.09375q-0.828125 0.3125 -1.796875 0.3125q-1.59375 0 -2.453125 -0.78125q-0.859375 -0.78125 -0.859375 -1.984375q0 -0.71875 0.328125 -1.296875q0.328125 -0.59375 0.84375 -0.9375q0.53125 -0.359375 1.1875 -0.546875q0.46875 -0.125 1.453125 -0.25q1.984375 -0.234375 2.921875 -0.5625q0.015625 -0.34375 0.015625 -0.421875q0 -1.0 -0.46875 -1.421875q-0.625 -0.546875 -1.875 -0.546875q-1.15625 0 -1.703125 0.40625q-0.546875 0.40625 -0.8125 1.421875l-1.609375 -0.21875q0.21875 -1.015625 0.71875 -1.640625q0.5 -0.640625 1.453125 -0.984375q0.953125 -0.34375 2.1875 -0.34375q1.25 0 2.015625 0.296875q0.78125 0.28125 1.140625 0.734375q0.375 0.4375 0.515625 1.109375q0.078125 0.421875 0.078125 1.515625l0 2.1875q0 2.28125 0.109375 2.890625q0.109375 0.59375 0.40625 1.15625l-1.703125 0q-0.265625 -0.515625 -0.328125 -1.1875zm-0.140625 -3.671875q-0.890625 0.375 -2.671875 0.625q-1.015625 0.140625 -1.4375 0.328125q-0.421875 0.1875 -0.65625 0.53125q-0.21875 0.34375 -0.21875 0.78125q0 0.65625 0.5 1.09375q0.5 0.4375 1.453125 0.4375q0.9375 0 1.671875 -0.40625q0.75 -0.421875 1.09375 -1.140625q0.265625 -0.5625 0.265625 -1.640625l0 -0.609375zm4.188202 4.859375l0 -9.671875l1.46875 0l0 1.46875q0.5625 -1.03125 1.03125 -1.359375q0.484375 -0.328125 1.0625 -0.328125q0.828125 0 1.6875 0.53125l-0.5625 1.515625q-0.609375 -0.359375 -1.203125 -0.359375q-0.546875 0 -0.96875 0.328125q-0.421875 0.328125 -0.609375 0.890625q-0.28125 0.875 -0.28125 1.921875l0 5.0625l-1.625 0zm4.712677 3.703125l0 -1.1875l10.859375 0l0 1.1875l-10.859375 0zm12.094482 -3.703125l0 -13.359375l4.609375 0q1.546875 0 2.375 0.203125q1.140625 0.25 1.953125 0.953125q1.0625 0.890625 1.578125 2.28125q0.53125 1.390625 0.53125 3.171875q0 1.515625 -0.359375 2.703125q-0.359375 1.171875 -0.921875 1.9375q-0.546875 0.765625 -1.203125 1.21875q-0.65625 0.4375 -1.59375 0.671875q-0.9375 0.21875 -2.140625 0.21875l-4.828125 0zm1.765625 -1.578125l2.859375 0q1.3125 0 2.0625 -0.234375q0.75 -0.25 1.203125 -0.703125q0.625 -0.625 0.96875 -1.6875q0.359375 -1.0625 0.359375 -2.578125q0 -2.09375 -0.6875 -3.21875q-0.6875 -1.125 -1.671875 -1.5q-0.703125 -0.28125 -2.28125 -0.28125l-2.8125 0l0 10.203125zm17.81668 0.390625q-0.921875 0.765625 -1.765625 1.09375q-0.828125 0.3125 -1.796875 0.3125q-1.59375 0 -2.453125 -0.78125q-0.859375 -0.78125 -0.859375 -1.984375q0 -0.71875 0.328125 -1.296875q0.328125 -0.59375 0.84375 -0.9375q0.53125 -0.359375 1.1875 -0.546875q0.46875 -0.125 1.453125 -0.25q1.984375 -0.234375 2.921875 -0.5625q0.015625 -0.34375 0.015625 -0.421875q0 -1.0 -0.46875 -1.421875q-0.625 -0.546875 -1.875 -0.546875q-1.15625 0 -1.703125 0.40625q-0.546875 0.40625 -0.8125 1.421875l-1.609375 -0.21875q0.21875 -1.015625 0.71875 -1.640625q0.5 -0.640625 1.453125 -0.984375q0.953125 -0.34375 2.1875 -0.34375q1.25 0 2.015625 0.296875q0.78125 0.28125 1.140625 0.734375q0.375 0.4375 0.515625 1.109375q0.078125 0.421875 0.078125 1.515625l0 2.1875q0 2.28125 0.109375 2.890625q0.109375 0.59375 0.40625 1.15625l-1.703125 0q-0.265625 -0.515625 -0.328125 -1.1875zm-0.140625 -3.671875q-0.890625 0.375 -2.671875 0.625q-1.015625 0.140625 -1.4375 0.328125q-0.421875 0.1875 -0.65625 0.53125q-0.21875 0.34375 -0.21875 0.78125q0 0.65625 0.5 1.09375q0.5 0.4375 1.453125 0.4375q0.9375 0 1.671875 -0.40625q0.75 -0.421875 1.09375 -1.140625q0.265625 -0.5625 0.265625 -1.640625l0 -0.609375zm7.7819824 3.390625l0.234375 1.453125q-0.6875 0.140625 -1.234375 0.140625q-0.890625 0 -1.390625 -0.28125q-0.484375 -0.28125 -0.6875 -0.734375q-0.203125 -0.46875 -0.203125 -1.9375l0 -5.578125l-1.203125 0l0 -1.265625l1.203125 0l0 -2.390625l1.625 -0.984375l0 3.375l1.65625 0l0 1.265625l-1.65625 0l0 5.671875q0 0.6875 0.078125 0.890625q0.09375 0.203125 0.28125 0.328125q0.203125 0.109375 0.578125 0.109375q0.265625 0 0.71875 -0.0625zm7.9176636 0.28125q-0.921875 0.765625 -1.765625 1.09375q-0.828125 0.3125 -1.796875 0.3125q-1.59375 0 -2.453125 -0.78125q-0.859375 -0.78125 -0.859375 -1.984375q0 -0.71875 0.328125 -1.296875q0.328125 -0.59375 0.84375 -0.9375q0.53125 -0.359375 1.1875 -0.546875q0.46875 -0.125 1.453125 -0.25q1.984375 -0.234375 2.921875 -0.5625q0.015625 -0.34375 0.015625 -0.421875q0 -1.0 -0.46875 -1.421875q-0.625 -0.546875 -1.875 -0.546875q-1.15625 0 -1.703125 0.40625q-0.546875 0.40625 -0.8125 1.421875l-1.609375 -0.21875q0.21875 -1.015625 0.71875 -1.640625q0.5 -0.640625 1.453125 -0.984375q0.953125 -0.34375 2.1875 -0.34375q1.25 0 2.015625 0.296875q0.78125 0.28125 1.140625 0.734375q0.375 0.4375 0.515625 1.109375q0.078125 0.421875 0.078125 1.515625l0 2.1875q0 2.28125 0.109375 2.890625q0.109375 0.59375 0.40625 1.15625l-1.703125 0q-0.265625 -0.515625 -0.328125 -1.1875zm-0.140625 -3.671875q-0.890625 0.375 -2.671875 0.625q-1.015625 0.140625 -1.4375 0.328125q-0.421875 0.1875 -0.65625 0.53125q-0.21875 0.34375 -0.21875 0.78125q0 0.65625 0.5 1.09375q0.5 0.4375 1.453125 0.4375q0.9375 0 1.671875 -0.40625q0.75 -0.421875 1.09375 -1.140625q0.265625 -0.5625 0.265625 -1.640625l0 -0.609375z" fill-rule="nonzero"/><path fill="#d9d2e9" d="m608.0582 327.43045l0 0c0 -38.407715 52.18878 -69.543304 116.566895 -69.543304l0 0c64.378174 0 116.566956 31.13559 116.566956 69.543304l0 0c0 38.407715 -52.18878 69.543304 -116.566956 69.543304l0 0c-64.37811 0 -116.566895 -31.13559 -116.566895 -69.543304z" fill-rule="evenodd"/><path stroke="#000000" stroke-width="1.0" stroke-linejoin="round" stroke-linecap="butt" d="m608.0582 327.43045l0 0c0 -38.407715 52.18878 -69.543304 116.566895 -69.543304l0 0c64.378174 0 116.566956 31.13559 116.566956 69.543304l0 0c0 38.407715 -52.18878 69.543304 -116.566956 69.543304l0 0c-64.37811 0 -116.566895 -31.13559 -116.566895 -69.543304z" fill-rule="evenodd"/><path fill="#000000" d="m655.5506 334.35043l0 -13.359375l4.609375 0q1.546875 0 2.375 0.203125q1.140625 0.25 1.953125 0.953125q1.0625 0.890625 1.578125 2.28125q0.53125 1.390625 0.53125 3.171875q0 1.515625 -0.359375 2.703125q-0.359375 1.171875 -0.921875 1.9375q-0.546875 0.765625 -1.203125 1.21875q-0.65625 0.4375 -1.59375 0.671875q-0.9375 0.21875 -2.140625 0.21875l-4.828125 0zm1.765625 -1.578125l2.859375 0q1.3125 0 2.0625 -0.234375q0.75 -0.25 1.203125 -0.703125q0.625 -0.625 0.96875 -1.6875q0.359375 -1.0625 0.359375 -2.578125q0 -2.09375 -0.6875 -3.21875q-0.6875 -1.125 -1.671875 -1.5q-0.703125 -0.28125 -2.28125 -0.28125l-2.8125 0l0 10.203125zm11.50415 -9.890625l0 -1.890625l1.640625 0l0 1.890625l-1.640625 0zm0 11.46875l0 -9.671875l1.640625 0l0 9.671875l-1.640625 0zm3.4885864 -2.890625l1.625 -0.25q0.125 0.96875 0.75 1.5q0.625 0.515625 1.75 0.515625q1.125 0 1.671875 -0.453125q0.546875 -0.46875 0.546875 -1.09375q0 -0.546875 -0.484375 -0.875q-0.328125 -0.21875 -1.671875 -0.546875q-1.8125 -0.46875 -2.515625 -0.796875q-0.6875 -0.328125 -1.046875 -0.90625q-0.359375 -0.59375 -0.359375 -1.3125q0 -0.640625 0.296875 -1.1875q0.296875 -0.5625 0.8125 -0.921875q0.375 -0.28125 1.03125 -0.46875q0.671875 -0.203125 1.421875 -0.203125q1.140625 0 2.0 0.328125q0.859375 0.328125 1.265625 0.890625q0.421875 0.5625 0.578125 1.5l-1.609375 0.21875q-0.109375 -0.75 -0.640625 -1.171875q-0.515625 -0.421875 -1.46875 -0.421875q-1.140625 0 -1.625 0.375q-0.46875 0.375 -0.46875 0.875q0 0.3125 0.1875 0.578125q0.203125 0.265625 0.640625 0.4375q0.234375 0.09375 1.4375 0.421875q1.75 0.453125 2.4375 0.75q0.6875 0.296875 1.078125 0.859375q0.390625 0.5625 0.390625 1.40625q0 0.828125 -0.484375 1.546875q-0.46875 0.71875 -1.375 1.125q-0.90625 0.390625 -2.046875 0.390625q-1.875 0 -2.875 -0.78125q-0.984375 -0.78125 -1.25 -2.328125zm16.296875 -0.65625l1.609375 0.21875q-0.265625 1.65625 -1.359375 2.609375q-1.078125 0.9375 -2.671875 0.9375q-1.984375 0 -3.1875 -1.296875q-1.203125 -1.296875 -1.203125 -3.71875q0 -1.578125 0.515625 -2.75q0.515625 -1.171875 1.578125 -1.75q1.0625 -0.59375 2.3125 -0.59375q1.578125 0 2.578125 0.796875q1.0 0.796875 1.28125 2.265625l-1.59375 0.234375q-0.234375 -0.96875 -0.8125 -1.453125q-0.578125 -0.5 -1.390625 -0.5q-1.234375 0 -2.015625 0.890625q-0.78125 0.890625 -0.78125 2.8125q0 1.953125 0.75 2.84375q0.75 0.875 1.953125 0.875q0.96875 0 1.609375 -0.59375q0.65625 -0.59375 0.828125 -1.828125zm2.40625 -1.296875q0 -2.6875 1.484375 -3.96875q1.25 -1.078125 3.046875 -1.078125q2.0 0 3.265625 1.3125q1.265625 1.296875 1.265625 3.609375q0 1.859375 -0.5625 2.9375q-0.5625 1.0625 -1.640625 1.65625q-1.0625 0.59375 -2.328125 0.59375q-2.03125 0 -3.28125 -1.296875q-1.25 -1.3125 -1.25 -3.765625zm1.6875 0q0 1.859375 0.796875 2.796875q0.8125 0.921875 2.046875 0.921875q1.21875 0 2.03125 -0.921875q0.8125 -0.9375 0.8125 -2.84375q0 -1.796875 -0.8125 -2.71875q-0.8125 -0.921875 -2.03125 -0.921875q-1.234375 0 -2.046875 0.921875q-0.796875 0.90625 -0.796875 2.765625zm9.297607 4.84375l0 -9.671875l1.46875 0l0 1.375q1.0625 -1.59375 3.078125 -1.59375q0.875 0 1.609375 0.3125q0.734375 0.3125 1.09375 0.828125q0.375 0.5 0.515625 1.203125q0.09375 0.453125 0.09375 1.59375l0 5.953125l-1.640625 0l0 -5.890625q0 -1.0 -0.203125 -1.484375q-0.1875 -0.5 -0.671875 -0.796875q-0.484375 -0.296875 -1.140625 -0.296875q-1.046875 0 -1.8125 0.671875q-0.75 0.65625 -0.75 2.515625l0 5.28125l-1.640625 0zm10.375732 0l0 -9.671875l1.46875 0l0 1.375q1.0625 -1.59375 3.078125 -1.59375q0.875 0 1.609375 0.3125q0.734375 0.3125 1.09375 0.828125q0.375 0.5 0.515625 1.203125q0.09375 0.453125 0.09375 1.59375l0 5.953125l-1.640625 0l0 -5.890625q0 -1.0 -0.203125 -1.484375q-0.1875 -0.5 -0.671875 -0.796875q-0.484375 -0.296875 -1.140625 -0.296875q-1.046875 0 -1.8125 0.671875q-0.75 0.65625 -0.75 2.515625l0 5.28125l-1.640625 0zm17.000671 -3.109375l1.6875 0.203125q-0.40625 1.484375 -1.484375 2.3125q-1.078125 0.8125 -2.765625 0.8125q-2.125 0 -3.375 -1.296875q-1.234375 -1.3125 -1.234375 -3.671875q0 -2.453125 1.25 -3.796875q1.265625 -1.34375 3.265625 -1.34375q1.9375 0 3.15625 1.328125q1.234375 1.3125 1.234375 3.703125q0 0.15625 0 0.4375l-7.21875 0q0.09375 1.59375 0.90625 2.453125q0.8125 0.84375 2.015625 0.84375q0.90625 0 1.546875 -0.46875q0.640625 -0.484375 1.015625 -1.515625zm-5.390625 -2.65625l5.40625 0q-0.109375 -1.21875 -0.625 -1.828125q-0.78125 -0.953125 -2.03125 -0.953125q-1.125 0 -1.90625 0.765625q-0.765625 0.75 -0.84375 2.015625zm15.453857 2.21875l1.609375 0.21875q-0.265625 1.65625 -1.359375 2.609375q-1.078125 0.9375 -2.671875 0.9375q-1.984375 0 -3.1875 -1.296875q-1.203125 -1.296875 -1.203125 -3.71875q0 -1.578125 0.515625 -2.75q0.515625 -1.171875 1.578125 -1.75q1.0625 -0.59375 2.3125 -0.59375q1.578125 0 2.578125 0.796875q1.0 0.796875 1.28125 2.265625l-1.59375 0.234375q-0.234375 -0.96875 -0.8125 -1.453125q-0.578125 -0.5 -1.390625 -0.5q-1.234375 0 -2.015625 0.890625q-0.78125 0.890625 -0.78125 2.8125q0 1.953125 0.75 2.84375q0.75 0.875 1.953125 0.875q0.96875 0 1.609375 -0.59375q0.65625 -0.59375 0.828125 -1.828125zm6.59375 2.078125l0.234375 1.453125q-0.6875 0.140625 -1.234375 0.140625q-0.890625 0 -1.390625 -0.28125q-0.484375 -0.28125 -0.6875 -0.734375q-0.203125 -0.46875 -0.203125 -1.9375l0 -5.578125l-1.203125 0l0 -1.265625l1.203125 0l0 -2.390625l1.625 -0.984375l0 3.375l1.65625 0l0 1.265625l-1.65625 0l0 5.671875q0 0.6875 0.078125 0.890625q0.09375 0.203125 0.28125 0.328125q0.203125 0.109375 0.578125 0.109375q0.265625 0 0.71875 -0.0625zm0.089538574 5.171875l0 -1.1875l10.859375 0l0 1.1875l-10.859375 0zm12.156982 -3.703125l0 -13.359375l1.765625 0l0 5.484375l6.9375 0l0 -5.484375l1.765625 0l0 13.359375l-1.765625 0l0 -6.296875l-6.9375 0l0 6.296875l-1.765625 0zm12.597961 -4.84375q0 -2.6875 1.484375 -3.96875q1.25 -1.078125 3.046875 -1.078125q2.0 0 3.265625 1.3125q1.265625 1.296875 1.265625 3.609375q0 1.859375 -0.5625 2.9375q-0.5625 1.0625 -1.640625 1.65625q-1.0625 0.59375 -2.328125 0.59375q-2.03125 0 -3.28125 -1.296875q-1.25 -1.3125 -1.25 -3.765625zm1.6875 0q0 1.859375 0.796875 2.796875q0.8125 0.921875 2.046875 0.921875q1.21875 0 2.03125 -0.921875q0.8125 -0.9375 0.8125 -2.84375q0 -1.796875 -0.8125 -2.71875q-0.8125 -0.921875 -2.03125 -0.921875q-1.234375 0 -2.046875 0.921875q-0.796875 0.90625 -0.796875 2.765625zm8.641357 1.953125l1.625 -0.25q0.125 0.96875 0.75 1.5q0.625 0.515625 1.75 0.515625q1.125 0 1.671875 -0.453125q0.546875 -0.46875 0.546875 -1.09375q0 -0.546875 -0.484375 -0.875q-0.328125 -0.21875 -1.671875 -0.546875q-1.8125 -0.46875 -2.515625 -0.796875q-0.6875 -0.328125 -1.046875 -0.90625q-0.359375 -0.59375 -0.359375 -1.3125q0 -0.640625 0.296875 -1.1875q0.296875 -0.5625 0.8125 -0.921875q0.375 -0.28125 1.03125 -0.46875q0.671875 -0.203125 1.421875 -0.203125q1.140625 0 2.0 0.328125q0.859375 0.328125 1.265625 0.890625q0.421875 0.5625 0.578125 1.5l-1.609375 0.21875q-0.109375 -0.75 -0.640625 -1.171875q-0.515625 -0.421875 -1.46875 -0.421875q-1.140625 0 -1.625 0.375q-0.46875 0.375 -0.46875 0.875q0 0.3125 0.1875 0.578125q0.203125 0.265625 0.640625 0.4375q0.234375 0.09375 1.4375 0.421875q1.75 0.453125 2.4375 0.75q0.6875 0.296875 1.078125 0.859375q0.390625 0.5625 0.390625 1.40625q0 0.828125 -0.484375 1.546875q-0.46875 0.71875 -1.375 1.125q-0.90625 0.390625 -2.046875 0.390625q-1.875 0 -2.875 -0.78125q-0.984375 -0.78125 -1.25 -2.328125zm13.5625 1.421875l0.234375 1.453125q-0.6875 0.140625 -1.234375 0.140625q-0.890625 0 -1.390625 -0.28125q-0.484375 -0.28125 -0.6875 -0.734375q-0.203125 -0.46875 -0.203125 -1.9375l0 -5.578125l-1.203125 0l0 -1.265625l1.203125 0l0 -2.390625l1.625 -0.984375l0 3.375l1.65625 0l0 1.265625l-1.65625 0l0 5.671875q0 0.6875 0.078125 0.890625q0.09375 0.203125 0.28125 0.328125q0.203125 0.109375 0.578125 0.109375q0.265625 0 0.71875 -0.0625z" fill-rule="nonzero"/><path fill="#d9d2e9" d="m591.8797 525.58795l0 0c0 -36.807404 44.02417 -66.64569 98.33075 -66.64569l0 0c54.30652 0 98.33069 29.838287 98.33069 66.64569l0 0c0 36.807373 -44.02417 66.64563 -98.33069 66.64563l0 0c-54.30658 0 -98.33075 -29.838257 -98.33075 -66.64563z" fill-rule="evenodd"/><path stroke="#000000" stroke-width="1.0" stroke-linejoin="round" stroke-linecap="butt" d="m591.8797 525.58795l0 0c0 -36.807404 44.02417 -66.64569 98.33075 -66.64569l0 0c54.30652 0 98.33069 29.838287 98.33069 66.64569l0 0c0 36.807373 -44.02417 66.64563 -98.33069 66.64563l0 0c-54.30658 0 -98.33075 -29.838257 -98.33075 -66.64563z" fill-rule="evenodd"/><path fill="#000000" d="m642.0677 527.82043l1.765625 0.453125q-0.5625 2.171875 -2.0 3.328125q-1.4375 1.140625 -3.53125 1.140625q-2.15625 0 -3.515625 -0.875q-1.34375 -0.890625 -2.0625 -2.546875q-0.703125 -1.671875 -0.703125 -3.59375q0 -2.078125 0.796875 -3.625q0.796875 -1.5625 2.265625 -2.359375q1.484375 -0.8125 3.25 -0.8125q2.0 0 3.359375 1.015625q1.375 1.015625 1.90625 2.875l-1.734375 0.40625q-0.46875 -1.453125 -1.359375 -2.109375q-0.875 -0.671875 -2.203125 -0.671875q-1.546875 0 -2.578125 0.734375q-1.03125 0.734375 -1.453125 1.984375q-0.421875 1.234375 -0.421875 2.5625q0 1.703125 0.5 2.96875q0.5 1.265625 1.546875 1.90625q1.046875 0.625 2.265625 0.625q1.484375 0 2.515625 -0.859375q1.03125 -0.859375 1.390625 -2.546875zm3.1291504 -0.15625q0 -2.6875 1.484375 -3.96875q1.25 -1.078125 3.046875 -1.078125q2.0 0 3.265625 1.3125q1.265625 1.296875 1.265625 3.609375q0 1.859375 -0.5625 2.9375q-0.5625 1.0625 -1.640625 1.65625q-1.0625 0.59375 -2.328125 0.59375q-2.03125 0 -3.28125 -1.296875q-1.25 -1.3125 -1.25 -3.765625zm1.6875 0q0 1.859375 0.796875 2.796875q0.8125 0.921875 2.046875 0.921875q1.21875 0 2.03125 -0.921875q0.8125 -0.9375 0.8125 -2.84375q0 -1.796875 -0.8125 -2.71875q-0.8125 -0.921875 -2.03125 -0.921875q-1.234375 0 -2.046875 0.921875q-0.796875 0.90625 -0.796875 2.765625zm9.297607 4.84375l0 -9.671875l1.46875 0l0 1.375q1.0625 -1.59375 3.078125 -1.59375q0.875 0 1.609375 0.3125q0.734375 0.3125 1.09375 0.828125q0.375 0.5 0.515625 1.203125q0.09375 0.453125 0.09375 1.59375l0 5.953125l-1.640625 0l0 -5.890625q0 -1.0 -0.203125 -1.484375q-0.1875 -0.5 -0.671875 -0.796875q-0.484375 -0.296875 -1.140625 -0.296875q-1.046875 0 -1.8125 0.671875q-0.75 0.65625 -0.75 2.515625l0 5.28125l-1.640625 0zm10.375732 0l0 -9.671875l1.46875 0l0 1.375q1.0625 -1.59375 3.078125 -1.59375q0.875 0 1.609375 0.3125q0.734375 0.3125 1.09375 0.828125q0.375 0.5 0.515625 1.203125q0.09375 0.453125 0.09375 1.59375l0 5.953125l-1.640625 0l0 -5.890625q0 -1.0 -0.203125 -1.484375q-0.1875 -0.5 -0.671875 -0.796875q-0.484375 -0.296875 -1.140625 -0.296875q-1.046875 0 -1.8125 0.671875q-0.75 0.65625 -0.75 2.515625l0 5.28125l-1.640625 0zm17.000732 -3.109375l1.6875 0.203125q-0.40625 1.484375 -1.484375 2.3125q-1.078125 0.8125 -2.765625 0.8125q-2.125 0 -3.375 -1.296875q-1.234375 -1.3125 -1.234375 -3.671875q0 -2.453125 1.25 -3.796875q1.265625 -1.34375 3.265625 -1.34375q1.9375 0 3.15625 1.328125q1.234375 1.3125 1.234375 3.703125q0 0.15625 0 0.4375l-7.21875 0q0.09375 1.59375 0.90625 2.453125q0.8125 0.84375 2.015625 0.84375q0.90625 0 1.546875 -0.46875q0.640625 -0.484375 1.015625 -1.515625zm-5.390625 -2.65625l5.40625 0q-0.109375 -1.21875 -0.625 -1.828125q-0.78125 -0.953125 -2.03125 -0.953125q-1.125 0 -1.90625 0.765625q-0.765625 0.75 -0.84375 2.015625zm15.453796 2.21875l1.609375 0.21875q-0.265625 1.65625 -1.359375 2.609375q-1.078125 0.9375 -2.671875 0.9375q-1.984375 0 -3.1875 -1.296875q-1.203125 -1.296875 -1.203125 -3.71875q0 -1.578125 0.515625 -2.75q0.515625 -1.171875 1.578125 -1.75q1.0625 -0.59375 2.3125 -0.59375q1.578125 0 2.578125 0.796875q1.0 0.796875 1.28125 2.265625l-1.59375 0.234375q-0.234375 -0.96875 -0.8125 -1.453125q-0.578125 -0.5 -1.390625 -0.5q-1.234375 0 -2.015625 0.890625q-0.78125 0.890625 -0.78125 2.8125q0 1.953125 0.75 2.84375q0.75 0.875 1.953125 0.875q0.96875 0 1.609375 -0.59375q0.65625 -0.59375 0.828125 -1.828125zm6.59375 2.078125l0.234375 1.453125q-0.6875 0.140625 -1.234375 0.140625q-0.890625 0 -1.390625 -0.28125q-0.484375 -0.28125 -0.6875 -0.734375q-0.203125 -0.46875 -0.203125 -1.9375l0 -5.578125l-1.203125 0l0 -1.265625l1.203125 0l0 -2.390625l1.625 -0.984375l0 3.375l1.65625 0l0 1.265625l-1.65625 0l0 5.671875q0 0.6875 0.078125 0.890625q0.09375 0.203125 0.28125 0.328125q0.203125 0.109375 0.578125 0.109375q0.265625 0 0.71875 -0.0625zm0.08959961 5.171875l0 -1.1875l10.859375 0l0 1.1875l-10.859375 0zm12.156921 -3.703125l0 -13.359375l1.765625 0l0 5.484375l6.9375 0l0 -5.484375l1.765625 0l0 13.359375l-1.765625 0l0 -6.296875l-6.9375 0l0 6.296875l-1.765625 0zm12.597961 -4.84375q0 -2.6875 1.484375 -3.96875q1.25 -1.078125 3.046875 -1.078125q2.0 0 3.265625 1.3125q1.265625 1.296875 1.265625 3.609375q0 1.859375 -0.5625 2.9375q-0.5625 1.0625 -1.640625 1.65625q-1.0625 0.59375 -2.328125 0.59375q-2.03125 0 -3.28125 -1.296875q-1.25 -1.3125 -1.25 -3.765625zm1.6875 0q0 1.859375 0.796875 2.796875q0.8125 0.921875 2.046875 0.921875q1.21875 0 2.03125 -0.921875q0.8125 -0.9375 0.8125 -2.84375q0 -1.796875 -0.8125 -2.71875q-0.8125 -0.921875 -2.03125 -0.921875q-1.234375 0 -2.046875 0.921875q-0.796875 0.90625 -0.796875 2.765625zm8.641357 1.953125l1.625 -0.25q0.125 0.96875 0.75 1.5q0.625 0.515625 1.75 0.515625q1.125 0 1.671875 -0.453125q0.546875 -0.46875 0.546875 -1.09375q0 -0.546875 -0.484375 -0.875q-0.328125 -0.21875 -1.671875 -0.546875q-1.8125 -0.46875 -2.515625 -0.796875q-0.6875 -0.328125 -1.046875 -0.90625q-0.359375 -0.59375 -0.359375 -1.3125q0 -0.640625 0.296875 -1.1875q0.296875 -0.5625 0.8125 -0.921875q0.375 -0.28125 1.03125 -0.46875q0.671875 -0.203125 1.421875 -0.203125q1.140625 0 2.0 0.328125q0.859375 0.328125 1.265625 0.890625q0.421875 0.5625 0.578125 1.5l-1.609375 0.21875q-0.109375 -0.75 -0.640625 -1.171875q-0.515625 -0.421875 -1.46875 -0.421875q-1.140625 0 -1.625 0.375q-0.46875 0.375 -0.46875 0.875q0 0.3125 0.1875 0.578125q0.203125 0.265625 0.640625 0.4375q0.234375 0.09375 1.4375 0.421875q1.75 0.453125 2.4375 0.75q0.6875 0.296875 1.078125 0.859375q0.390625 0.5625 0.390625 1.40625q0 0.828125 -0.484375 1.546875q-0.46875 0.71875 -1.375 1.125q-0.90625 0.390625 -2.046875 0.390625q-1.875 0 -2.875 -0.78125q-0.984375 -0.78125 -1.25 -2.328125zm13.5625 1.421875l0.234375 1.453125q-0.6875 0.140625 -1.234375 0.140625q-0.890625 0 -1.390625 -0.28125q-0.484375 -0.28125 -0.6875 -0.734375q-0.203125 -0.46875 -0.203125 -1.9375l0 -5.578125l-1.203125 0l0 -1.265625l1.203125 0l0 -2.390625l1.625 -0.984375l0 3.375l1.65625 0l0 1.265625l-1.65625 0l0 5.671875q0 0.6875 0.078125 0.890625q0.09375 0.203125 0.28125 0.328125q0.203125 0.109375 0.578125 0.109375q0.265625 0 0.71875 -0.0625z" fill-rule="nonzero"/><path fill="#000000" fill-opacity="0.0" d="m318.1225 315.56036c0 -49.88977 40.92914 -99.779526 81.85828 -99.779526" fill-rule="evenodd"/><path stroke="#0000ff" stroke-width="2.0" stroke-linejoin="round" stroke-linecap="butt" d="m318.12253 315.56036c0 -24.944885 10.232269 -49.88977 25.580688 -68.59842c7.6741943 -9.35434 16.627441 -17.149612 26.220215 -22.606308c4.7963867 -2.7283325 9.752655 -4.87204 14.788849 -6.3336487c0.6295471 -0.18270874 1.2602844 -0.3547516 1.8921814 -0.51594543c0.3159485 -0.080596924 0.6321411 -0.15847778 0.9486084 -0.23362732c0.15820312 -0.037582397 0.31652832 -0.07447815 0.47485352 -0.110687256l0.03173828 -0.0071258545" fill-rule="evenodd"/><path fill="#0000ff" stroke="#0000ff" stroke-width="2.0" stroke-linecap="butt" d="m388.43784 220.43637l8.638336 -4.320816l-9.394684 -2.2426758z" fill-rule="evenodd"/><path fill="#000000" fill-opacity="0.0" d="m563.65137 215.7769c80.48822 0 160.97638 21.055115 160.97638 42.110245" fill-rule="evenodd"/><path stroke="#0000ff" stroke-width="2.0" stroke-linejoin="round" stroke-linecap="butt" d="m563.65137 215.7769c40.24408 0 80.48822 5.2637787 110.671326 13.159454c15.091492 3.9478302 27.667786 8.553635 36.47119 13.488434c2.2008667 1.2336884 4.1659546 2.4879608 5.8754883 3.7576447c0.4274292 0.3174286 0.83880615 0.63578796 1.2340088 0.9550781c0.09875488 0.07980347 0.1965332 0.15966797 0.29333496 0.2395935l0.26080322 0.21794128" fill-rule="evenodd"/><path fill="#0000ff" stroke="#0000ff" stroke-width="2.0" stroke-linecap="butt" d="m715.6242 249.29366l7.500183 6.0858154l-1.8336182 -9.4830475z" fill-rule="evenodd"/><path fill="#000000" fill-opacity="0.0" d="m620.6801 572.7135c0 9.397888 -34.188965 20.307495 -68.37793 18.795715c-34.188965 -1.5118408 -68.37796 -15.445068 -68.37796 -30.890198" fill-rule="evenodd"/><path stroke="#0000ff" stroke-width="2.0" stroke-linejoin="round" stroke-linecap="butt" d="m620.6801 572.71356c0 9.397827 -34.188965 20.307495 -68.37793 18.795654c-17.094482 -0.7559204 -34.189026 -4.6171265 -47.009857 -10.220093c-6.410431 -2.8014526 -11.752472 -6.03833 -15.491882 -9.540161c-0.11685181 -0.109436035 -0.23217773 -0.21917725 -0.3458557 -0.32910156l-0.1010437 -0.0993042" fill-rule="evenodd"/><path fill="#0000ff" stroke="#0000ff" stroke-width="2.0" stroke-linecap="butt" d="m492.29956 569.8259l-7.05249 -6.5994263l1.1604614 9.588684z" fill-rule="evenodd"/><path fill="#fff2cc" d="m21.862936 636.1845l0 0c0 -48.018005 45.038025 -86.944336 100.59524 -86.944336l0 0c55.55722 0 100.595245 38.92633 100.595245 86.944336l0 0c0 48.018005 -45.038025 86.944275 -100.595245 86.944275l0 0c-55.557213 0 -100.59524 -38.92627 -100.59524 -86.944275z" fill-rule="evenodd"/><path stroke="#000000" stroke-width="1.0" stroke-linejoin="round" stroke-linecap="butt" d="m21.862936 636.1845l0 0c0 -48.018005 45.038025 -86.944336 100.59524 -86.944336l0 0c55.55722 0 100.595245 38.92633 100.595245 86.944336l0 0c0 48.018005 -45.038025 86.944275 -100.595245 86.944275l0 0c-55.557213 0 -100.59524 -38.92627 -100.59524 -86.944275z" fill-rule="evenodd"/><path fill="#000000" fill-opacity="0.0" d="m41.020775 588.87665l161.42886 0l0 103.418335l-161.42886 0z" fill-rule="evenodd"/><path fill="#666666" d="m98.97756 622.19666l0 -18.125l7.703125 0q2.90625 0 4.21875 0.484375q1.3125 0.484375 2.109375 1.734375q0.796875 1.25 0.796875 2.859375q0 2.046875 -1.203125 3.375q-1.203125 1.328125 -3.59375 1.671875q1.1875 0.6875 1.953125 1.515625q0.78125 0.828125 2.09375 2.953125l2.21875 3.53125l-4.375 0l-2.65625 -3.9375q-1.40625 -2.125 -1.921875 -2.671875q-0.515625 -0.546875 -1.109375 -0.75q-0.578125 -0.203125 -1.828125 -0.203125l-0.75 0l0 7.5625l-3.65625 0zm3.65625 -10.46875l2.703125 0q2.640625 0 3.296875 -0.21875q0.65625 -0.21875 1.015625 -0.765625q0.375 -0.546875 0.375 -1.359375q0 -0.921875 -0.484375 -1.484375q-0.484375 -0.5625 -1.375 -0.703125q-0.453125 -0.0625 -2.671875 -0.0625l-2.859375 0l0 4.59375zm23.244293 10.46875l0 -1.96875q-0.71875 1.046875 -1.890625 1.65625q-1.171875 0.609375 -2.46875 0.609375q-1.328125 0 -2.375 -0.578125q-1.046875 -0.578125 -1.515625 -1.625q-0.46875 -1.0625 -0.46875 -2.921875l0 -8.3125l3.46875 0l0 6.046875q0 2.765625 0.1875 3.390625q0.203125 0.625 0.703125 1.0q0.5 0.359375 1.28125 0.359375q0.890625 0 1.59375 -0.484375q0.71875 -0.5 0.96875 -1.21875q0.265625 -0.734375 0.265625 -3.546875l0 -5.546875l3.4687424 0l0 13.140625l-3.2187424 0zm18.768303 0l-3.46875 0l0 -6.703125q0 -2.125 -0.234375 -2.75q-0.21875 -0.625 -0.71875 -0.96875q-0.5 -0.34375 -1.203125 -0.34375q-0.90625 0 -1.625 0.5q-0.71875 0.484375 -0.984375 1.296875q-0.265625 0.8125 -0.265625 3.015625l0 5.953125l-3.46875 0l0 -13.140625l3.21875 0l0 1.9375q1.71875 -2.234375 4.328125 -2.234375q1.15625 0 2.109375 0.421875q0.953125 0.40625 1.4375 1.0625q0.484375 0.640625 0.671875 1.453125q0.203125 0.8125 0.203125 2.34375l0 8.15625z" fill-rule="nonzero"/><path fill="#666666" d="m63.020912 643.6435q0 -2.765625 0.828125 -4.65625q0.625 -1.375 1.6875 -2.46875q1.078125 -1.109375 2.359375 -1.640625q1.6875 -0.71875 3.90625 -0.71875q4.0 0 6.40625 2.484375q2.40625 2.484375 2.40625 6.90625q0 4.390625 -2.390625 6.875q-2.390625 2.484375 -6.375 2.484375q-4.046875 0 -6.4375 -2.46875q-2.390625 -2.46875 -2.390625 -6.796875zm3.78125 -0.125q0 3.078125 1.421875 4.671875q1.421875 1.59375 3.609375 1.59375q2.1875 0 3.59375 -1.578125q1.40625 -1.578125 1.40625 -4.734375q0 -3.125 -1.375 -4.65625q-1.359375 -1.53125 -3.625 -1.53125q-2.265625 0 -3.65625 1.5625q-1.375 1.546875 -1.375 4.671875zm16.544785 -4.0625l3.234375 0l0 1.9375q0.640625 -0.984375 1.703125 -1.609375q1.078125 -0.625 2.390625 -0.625q2.296875 0 3.890625 1.796875q1.59375 1.796875 1.59375 5.0q0 3.296875 -1.609375 5.125q-1.609375 1.8125 -3.890625 1.8125q-1.09375 0 -1.984375 -0.421875q-0.875 -0.4375 -1.859375 -1.5l0 6.625l-3.46875 0l0 -18.140625zm3.4375 6.34375q0 2.21875 0.875 3.28125q0.875 1.046875 2.140625 1.046875q1.21875 0 2.015625 -0.96875q0.8125 -0.96875 0.8125 -3.171875q0 -2.078125 -0.828125 -3.078125q-0.828125 -1.0 -2.0625 -1.0q-1.265625 0 -2.109375 0.984375q-0.84375 0.984375 -0.84375 2.90625zm19.73706 2.609375l3.46875 0.59375q-0.671875 1.90625 -2.109375 2.90625q-1.4375 0.984375 -3.609375 0.984375q-3.421875 0 -5.0625 -2.234375q-1.3125 -1.796875 -1.3125 -4.53125q0 -3.265625 1.703125 -5.109375q1.71875 -1.859375 4.328125 -1.859375q2.921875 0 4.609375 1.9375q1.703125 1.9375 1.640625 5.9375l-8.71875 0q0.046875 1.546875 0.84375 2.40625q0.8125 0.859375 2.0 0.859375q0.828125 0 1.375 -0.4375q0.5625 -0.453125 0.84375 -1.453125zm0.203125 -3.5q-0.046875 -1.515625 -0.796875 -2.296875q-0.734375 -0.78125 -1.796875 -0.78125q-1.125 0 -1.875 0.828125q-0.734375 0.828125 -0.734375 2.25l5.203125 0zm9.601929 7.6875l-3.46875 0l0 -13.140625l3.21875 0l0 1.875q0.828125 -1.328125 1.484375 -1.75q0.671875 -0.421875 1.515625 -0.421875q1.1875 0 2.28125 0.65625l-1.0625 3.03125q-0.890625 -0.5625 -1.640625 -0.5625q-0.734375 0 -1.25 0.40625q-0.5 0.390625 -0.796875 1.453125q-0.28125 1.046875 -0.28125 4.390625l0 4.0625zm9.137955 -9.125l-3.15625 -0.578125q0.53125 -1.890625 1.828125 -2.8125q1.296875 -0.921875 3.859375 -0.921875q2.3281174 0 3.4531174 0.5625q1.140625 0.546875 1.609375 1.390625q0.46875 0.84375 0.46875 3.109375l-0.046875 4.0625q0 1.734375 0.171875 2.5625q0.171875 0.8125 0.625 1.75l-3.4375 0q-0.140625 -0.34375 -0.328125 -1.03125q-0.09375 -0.296875 -0.125 -0.40625q-0.890625 0.875 -1.90625 1.3125q-1.0156174 0.421875 -2.1718674 0.421875q-2.03125 0 -3.203125 -1.09375q-1.15625 -1.109375 -1.15625 -2.796875q0 -1.109375 0.53125 -1.96875q0.53125 -0.875 1.484375 -1.34375q0.96875 -0.46875 2.765625 -0.8125q2.4374924 -0.453125 3.3749924 -0.859375l0 -0.34375q0 -1.0 -0.5 -1.421875q-0.484375 -0.421875 -1.8593674 -0.421875q-0.921875 0 -1.453125 0.359375q-0.515625 0.359375 -0.828125 1.28125zm4.6406174 2.8125q-0.671875 0.234375 -2.1249924 0.546875q-1.4375 0.296875 -1.875 0.59375q-0.6875 0.484375 -0.6875 1.234375q0 0.71875 0.546875 1.25q0.546875 0.53125 1.390625 0.53125q0.9374924 0 1.7812424 -0.609375q0.640625 -0.46875 0.828125 -1.15625q0.140625 -0.4375 0.140625 -1.6875l0 -0.703125zm12.867554 -6.828125l0 2.78125l-2.375 0l0 5.28125q0 1.609375 0.0625 1.875q0.078125 0.265625 0.3125 0.453125q0.234375 0.171875 0.59375 0.171875q0.46875 0 1.390625 -0.34375l0.296875 2.703125q-1.21875 0.515625 -2.75 0.515625q-0.9375 0 -1.6875 -0.3125q-0.75 -0.3125 -1.109375 -0.8125q-0.359375 -0.5 -0.484375 -1.359375q-0.109375 -0.609375 -0.109375 -2.453125l0 -5.71875l-1.59375 0l0 -2.78125l1.59375 0l0 -2.609375l3.484375 -2.015625l0 4.625l2.375 0zm2.4032135 -1.78125l0 -3.203125l3.484375 0l0 3.203125l-3.484375 0zm0 14.921875l0 -13.140625l3.484375 0l0 13.140625l-3.484375 0zm6.240097 -6.75q0 -1.734375 0.84375 -3.34375q0.859375 -1.625 2.421875 -2.484375q1.5625 -0.859375 3.5 -0.859375q2.984375 0 4.875 1.9375q1.90625 1.9375 1.90625 4.890625q0 2.984375 -1.921875 4.953125q-1.921875 1.953125 -4.84375 1.953125q-1.796875 0 -3.4375 -0.8125q-1.640625 -0.8125 -2.5 -2.390625q-0.84375 -1.578125 -0.84375 -3.84375zm3.5625 0.1875q0 1.953125 0.921875 3.0q0.9375 1.03125 2.296875 1.03125q1.359375 0 2.28125 -1.03125q0.921875 -1.046875 0.921875 -3.03125q0 -1.921875 -0.921875 -2.953125q-0.921875 -1.046875 -2.28125 -1.046875q-1.359375 0 -2.296875 1.046875q-0.921875 1.03125 -0.921875 2.984375zm24.658936 6.5625l-3.46875 0l0 -6.703125q0 -2.125 -0.234375 -2.75q-0.21875 -0.625 -0.71875 -0.96875q-0.5 -0.34375 -1.203125 -0.34375q-0.90625 0 -1.625 0.5q-0.71875 0.484375 -0.984375 1.296875q-0.265625 0.8125 -0.265625 3.015625l0 5.953125l-3.46875 0l0 -13.140625l3.21875 0l0 1.9375q1.71875 -2.234375 4.328125 -2.234375q1.15625 0 2.109375 0.421875q0.953125 0.40625 1.4375 1.0625q0.484375 0.640625 0.671875 1.453125q0.203125 0.8125 0.203125 2.34375l0 8.15625z" fill-rule="nonzero"/><path fill="#666666" d="m59.235428 680.5185q-1.359375 -1.703125 -2.296875 -4.0q-0.9375 -2.296875 -0.9375 -4.765625q0 -2.15625 0.703125 -4.140625q0.828125 -2.3125 2.53125 -4.59375l1.171875 0q-1.09375 1.890625 -1.453125 2.703125q-0.546875 1.25 -0.875 2.625q-0.390625 1.703125 -0.390625 3.421875q0 4.375 2.71875 8.75l-1.171875 0zm5.618927 -3.921875l-3.53125 -13.359375l1.8125 0l2.03125 8.765625q0.328125 1.375 0.5625 2.71875q0.5 -2.140625 0.59375 -2.46875l2.546875 -9.015625l2.125 0l1.921875 6.765625q0.71875 2.515625 1.03125 4.71875q0.265625 -1.265625 0.671875 -2.890625l2.09375 -8.59375l1.78125 0l-3.671875 13.359375l-1.703125 0l-2.8125 -10.171875q-0.359375 -1.28125 -0.421875 -1.5625q-0.203125 0.90625 -0.390625 1.5625l-2.828125 10.171875l-1.8125 0zm15.577408 0l0 -13.359375l1.765625 0l0 13.359375l-1.765625 0zm4.980179 0l0 -13.359375l9.015625 0l0 1.578125l-7.25 0l0 4.140625l6.265625 0l0 1.578125l-6.265625 0l0 6.0625l-1.765625 0zm11.599106 0l0 -13.359375l1.765625 0l0 13.359375l-1.765625 0zm3.1676788 3.703125l0 -1.1875l10.859375 0l0 1.1875l-10.859375 0zm11.563217 -10.203125q0 -3.328125 1.78125 -5.203125q1.78125 -1.890625 4.609375 -1.890625q1.84375 0 3.328125 0.890625q1.484375 0.875 2.265625 2.46875q0.78125 1.578125 0.78125 3.578125q0 2.03125 -0.828125 3.640625q-0.8125 1.59375 -2.3125 2.421875q-1.5 0.828125 -3.25 0.828125q-1.875 0 -3.359375 -0.90625q-1.484375 -0.921875 -2.25 -2.5q-0.765625 -1.578125 -0.765625 -3.328125zm1.8125 0.015625q0 2.421875 1.296875 3.8125q1.296875 1.390625 3.265625 1.390625q2.0 0 3.28125 -1.40625q1.28125 -1.40625 1.28125 -3.984375q0 -1.625 -0.546875 -2.84375q-0.546875 -1.21875 -1.609375 -1.875q-1.0625 -0.671875 -2.375 -0.671875q-1.890625 0 -3.25 1.296875q-1.34375 1.28125 -1.34375 4.28125zm13.230179 6.484375l0 -13.359375l5.046875 0q1.328125 0 2.03125 0.125q0.96875 0.171875 1.640625 0.640625q0.671875 0.453125 1.078125 1.28125q0.40625 0.828125 0.40625 1.828125q0 1.703125 -1.09375 2.890625q-1.078125 1.171875 -3.921875 1.171875l-3.421875 0l0 5.421875l-1.765625 0zm1.765625 -7.0l3.453125 0q1.71875 0 2.4375 -0.640625q0.71875 -0.640625 0.71875 -1.796875q0 -0.84375 -0.421875 -1.4375q-0.421875 -0.59375 -1.125 -0.78125q-0.4375 -0.125 -1.640625 -0.125l-3.421875 0l0 4.78125zm10.927948 -0.8125l0 -1.859375l1.859375 0l0 1.859375l-1.859375 0zm0 7.8125l0 -1.875l1.859375 0l0 1.875l-1.859375 0zm5.183304 -7.8125l0 -1.859375l1.859375 0l0 1.859375l-1.859375 0zm0 7.8125l0 -1.875l1.859375 0l0 1.875l-1.859375 0zm4.964554 0l0 -13.359375l5.921875 0q1.78125 0 2.703125 0.359375q0.9375 0.359375 1.484375 1.28125q0.5625 0.90625 0.5625 2.015625q0 1.40625 -0.921875 2.390625q-0.921875 0.96875 -2.84375 1.234375q0.703125 0.34375 1.078125 0.671875q0.765625 0.703125 1.453125 1.765625l2.328125 3.640625l-2.21875 0l-1.765625 -2.78125q-0.78125 -1.203125 -1.28125 -1.828125q-0.5 -0.640625 -0.90625 -0.890625q-0.390625 -0.265625 -0.796875 -0.359375q-0.296875 -0.078125 -0.984375 -0.078125l-2.046875 0l0 5.9375l-1.765625 0zm1.765625 -7.453125l3.796875 0q1.21875 0 1.890625 -0.25q0.6875 -0.265625 1.046875 -0.8125q0.359375 -0.546875 0.359375 -1.1875q0 -0.953125 -0.6875 -1.5625q-0.6875 -0.609375 -2.1875 -0.609375l-4.21875 0l0 4.421875zm17.801056 7.453125l0 -1.421875q-1.1249847 1.640625 -3.0624847 1.640625q-0.859375 0 -1.609375 -0.328125q-0.734375 -0.328125 -1.09375 -0.828125q-0.359375 -0.5 -0.5 -1.21875q-0.109375 -0.46875 -0.109375 -1.53125l0 -5.984375l1.640625 0l0 5.359375q0 1.28125 0.109375 1.734375q0.15625 0.640625 0.65625 1.015625q0.5 0.375 1.234375 0.375q0.734375 0 1.375 -0.375q0.65625 -0.390625 0.921875 -1.03125q0.26560974 -0.65625 0.26560974 -1.890625l0 -5.1875l1.640625 0l0 9.671875l-1.46875 0zm4.0476074 0l0 -9.671875l1.46875 0l0 1.375q1.0625 -1.59375 3.078125 -1.59375q0.875 0 1.609375 0.3125q0.734375 0.3125 1.09375 0.828125q0.375 0.5 0.515625 1.203125q0.09375 0.453125 0.09375 1.59375l0 5.953125l-1.640625 0l0 -5.890625q0 -1.0 -0.203125 -1.484375q-0.1875 -0.5 -0.671875 -0.796875q-0.484375 -0.296875 -1.140625 -0.296875q-1.046875 0 -1.8125 0.671875q-0.75 0.65625 -0.75 2.515625l0 5.28125l-1.640625 0zm11.453827 3.921875l-1.1875 0q2.734375 -4.375 2.734375 -8.75q0 -1.71875 -0.390625 -3.390625q-0.3125 -1.375 -0.875 -2.625q-0.359375 -0.828125 -1.46875 -2.734375l1.1875 0q1.703125 2.28125 2.53125 4.59375q0.6875 1.984375 0.6875 4.140625q0 2.46875 -0.9375 4.765625q-0.9375 2.296875 -2.28125 4.0z" fill-rule="nonzero"/><path fill="#000000" fill-opacity="0.0" d="m807.0504 376.60498c0 25.676453 -11.826782 38.620605 -23.653564 51.352875c-11.826782 12.732269 -23.653564 25.252716 -23.653564 50.5054" fill-rule="evenodd"/><path stroke="#0000ff" stroke-width="2.0" stroke-linejoin="round" stroke-linecap="butt" d="m807.05035 376.60498c0 25.676422 -11.826782 38.620575 -23.653564 51.352875c-5.91333 6.3661194 -11.826721 12.679291 -16.26178 20.557526c-2.2175293 3.939148 -4.0654297 8.269531 -5.359009 13.19339c-0.3234253 1.2309875 -0.6121216 2.4990234 -0.8633423 3.807373c-0.031433105 0.16351318 -0.062194824 0.32769775 -0.09246826 0.4925232l-0.08862305 0.49536133" fill-rule="evenodd"/><path fill="#0000ff" stroke="#0000ff" stroke-width="2.0" stroke-linecap="butt" d="m757.4393 466.23196l2.5447998 9.317413l4.039673 -8.773315z" fill-rule="evenodd"/><path fill="#000000" fill-opacity="0.0" d="m368.1855 560.6297c0 37.77954 -72.566925 75.55908 -145.13385 75.55908" fill-rule="evenodd"/><path stroke="#0000ff" stroke-width="2.0" stroke-linejoin="round" stroke-linecap="butt" d="m368.1855 560.6297c0 18.88977 -18.141724 37.77954 -45.35434 51.94684c-13.606293 7.083679 -29.480316 12.986755 -46.48819 17.118896c-8.503937 2.06604 -17.29132 3.689392 -26.220459 4.7962036c-4.464569 0.55340576 -8.964569 0.97766113 -13.482285 1.2636108l-1.5933533 0.09466553" fill-rule="evenodd"/><path fill="#0000ff" stroke="#0000ff" stroke-width="2.0" stroke-linecap="butt" d="m234.95357 632.5478l-8.979294 3.5584106l9.165848 3.0458984z" fill-rule="evenodd"/><path fill="#000000" fill-opacity="0.0" d="m193.58975 574.70557c0 -26.892334 16.661423 -32.84375 33.322845 -53.78473c16.661407 -20.940918 33.322815 -56.8714 33.322815 -113.74283" fill-rule="evenodd"/><path stroke="#0000ff" stroke-width="2.0" stroke-linejoin="round" stroke-linecap="butt" d="m193.58975 574.70557c0 -26.892334 16.661423 -32.84375 33.32283 -53.78473c8.330719 -10.470459 16.661423 -24.688293 22.909454 -43.39746c3.1240082 -9.354584 5.727356 -19.83197 7.549698 -31.525208c0.91116333 -5.846649 1.6271057 -11.997192 2.1152344 -18.463348c0.12200928 -1.6165161 0.22979736 -3.252777 0.32287598 -4.908966c0.04650879 -0.82806396 0.08935547 -1.6611328 0.12844849 -2.499176l0.042114258 -0.951355" fill-rule="evenodd"/><path fill="#0000ff" stroke="#0000ff" stroke-width="2.0" stroke-linecap="butt" d="m263.2831 419.2455l-3.1098328 -9.144348l-3.4956055 9.003937z" fill-rule="evenodd"/></g></svg>